<?xml version="1.0" encoding="UTF-8"?>
<svg xmlns="http://www.w3.org/2000/svg" viewBox="0 0 6664.8 6259.65">
  <defs>
    <style>
      .cls-1, .cls-2 {
        stroke-width: 0px;
      }

      .cls-3 {
        stroke: #007dc4;
        stroke-width: 15px;
      }

      .cls-3, .cls-4 {
        stroke-miterlimit: 10;
      }

      .cls-3, .cls-4, .cls-5, .cls-6 {
        fill: none;
      }

      .cls-2 {
        fill: #888;
      }

      .cls-4 {
        stroke: #187943;
        stroke-width: 4px;
      }

      .cls-5 {
        fill-rule: evenodd;
      }

      .cls-5, .cls-6 {
        stroke: #000;
        stroke-linecap: round;
        stroke-linejoin: round;
        stroke-width: 2px;
      }
    </style>
  </defs>
  <g id="_底图" data-name="底图">
    <g id="_标题" data-name="标题">
      <g>
        <path class="cls-1" d="m218.07,71.45v67.36h-16.87v-6.75h-30.51v42.12h-17.01v-42.12h-30.37v7.42h-16.2v-68.04h46.57v-23.35h17.01v23.35h47.38Zm-64.39,44.82v-29.02h-30.37v29.02h30.37Zm47.52,0v-29.02h-30.51v29.02h30.51Z"/>
        <path class="cls-1" d="m274.78,97.5c-1.89,17.41-5.27,40.77-9.85,56.02l-16.2-6.48c4.73-14.31,8.64-34.56,10.39-52.51l15.66,2.97Zm25.38-10.93v62.64c0,6.34,1.08,7.42,7.56,7.42h19.3c6.75,0,7.96-4.32,8.91-25.38,3.78,2.83,10.66,5.67,15.12,6.75-1.89,25.65-6.21,33.61-22.81,33.61h-22.41c-17.55,0-22.41-5.4-22.41-22.41v-62.64h16.74Zm-1.21-36.31c12.15,7.69,29.29,19.57,37.39,27.94l-11.88,12.55c-7.29-8.23-23.89-21.06-36.45-29.56l10.93-10.93Zm58.86,39.96c7.56,16.06,14.58,36.31,17.41,50.22l-16.33,6.75c-2.02-13.77-9.04-35.1-16.06-50.89l14.98-6.07Z"/>
        <path class="cls-1" d="m520.74,97.37c-4.32,17.68-10.26,33.34-18.49,46.3,2.16,8.91,4.59,14.04,7.15,14.04,2.02,0,3.1-6.34,3.51-20.11,2.97,3.37,7.56,6.88,11.2,8.37-2.02,20.79-6.21,26.59-16.6,26.59-6.61,0-11.74-5.67-15.66-14.98-5.53,6.48-11.88,12.01-18.9,16.74-2.16-2.7-7.83-8.37-11.2-10.66,9.99-5.94,18.22-13.5,25.11-22.81-3.51-16.33-5.4-37.39-6.34-59.53h-26.32v14.58h24.03s0,3.65-.14,5.4c-.4,30.1-.94,42.12-3.65,45.76-2.16,2.97-4.18,4.18-7.42,4.72-2.7.54-7.02.67-11.61.54-.4-4.05-1.48-9.31-3.37-12.69-2.16,12.96-6.48,25.65-15.12,34.96-2.16-2.7-8.23-7.83-11.61-9.85,5.4-6.07,8.91-13.5,10.8-21.06-11.88,4.86-24.57,10.12-34.83,14.31l-5.13-16.06c4.05-1.08,8.77-2.7,14.04-4.46v-42.52h-11.74v-14.85h11.74v-30.24h14.85v30.24h10.53v14.85h-10.53v37.26l10.39-3.65,1.89,9.85c1.89-9.04,2.16-18.63,2.16-26.86v-44.82h40.63c-.13-6.34-.27-12.55-.27-18.76h15.12c-.14,6.35-.14,12.55,0,18.76h10.53c-2.7-4.19-6.61-9.04-10.26-12.82l10.93-6.48c4.99,4.72,10.66,11.34,13.09,15.79l-5.67,3.51h7.42v14.58h-25.78c.67,14.17,1.62,27.54,3.1,39.01,3.38-7.83,5.94-16.47,7.96-25.65l14.44,2.7Zm-66.55,11.47v2.7c0,8.37-.4,18.09-2.02,27.67,3.38.41,5.94.41,7.42.41s2.43-.41,3.38-1.62c1.21-2.02,1.62-9.18,1.89-29.16h-10.66Z"/>
        <path class="cls-1" d="m669.38,155.01v15.39h-117.45V54.03h113.94v15.39h-98.28v85.59h101.79Zm-25.24-6.21c-6.21-7.29-15.93-16.6-26.73-26.46-11.07,10.53-22.81,19.57-34.56,26.73-2.7-3.24-8.64-9.45-12.28-12.42,12.28-6.34,24.16-14.98,34.96-24.7-9.99-8.64-20.25-17.14-29.43-24.3l11.2-9.85c8.77,6.88,19.17,14.85,29.29,23.22,8.1-8.64,14.98-17.82,20.65-27.4l15.25,6.07c-6.75,11.07-14.85,21.6-23.89,31.32,11.2,9.31,21.33,18.49,28.08,25.92l-12.55,11.88Z"/>
        <path class="cls-1" d="m743.63,56.46c-9.04,21.87-23.35,42.25-37.93,55.48-2.16-2.02-6.75-5.54-9.31-7.15,15.12-11.88,28.62-31.18,36.58-51.3l10.66,2.97Zm37.12,64.66c11.74,14.31,25.51,33.21,32.13,45.36l-9.72,5.4c-2.16-4.32-5.4-9.58-8.91-15.12-70.87,4.86-78.16,5.27-83.16,7.15-.54-2.16-2.43-7.69-3.92-10.53,3.51-.81,7.15-4.86,12.28-11.2,5.26-6.07,21.6-29.43,32.4-51.84l10.8,4.86c-11.07,20.38-24.3,40.36-37.53,56.02l62.77-3.78c-5.4-7.56-11.2-15.39-16.47-22l9.31-4.32Zm-2.16-68.58c8.91,18.36,26.05,39.69,39.96,50.89-2.56,2.02-6.34,5.8-8.37,8.5-13.9-12.82-31.05-35.37-41.44-55.62l9.85-3.78Z"/>
        <path class="cls-1" d="m935.46,107.63c-5.53,13.77-13.09,25.11-22.54,34.15,13.9,10.53,31.72,17.68,53.32,21.06-2.16,2.16-4.86,6.21-6.21,9.04-22.27-4.32-40.36-12.01-54.67-23.62-14.85,11.74-33.34,19.3-55.08,24.84-1.08-2.43-4.05-6.88-6.08-9.04,21.6-4.46,39.82-11.61,53.86-22.41-9.31-9.04-16.47-20.25-21.87-33.34l8.91-2.7c4.59,11.47,11.47,21.6,20.25,29.83,8.64-8.23,15.39-18.36,19.84-30.64l10.26,2.83Zm27.27-29.7h-115.83v-9.85h56.02c-1.89-4.72-5.67-11.34-8.91-16.6l9.31-3.24c3.78,5.4,8.1,12.82,9.99,17.41l-6.07,2.43h55.48v9.85Zm-72.49,7.96c-9.04,11.47-23.22,23.49-35.1,31.18-1.75-2.02-5.53-5.8-7.69-7.56,11.88-6.75,25.11-17.14,33.21-27.4l9.58,3.78Zm38.34-4.05c12.28,8.37,27.4,20.52,34.69,29.16l-8.23,6.48c-6.75-8.5-21.73-21.33-34.15-29.83l7.69-5.8Z"/>
        <path class="cls-1" d="m1037.93,119.51c-.27,2.56-.27,6.48,0,8.37-33.61,6.88-38.07,8.1-40.9,9.72-.54-2.02-1.89-6.48-3.1-9.18,2.83-.54,5.94-3.78,9.99-8.77,2.56-2.7,7.83-9.45,13.63-18.22-16.2,2.16-19.44,2.97-21.46,4.05-.4-2.16-2.02-6.88-3.1-9.58,2.43-.54,4.73-3.65,7.69-8.23,2.83-4.45,12.55-21.6,17.95-37.66l9.45,4.32c-5.94,13.9-13.63,28.48-21.6,39.96l16.87-1.62c3.1-5,5.94-9.99,8.5-14.98l8.37,5.13c-8.64,14.85-18.63,29.56-29.02,41.58l26.73-4.86Zm2.03,31.86l-44.14,13.09-2.02-9.72c11.07-2.56,28.08-7.42,44.68-11.88l1.49,8.5Zm73.71-32.13c-6.75,10.53-15.79,20.11-26.46,28.08,4.18,9.85,9.31,15.39,15.12,15.39,3.65,0,5.13-3.24,5.67-15.12,2.16,2.29,5.13,4.46,7.42,5.27-1.76,15.12-4.86,19.57-14.04,19.57s-16.74-7.15-22.27-19.3c-10.66,7.02-22.68,12.96-35.23,17.28-1.35-2.56-3.91-5.94-6.21-8.23,13.77-4.18,26.73-10.26,38.07-17.82-2.83-8.5-4.86-18.49-6.61-29.7l-25.65,4.99-1.75-9.04,26.19-4.86c-.68-5.8-1.22-11.88-1.62-18.09l-19.98,3.1-1.76-9.04,21.19-3.1c-.54-9.45-.81-19.17-.94-29.29h9.85c0,9.72.13,18.9.54,27.81l32.26-4.73,1.62,8.77-33.34,5.13c.54,6.21,1.08,12.01,1.75,17.68l33.61-6.34,1.75,8.77-34.29,6.48c1.48,9.58,3.37,18.22,5.53,25.51,8.5-6.88,15.79-14.58,21.19-23.08l8.37,3.92Zm-13.5-49.54c-4.19-3.65-12.69-8.91-19.3-12.15l5.67-5.53c6.61,2.83,15.25,7.96,19.44,11.47l-5.8,6.21Z"/>
        <path class="cls-1" d="m1257.44,159.46c0,6.34-1.76,9.45-6.08,11.2-4.32,1.62-11.61,1.89-23.76,1.75-.54-2.83-2.43-7.15-3.78-9.99,8.91.4,17.68.27,20.25.27,2.43-.14,3.51-.94,3.51-3.24v-92.34h-90.72v105.43h-9.99V57.68h110.56v101.79Zm-61.29-18.49c-2.56-4.86-6.21-10.8-10.26-17.14-5.4,12.69-12.01,23.35-20.11,31.99-1.48-1.35-5.67-4.19-7.83-5.53,9.31-9.04,16.47-21.06,21.6-35.37-5.94-8.5-12.55-17.28-18.63-24.7l6.21-5.53c5.27,6.07,10.66,13.09,15.79,19.98,2.56-8.91,4.46-18.22,6.07-28.21l9.18.95c-2.16,13.09-4.99,25.38-8.64,36.45,5.27,7.56,9.99,14.85,13.23,20.65l-6.61,6.48Zm38.88,4.05c-2.7-5.81-6.48-12.96-11.07-20.52-5.4,12.82-12.01,23.62-20.52,32.4-1.76-1.48-5.67-4.32-7.96-5.53,9.99-9.04,17.14-21.46,22.54-36.31-5.8-8.5-12.28-17.28-18.36-24.84l6.48-4.99c5.13,5.94,10.26,12.69,15.12,19.44,2.56-8.77,4.32-18.09,5.81-27.94l9.04.95c-2.02,13.23-4.72,25.38-8.37,36.45,5.94,9.04,11.07,17.95,14.31,25.11l-7.02,5.81Z"/>
        <path class="cls-1" d="m1406.21,55.38v117.45h-9.85v-5.67h-91.93v5.67h-9.72V55.38h111.51Zm-9.85,102.87v-93.69h-91.93v93.69h91.93Zm-12.55-77.22c-5.67,8.91-14.17,16.6-24.03,23.08,10.26,4.86,22.14,8.5,33.88,10.66-1.75,1.75-4.32,5.26-5.53,7.56-12.69-2.7-25.38-7.29-36.58-13.36-12.69,6.88-26.73,11.88-39.96,14.85-.95-2.29-3.11-6.21-4.73-8.23,11.88-2.16,24.7-6.34,36.18-11.61-5.4-3.65-10.39-7.69-14.58-12.01-4.05,3.65-8.1,6.88-12.28,9.58-1.49-1.62-4.86-4.73-6.88-6.07,11.47-6.75,22.95-17.14,29.7-28.08l8.24,2.7c-1.49,2.7-3.38,5.27-5.4,7.83h34.69l1.62-.41,5.67,3.51Zm-58.72,53.86c18.09,2.02,41.17,7.15,54.27,11.61l-4.59,7.42c-12.69-4.59-35.91-9.99-54.27-12.15l4.59-6.88Zm12.82-16.2c10.8,2.16,24.3,6.48,31.86,9.85l-4.19,6.75c-7.42-3.65-21.06-8.23-31.72-10.53l4.05-6.07Zm-3.78-32.13c4.46,4.86,10.26,9.31,17.14,13.23,7.29-4.18,13.63-8.91,18.49-14.04h-34.83l-.81.81Z"/>
        <path class="cls-2" d="m127.45,232.64c-1.34,2.27-3.14,4.05-5.4,5.33-2.26,1.28-4.81,1.92-7.66,1.92-3.33,0-6.27-.82-8.83-2.45-2.56-1.63-4.54-3.91-5.95-6.84-1.41-2.93-2.11-6.3-2.11-10.1s.71-7.06,2.14-9.96c1.42-2.9,3.42-5.14,6-6.72,2.58-1.58,5.54-2.38,8.9-2.38,2.85,0,5.38.65,7.61,1.94,2.22,1.3,3.98,3.06,5.26,5.3l-4.56,2.64c-.86-1.47-2.07-2.63-3.62-3.48-1.55-.85-3.18-1.27-4.87-1.27-2.21,0-4.16.58-5.86,1.75-1.7,1.17-3.02,2.8-3.96,4.9-.94,2.1-1.42,4.52-1.42,7.27s.47,5.26,1.42,7.44c.94,2.18,2.26,3.86,3.96,5.06,1.7,1.2,3.65,1.8,5.86,1.8,1.66,0,3.25-.43,4.75-1.3,1.5-.86,2.77-2.05,3.79-3.55l4.56,2.69Z"/>
        <path class="cls-2" d="m156.11,227.74h-18c.26,2.37,1.02,4.22,2.28,5.57,1.26,1.34,2.97,2.02,5.11,2.02,1.25,0,2.42-.33,3.5-.98,1.09-.66,2-1.59,2.74-2.81l4.22,2.35c-1.06,1.92-2.46,3.4-4.22,4.44-1.76,1.04-3.84,1.56-6.24,1.56-2.62,0-4.9-.56-6.82-1.68s-3.4-2.71-4.44-4.78c-1.04-2.06-1.56-4.49-1.56-7.27s.5-5.33,1.49-7.44c.99-2.11,2.42-3.74,4.27-4.87,1.86-1.14,4.03-1.7,6.53-1.7,3.55,0,6.36,1.06,8.42,3.17,2.06,2.11,3.1,4.98,3.1,8.59,0,1.5-.13,2.78-.38,3.84Zm-4.94-4.51c0-1.98-.56-3.57-1.68-4.75-1.12-1.18-2.62-1.78-4.51-1.78-1.76,0-3.22.57-4.37,1.7-1.15,1.14-1.92,2.74-2.3,4.82h12.86Z"/>
        <path class="cls-2" d="m163.02,239.21v-26.4h5.23v3.65h.24c.8-1.31,1.91-2.36,3.34-3.14s2.94-1.18,4.54-1.18c2.85,0,5.06.89,6.65,2.66s2.38,4.28,2.38,7.51v16.9h-5.23v-15.94c0-1.89-.51-3.4-1.54-4.54-1.02-1.14-2.34-1.7-3.94-1.7-1.92,0-3.47.62-4.66,1.85-1.18,1.23-1.78,2.87-1.78,4.92v15.41h-5.23Z"/>
        <path class="cls-2" d="m207.23,217.76h-7.34v13.39c0,1.28.34,2.27,1.03,2.98.69.7,1.66,1.06,2.9,1.06.9,0,1.84-.18,2.83-.53v4.9c-1.22.42-2.54.62-3.98.62-2.59,0-4.58-.73-5.95-2.18-1.38-1.46-2.06-3.54-2.06-6.26v-13.97h-4.13v-4.94h4.13v-8.06h5.23v8.06h7.34v4.94Z"/>
        <path class="cls-2" d="m212.7,239.21l-.1-26.4h5.38v4.94h.24c1.02-1.79,2.37-3.18,4.03-4.15,1.66-.98,3.58-1.46,5.76-1.46h.29v5.42h-.43c-3.14,0-5.57.67-7.3,2.02-1.73,1.34-2.59,3.09-2.59,5.23v14.4h-5.28Z"/>
        <path class="cls-2" d="m233.72,237.87c-1.5-1.34-2.26-3.15-2.26-5.42,0-2.85,1.12-5.02,3.36-6.5,2.24-1.49,5.42-2.23,9.55-2.23h3.36v-1.68c0-1.63-.49-2.92-1.46-3.86-.98-.94-2.28-1.42-3.91-1.42-2.11,0-4.16.94-6.14,2.83l-3.26-3.07c2.72-2.91,6-4.37,9.84-4.37,3.1,0,5.58.86,7.42,2.59,1.84,1.73,2.76,4.03,2.76,6.91v17.57h-5.23v-3.5h-.29c-.67,1.28-1.71,2.3-3.12,3.05-1.41.75-2.93,1.13-4.56,1.13-2.53,0-4.54-.67-6.05-2.02Zm10.39-3.17c1.04-.42,1.9-1.06,2.59-1.94.69-.88,1.03-1.96,1.03-3.24v-1.25h-2.54c-2.85,0-4.95.31-6.31.94-1.36.62-2.04,1.59-2.04,2.9,0,.96.38,1.74,1.13,2.33.75.59,1.77.89,3.05.89,1.02,0,2.06-.21,3.1-.62Z"/>
        <path class="cls-2" d="m260.41,202.11h5.23v30.62c0,1.25.62,1.87,1.87,1.87h1.3v4.94h-2.69c-1.89,0-3.31-.45-4.27-1.34s-1.44-2.21-1.44-3.94v-32.16Z"/>
        <path class="cls-2" d="m312.95,232.23c1.49-1.71,2.23-4.04,2.23-6.98v-23.14h5.47v23.47c0,2.91-.56,5.45-1.68,7.61-1.12,2.16-2.72,3.82-4.8,4.97-2.08,1.15-4.51,1.73-7.3,1.73s-5.22-.58-7.3-1.73c-2.08-1.15-3.68-2.81-4.8-4.97-1.12-2.16-1.68-4.7-1.68-7.61v-23.47h5.42v22.94c0,2.98.75,5.34,2.26,7.1,1.5,1.76,3.54,2.64,6.1,2.64s4.58-.86,6.07-2.57Z"/>
        <path class="cls-2" d="m328.81,239.21l-.1-26.4h5.38v4.94h.24c1.02-1.79,2.37-3.18,4.03-4.15,1.66-.98,3.58-1.46,5.76-1.46h.29v5.42h-.43c-3.14,0-5.57.67-7.3,2.02-1.73,1.34-2.59,3.09-2.59,5.23v14.4h-5.28Z"/>
        <path class="cls-2" d="m349.59,239.21v-37.1h5.23v14.26h.24c.93-1.31,2.08-2.34,3.46-3.07,1.38-.74,2.85-1.1,4.42-1.1,2.14,0,4.05.56,5.71,1.68,1.66,1.12,2.96,2.7,3.89,4.73.93,2.03,1.39,4.36,1.39,6.98,0,2.78-.46,5.26-1.39,7.44-.93,2.18-2.22,3.86-3.89,5.06-1.66,1.2-3.57,1.8-5.71,1.8-1.66,0-3.17-.37-4.51-1.1-1.34-.74-2.46-1.78-3.36-3.12h-.24v3.55h-5.23Zm6.94-6.82c1.26,1.63,2.89,2.45,4.87,2.45,2.11,0,3.83-.82,5.16-2.45,1.33-1.63,1.99-3.76,1.99-6.38,0-1.7-.3-3.22-.89-4.56-.59-1.34-1.42-2.39-2.47-3.14-1.06-.75-2.26-1.13-3.6-1.13s-2.54.38-3.6,1.13c-1.06.75-1.88,1.8-2.47,3.14-.59,1.34-.89,2.86-.89,4.56,0,2.62.63,4.75,1.9,6.38Z"/>
        <path class="cls-2" d="m381.42,237.87c-1.5-1.34-2.26-3.15-2.26-5.42,0-2.85,1.12-5.02,3.36-6.5,2.24-1.49,5.42-2.23,9.55-2.23h3.36v-1.68c0-1.63-.49-2.92-1.46-3.86-.98-.94-2.28-1.42-3.91-1.42-2.11,0-4.16.94-6.14,2.83l-3.26-3.07c2.72-2.91,6-4.37,9.84-4.37,3.1,0,5.58.86,7.42,2.59,1.84,1.73,2.76,4.03,2.76,6.91v17.57h-5.23v-3.5h-.29c-.67,1.28-1.71,2.3-3.12,3.05-1.41.75-2.93,1.13-4.56,1.13-2.53,0-4.54-.67-6.05-2.02Zm10.39-3.17c1.04-.42,1.9-1.06,2.59-1.94.69-.88,1.03-1.96,1.03-3.24v-1.25h-2.54c-2.85,0-4.95.31-6.31.94-1.36.62-2.04,1.59-2.04,2.9,0,.96.38,1.74,1.13,2.33.75.59,1.77.89,3.05.89,1.02,0,2.06-.21,3.1-.62Z"/>
        <path class="cls-2" d="m408.11,239.21v-26.4h5.23v3.65h.24c.8-1.31,1.91-2.36,3.34-3.14s2.94-1.18,4.54-1.18c2.85,0,5.06.89,6.65,2.66s2.38,4.28,2.38,7.51v16.9h-5.23v-15.94c0-1.89-.51-3.4-1.54-4.54-1.02-1.14-2.34-1.7-3.94-1.7-1.92,0-3.47.62-4.66,1.85-1.18,1.23-1.78,2.87-1.78,4.92v15.41h-5.23Z"/>
        <path class="cls-2" d="m486.3,239.21h-5.76l-3.89-11.09h-13.3l-3.89,11.09h-5.76l13.49-37.1h5.62l13.49,37.1Zm-16.46-29.57l-4.66,13.34h9.65l-4.7-13.34h-.29Z"/>
        <path class="cls-2" d="m491.43,239.21l-.1-26.4h5.38v4.94h.24c1.02-1.79,2.37-3.18,4.03-4.15,1.66-.98,3.58-1.46,5.76-1.46h.29v5.42h-.43c-3.14,0-5.57.67-7.3,2.02-1.73,1.34-2.59,3.09-2.59,5.23v14.4h-5.28Z"/>
        <path class="cls-2" d="m533.67,227.74h-18c.26,2.37,1.02,4.22,2.28,5.57,1.26,1.34,2.97,2.02,5.11,2.02,1.25,0,2.42-.33,3.5-.98,1.09-.66,2-1.59,2.74-2.81l4.22,2.35c-1.06,1.92-2.46,3.4-4.22,4.44-1.76,1.04-3.84,1.56-6.24,1.56-2.62,0-4.9-.56-6.82-1.68s-3.4-2.71-4.44-4.78c-1.04-2.06-1.56-4.49-1.56-7.27s.5-5.33,1.49-7.44c.99-2.11,2.42-3.74,4.27-4.87,1.86-1.14,4.03-1.7,6.53-1.7,3.55,0,6.36,1.06,8.42,3.17,2.06,2.11,3.1,4.98,3.1,8.59,0,1.5-.13,2.78-.38,3.84Zm-4.94-4.51c0-1.98-.56-3.57-1.68-4.75-1.12-1.18-2.62-1.78-4.51-1.78-1.76,0-3.22.57-4.37,1.7-1.15,1.14-1.92,2.74-2.3,4.82h12.86Z"/>
        <path class="cls-2" d="m541.59,237.87c-1.5-1.34-2.26-3.15-2.26-5.42,0-2.85,1.12-5.02,3.36-6.5,2.24-1.49,5.42-2.23,9.55-2.23h3.36v-1.68c0-1.63-.49-2.92-1.46-3.86-.98-.94-2.28-1.42-3.91-1.42-2.11,0-4.16.94-6.14,2.83l-3.26-3.07c2.72-2.91,6-4.37,9.84-4.37,3.1,0,5.58.86,7.42,2.59,1.84,1.73,2.76,4.03,2.76,6.91v17.57h-5.23v-3.5h-.29c-.67,1.28-1.71,2.3-3.12,3.05-1.41.75-2.93,1.13-4.56,1.13-2.53,0-4.54-.67-6.05-2.02Zm10.39-3.17c1.04-.42,1.9-1.06,2.59-1.94.69-.88,1.03-1.96,1.03-3.24v-1.25h-2.54c-2.85,0-4.95.31-6.31.94-1.36.62-2.04,1.59-2.04,2.9,0,.96.38,1.74,1.13,2.33.75.59,1.77.89,3.05.89,1.02,0,2.06-.21,3.1-.62Z"/>
        <path class="cls-2" d="m597.99,202.54c4.35,0,7.71.96,10.08,2.88,2.37,1.92,3.55,4.64,3.55,8.16s-1.14,6.28-3.43,8.18c-2.29,1.9-5.58,2.86-9.86,2.86h-7.34v14.3h-3.7v-36.38h10.7Zm-.34,18.62c3.23,0,5.73-.66,7.49-1.97,1.76-1.31,2.64-3.18,2.64-5.62s-.88-4.3-2.64-5.59c-1.76-1.3-4.26-1.94-7.49-1.94h-6.67v15.12h6.67Z"/>
        <path class="cls-2" d="m636.58,213.58v25.34h-3.55v-3.84h-.29c-.77,1.38-1.9,2.47-3.38,3.29-1.49.82-3.06,1.22-4.73,1.22-2.82,0-5.02-.87-6.6-2.62-1.58-1.74-2.38-4.2-2.38-7.37v-16.03h3.55v15.46c0,2.24.58,4.02,1.75,5.33,1.17,1.31,2.7,1.97,4.58,1.97,2.21,0,4.01-.72,5.4-2.16,1.39-1.44,2.09-3.3,2.09-5.57v-15.02h3.55Z"/>
        <path class="cls-2" d="m644.79,238.92v-36.38h3.55v15.02h.24c.93-1.44,2.11-2.57,3.55-3.38s3.01-1.22,4.7-1.22c2.05,0,3.9.55,5.54,1.66,1.65,1.1,2.94,2.63,3.86,4.58.93,1.95,1.39,4.18,1.39,6.67,0,2.62-.46,4.98-1.39,7.06-.93,2.08-2.22,3.7-3.86,4.87-1.65,1.17-3.5,1.75-5.54,1.75-1.79,0-3.4-.41-4.82-1.22-1.42-.82-2.57-1.96-3.43-3.43h-.24v4.03h-3.55Zm4.39-7.58c.66,1.5,1.58,2.67,2.76,3.5,1.18.83,2.51,1.25,3.98,1.25s2.92-.42,4.15-1.25c1.23-.83,2.19-2,2.88-3.5.69-1.5,1.03-3.2,1.03-5.09s-.34-3.58-1.01-5.06c-.67-1.49-1.62-2.65-2.83-3.48-1.22-.83-2.59-1.25-4.13-1.25s-2.85.42-4.03,1.25c-1.18.83-2.11,1.99-2.78,3.48-.67,1.49-1.01,3.18-1.01,5.06s.33,3.58.98,5.09Z"/>
        <path class="cls-2" d="m674.6,202.54h3.55v31.39c0,1.38.67,2.06,2.02,2.06h1.34v3.31h-2.11c-3.2,0-4.8-1.47-4.8-4.42v-32.35Z"/>
        <path class="cls-2" d="m691.61,206.19c-.46.45-1.08.67-1.85.67s-1.37-.22-1.8-.67c-.43-.45-.65-1.06-.65-1.82s.22-1.38.65-1.82c.43-.45,1.03-.67,1.8-.67s1.38.22,1.85.67c.46.45.7,1.06.7,1.82s-.23,1.38-.7,1.82Zm-.02,7.39v25.39h-3.55v-25.39h3.55Z"/>
        <path class="cls-2" d="m704.67,237.96c-1.78-1.12-3.15-2.7-4.13-4.73-.98-2.03-1.46-4.38-1.46-7.03s.49-4.94,1.46-6.94c.98-2,2.35-3.55,4.13-4.66,1.78-1.1,3.86-1.66,6.26-1.66,1.82,0,3.58.48,5.28,1.44,1.7.96,3.04,2.24,4.03,3.84l-2.78,1.97c-.74-1.22-1.7-2.17-2.9-2.86-1.2-.69-2.49-1.03-3.86-1.03-1.57,0-2.95.42-4.15,1.25-1.2.83-2.14,1.99-2.81,3.48-.67,1.49-1.01,3.21-1.01,5.16s.33,3.74.98,5.26c.66,1.52,1.58,2.7,2.78,3.55,1.2.85,2.58,1.27,4.15,1.27,1.38,0,2.67-.34,3.89-1.03,1.22-.69,2.19-1.64,2.93-2.86l2.78,1.97c-.99,1.6-2.34,2.88-4.03,3.84-1.7.96-3.46,1.44-5.28,1.44-2.4,0-4.49-.56-6.26-1.68Z"/>
        <path class="cls-2" d="m758.16,238.92h-3.74v-32.88h-11.47v-3.5h26.64v3.5h-11.42v32.88Z"/>
        <path class="cls-2" d="m771.03,238.92v-25.34h3.55v5.09h.24c1.02-1.76,2.37-3.16,4.03-4.2,1.66-1.04,3.54-1.56,5.62-1.56h.38v3.84h-.48c-1.95,0-3.67.36-5.16,1.08-1.49.72-2.63,1.66-3.43,2.83-.8,1.17-1.2,2.39-1.2,3.67v14.59h-3.55Z"/>
        <path class="cls-2" d="m790.47,237.7c-1.44-1.26-2.16-2.95-2.16-5.06,0-5.44,4.24-8.16,12.72-8.16h3.74v-2.3c0-1.86-.54-3.32-1.63-4.39-1.09-1.07-2.58-1.61-4.46-1.61-2.14,0-4.3.91-6.48,2.74l-2.11-2.45c2.53-2.37,5.46-3.55,8.78-3.55,2.94,0,5.26.78,6.96,2.35,1.7,1.57,2.54,3.71,2.54,6.43v17.23h-3.6v-3.84h-.24c-.77,1.38-1.9,2.47-3.38,3.29-1.49.82-3.08,1.22-4.78,1.22-2.5,0-4.46-.63-5.9-1.9Zm10.1-2.16c1.2-.53,2.2-1.33,3-2.4.8-1.07,1.2-2.36,1.2-3.86v-1.54h-3.07c-3.33,0-5.78.38-7.37,1.15s-2.38,1.94-2.38,3.5c0,1.22.45,2.18,1.34,2.88.9.7,2.13,1.06,3.7,1.06,1.18,0,2.38-.26,3.58-.79Z"/>
        <path class="cls-2" d="m816.29,238.92v-25.34h3.55v3.89h.24c.77-1.38,1.9-2.48,3.41-3.31,1.5-.83,3.07-1.25,4.7-1.25,2.82,0,5.02.88,6.62,2.64,1.6,1.76,2.4,4.22,2.4,7.39v15.98h-3.55v-15.41c0-2.21-.6-3.98-1.8-5.33-1.2-1.34-2.71-2.02-4.54-2.02-2.21,0-4.01.73-5.4,2.18-1.39,1.46-2.09,3.3-2.09,5.54v15.02h-3.55Z"/>
        <path class="cls-2" d="m847.16,238.08c-1.73-1.01-3.06-2.38-3.98-4.1l3.02-1.78c.77,1.31,1.77,2.33,3,3.05,1.23.72,2.65,1.08,4.25,1.08,1.73,0,3.1-.34,4.1-1.03,1.01-.69,1.51-1.62,1.51-2.81,0-1.12-.5-2.03-1.49-2.74-.99-.7-2.61-1.3-4.85-1.78-2.94-.7-5.14-1.63-6.6-2.78-1.46-1.15-2.18-2.67-2.18-4.56,0-2.37.82-4.25,2.47-5.64,1.65-1.39,3.9-2.09,6.74-2.09,2.11,0,3.98.46,5.59,1.37,1.62.91,2.95,2.22,4.01,3.91l-2.83,2.02c-.83-1.31-1.83-2.31-3-3-1.17-.69-2.44-1.03-3.82-1.03-1.66,0-2.99.37-3.98,1.1-.99.74-1.49,1.71-1.49,2.93,0,1.06.54,1.95,1.61,2.69,1.07.74,2.68,1.36,4.82,1.87,5.76,1.25,8.64,3.63,8.64,7.15,0,2.37-.84,4.24-2.52,5.62-1.68,1.38-3.96,2.06-6.84,2.06-2.4,0-4.46-.5-6.19-1.51Z"/>
        <path class="cls-2" d="m868.95,250.39v-36.82h3.55v4.03h.24c.93-1.47,2.11-2.62,3.55-3.46,1.44-.83,3.01-1.25,4.7-1.25,2.05,0,3.9.55,5.54,1.66,1.65,1.1,2.94,2.64,3.86,4.61.93,1.97,1.39,4.2,1.39,6.7,0,2.62-.46,4.98-1.39,7.06-.93,2.08-2.22,3.7-3.86,4.87-1.65,1.17-3.5,1.75-5.54,1.75-1.82,0-3.44-.4-4.85-1.2-1.41-.8-2.54-1.95-3.41-3.46h-.24v15.5h-3.55Zm4.39-19.03c.66,1.49,1.57,2.65,2.74,3.48,1.17.83,2.5,1.25,4.01,1.25s2.92-.42,4.15-1.25c1.23-.83,2.2-1.99,2.9-3.48.7-1.49,1.06-3.19,1.06-5.11s-.34-3.58-1.03-5.06c-.69-1.49-1.64-2.66-2.86-3.5-1.22-.85-2.59-1.27-4.13-1.27s-2.85.42-4.03,1.27c-1.18.85-2.11,2.02-2.78,3.5-.67,1.49-1.01,3.18-1.01,5.06s.33,3.62.98,5.11Z"/>
        <path class="cls-2" d="m902.95,237.96c-1.74-1.09-3.09-2.64-4.03-4.66-.94-2.02-1.42-4.37-1.42-7.06s.47-5.04,1.42-7.06c.94-2.02,2.29-3.57,4.03-4.66,1.74-1.09,3.77-1.63,6.07-1.63s4.33.54,6.07,1.63c1.74,1.09,3.09,2.64,4.03,4.66.94,2.02,1.42,4.37,1.42,7.06s-.47,5.04-1.42,7.06c-.94,2.02-2.29,3.57-4.03,4.66-1.74,1.09-3.77,1.63-6.07,1.63s-4.33-.54-6.07-1.63Zm11.78-4.44c1.44-1.81,2.16-4.23,2.16-7.27s-.72-5.46-2.16-7.27c-1.44-1.81-3.34-2.71-5.71-2.71s-4.27.9-5.71,2.71c-1.44,1.81-2.16,4.23-2.16,7.27s.72,5.46,2.16,7.27c1.44,1.81,3.34,2.71,5.71,2.71s4.27-.9,5.71-2.71Z"/>
        <path class="cls-2" d="m927.51,238.92v-25.34h3.55v5.09h.24c1.02-1.76,2.37-3.16,4.03-4.2,1.66-1.04,3.54-1.56,5.62-1.56h.38v3.84h-.48c-1.95,0-3.67.36-5.16,1.08-1.49.72-2.63,1.66-3.43,2.83-.8,1.17-1.2,2.39-1.2,3.67v14.59h-3.55Z"/>
        <path class="cls-2" d="m958.99,216.94h-7.34v14.93c0,1.47.37,2.62,1.1,3.43.74.82,1.76,1.22,3.07,1.22.67,0,1.54-.18,2.59-.53v3.31c-.86.35-1.97.53-3.31.53-2.27,0-4.02-.66-5.23-1.99-1.22-1.33-1.82-3.22-1.82-5.69v-15.22h-3.98v-3.36h3.98v-7.92h3.6v7.92h7.34v3.36Z"/>
        <path class="cls-2" d="m985.25,238.87h-2.78v-36.29h3.02l20.64,31.54h.19v-31.54h2.74v36.29h-2.98l-20.64-31.54h-.19v31.54Z"/>
        <path class="cls-2" d="m1038.34,227.07h-19.06c.16,3.01,1.05,5.42,2.66,7.22,1.62,1.81,3.72,2.71,6.31,2.71,1.54,0,2.99-.38,4.37-1.13,1.38-.75,2.45-1.78,3.22-3.1l2.06,1.39c-.93,1.63-2.24,2.92-3.94,3.86-1.7.94-3.6,1.42-5.71,1.42-2.34,0-4.38-.54-6.14-1.63-1.76-1.09-3.12-2.62-4.08-4.61-.96-1.98-1.44-4.29-1.44-6.91s.46-4.99,1.39-7.01c.93-2.02,2.24-3.58,3.94-4.68,1.7-1.1,3.68-1.66,5.95-1.66,2.14,0,4.02.49,5.64,1.46,1.62.98,2.86,2.35,3.74,4.13.88,1.78,1.32,3.82,1.32,6.12,0,.74-.08,1.54-.24,2.4Zm-2.5-2.45c0-2.75-.74-4.98-2.21-6.67-1.47-1.7-3.39-2.54-5.76-2.54s-4.27.83-5.81,2.5c-1.54,1.66-2.43,3.9-2.69,6.72h16.46Z"/>
        <path class="cls-2" d="m1057.25,216.12h-7.49v15.74c0,1.63.38,2.9,1.15,3.79.77.9,1.81,1.34,3.12,1.34.77,0,1.65-.19,2.64-.58v2.5c-.99.38-2.05.58-3.17.58-2.02,0-3.59-.64-4.73-1.92-1.14-1.28-1.7-3.1-1.7-5.47v-15.98h-3.98v-2.5h3.98v-7.49h2.69v7.49h7.49v2.5Z"/>
        <path class="cls-2" d="m1067.76,238.87l-8.21-25.25h2.93l6.62,21.5h.19l6.67-21.5h2.98l6.72,21.5h.14l6.62-21.5h2.93l-8.21,25.25h-2.88l-6.72-21.6h-.19l-6.67,21.6h-2.93Z"/>
        <path class="cls-2" d="m1104.24,237.89c-1.7-1.1-3.02-2.66-3.96-4.68-.94-2.02-1.42-4.34-1.42-6.96s.47-4.94,1.42-6.96c.94-2.02,2.26-3.58,3.96-4.68,1.7-1.1,3.65-1.66,5.86-1.66s4.21.55,5.9,1.66c1.7,1.1,3.02,2.66,3.96,4.68.94,2.02,1.42,4.34,1.42,6.96s-.47,4.94-1.42,6.96c-.94,2.02-2.26,3.58-3.96,4.68-1.7,1.1-3.66,1.66-5.9,1.66s-4.16-.55-5.86-1.66Zm10.34-2.18c1.3-.9,2.3-2.16,3.02-3.79.72-1.63,1.08-3.52,1.08-5.66s-.36-4.03-1.08-5.66c-.72-1.63-1.73-2.9-3.02-3.79-1.3-.9-2.79-1.34-4.49-1.34s-3.18.45-4.46,1.34c-1.28.9-2.28,2.16-3,3.79-.72,1.63-1.08,3.52-1.08,5.66s.36,4.03,1.08,5.66c.72,1.63,1.72,2.9,3,3.79,1.28.9,2.77,1.34,4.46,1.34s3.19-.45,4.49-1.34Z"/>
        <path class="cls-2" d="m1128.58,238.87v-25.25h2.64v5.62h.19c.99-1.82,2.36-3.33,4.1-4.51,1.74-1.18,3.75-1.78,6.02-1.78h.43v2.88h-.62c-1.98,0-3.74.43-5.28,1.3-1.54.86-2.73,1.95-3.58,3.26-.85,1.31-1.27,2.61-1.27,3.89v14.59h-2.64Z"/>
        <path class="cls-2" d="m1166.78,238.87h-3.36l-10.94-12.67-2.54,2.35v10.32h-2.64v-36.29h2.64v22.51l12.43-11.47h3.74l-11.71,10.8,12.38,14.45Z"/>
        <path class="cls-2" d="m1193.09,238.92h-2.78v-36.29h2.98l13.63,24.91h.19l13.58-24.91h2.98v36.29h-2.74v-30.96h-.19l-12.82,23.47h-1.82l-12.82-23.47h-.19v30.96Z"/>
        <path class="cls-2" d="m1233.31,237.72c-1.41-1.22-2.11-2.86-2.11-4.94,0-5.28,4.32-7.92,12.96-7.92h4.03v-2.83c0-2.08-.6-3.7-1.8-4.87-1.2-1.17-2.87-1.75-5.02-1.75s-4.38.9-6.62,2.69l-1.58-1.87c1.18-1.02,2.49-1.82,3.91-2.4,1.42-.58,2.92-.86,4.49-.86,2.91,0,5.18.76,6.82,2.28,1.63,1.52,2.45,3.62,2.45,6.31v17.33h-2.64v-4.32h-.19c-.86,1.6-2.08,2.83-3.65,3.7-1.57.86-3.3,1.3-5.18,1.3-2.5,0-4.45-.61-5.86-1.82Zm10.44-1.58c1.33-.64,2.4-1.56,3.22-2.76.82-1.2,1.22-2.58,1.22-4.15v-1.92h-3.55c-7.17,0-10.75,1.78-10.75,5.33,0,1.38.51,2.46,1.54,3.26,1.02.8,2.42,1.2,4.18,1.2,1.44,0,2.82-.32,4.15-.96Z"/>
        <path class="cls-2" d="m1258.99,250.25v-36.62h2.64v4.99h.19c.9-1.76,2.11-3.14,3.65-4.15,1.54-1.01,3.25-1.51,5.14-1.51,2.08,0,3.94.56,5.57,1.68,1.63,1.12,2.91,2.67,3.84,4.66.93,1.98,1.39,4.22,1.39,6.72s-.46,4.91-1.39,6.96c-.93,2.05-2.21,3.65-3.84,4.8-1.63,1.15-3.49,1.73-5.57,1.73s-3.73-.48-5.23-1.44c-1.5-.96-2.69-2.32-3.55-4.08h-.19v16.27h-2.64Zm3.62-18.46c.72,1.62,1.72,2.87,3,3.77,1.28.9,2.74,1.34,4.37,1.34s3.16-.45,4.49-1.34c1.33-.9,2.37-2.15,3.12-3.77.75-1.62,1.13-3.45,1.13-5.5s-.37-3.88-1.1-5.5c-.74-1.62-1.77-2.89-3.1-3.82-1.33-.93-2.82-1.39-4.49-1.39s-3.1.46-4.39,1.39c-1.3.93-2.3,2.2-3.02,3.82-.72,1.62-1.08,3.45-1.08,5.5s.36,3.88,1.08,5.5Z"/>
      </g>
    </g>
    <line class="cls-3" x1="30.48" y1="38.07" x2="30.48" y2="366.78"/>
    <line class="cls-4" x1="20.99" y1="38.07" x2="20.99" y2="366.78"/>
    <g>
      <path class="cls-1" d="m120.9,331.11c-.96,1.44-2.23,2.57-3.8,3.38-1.57.82-3.33,1.22-5.27,1.22-2.45,0-4.6-.59-6.44-1.78-1.85-1.19-3.28-2.86-4.3-5.02-1.02-2.16-1.53-4.66-1.53-7.49s.51-5.23,1.53-7.34c1.02-2.11,2.45-3.75,4.3-4.91s4-1.75,6.44-1.75c1.9,0,3.65.41,5.26,1.22,1.61.82,2.88,1.94,3.82,3.38l-2.23,1.58c-.74-1.08-1.75-1.94-3.02-2.59-1.27-.65-2.56-.97-3.85-.97-1.85,0-3.48.47-4.9,1.42-1.42.95-2.51,2.28-3.29,4-.78,1.72-1.17,3.7-1.17,5.96s.39,4.34,1.17,6.1c.78,1.76,1.88,3.13,3.29,4.1,1.42.97,3.05,1.46,4.9,1.46,1.32,0,2.59-.32,3.82-.97,1.22-.65,2.24-1.54,3.06-2.66l2.23,1.66Z"/>
      <path class="cls-1" d="m128.37,334.49c-1.31-.82-2.32-1.98-3.02-3.49-.71-1.51-1.06-3.28-1.06-5.29s.35-3.78,1.06-5.29c.71-1.51,1.72-2.68,3.02-3.49,1.31-.82,2.83-1.22,4.55-1.22s3.25.41,4.55,1.22c1.31.82,2.32,1.98,3.02,3.49.71,1.51,1.06,3.28,1.06,5.29s-.35,3.78-1.06,5.29c-.71,1.51-1.72,2.68-3.02,3.49-1.31.82-2.83,1.22-4.55,1.22s-3.25-.41-4.55-1.22Zm8.84-3.33c1.08-1.36,1.62-3.17,1.62-5.45s-.54-4.1-1.62-5.45c-1.08-1.36-2.51-2.03-4.28-2.03s-3.2.68-4.28,2.03c-1.08,1.36-1.62,3.17-1.62,5.45s.54,4.1,1.62,5.45c1.08,1.36,2.51,2.03,4.28,2.03s3.2-.68,4.28-2.03Z"/>
      <path class="cls-1" d="m145.89,343.82v-27.61h2.66v3.02h.18c.7-1.1,1.58-1.97,2.66-2.59,1.08-.62,2.26-.94,3.53-.94,1.54,0,2.92.41,4.16,1.24,1.24.83,2.2,1.98,2.9,3.46.7,1.48,1.04,3.15,1.04,5.02,0,1.97-.35,3.73-1.04,5.29-.7,1.56-1.66,2.78-2.9,3.65-1.24.88-2.62,1.31-4.16,1.31-1.37,0-2.58-.3-3.64-.9s-1.91-1.46-2.56-2.59h-.18v11.63h-2.66Zm3.29-14.27c.49,1.12,1.18,1.99,2.05,2.61.88.62,1.88.94,3.01.94s2.19-.31,3.11-.94c.92-.62,1.65-1.49,2.18-2.61.53-1.12.79-2.39.79-3.83s-.26-2.68-.77-3.8c-.52-1.12-1.23-1.99-2.14-2.63-.91-.64-1.94-.95-3.1-.95s-2.14.32-3.02.95c-.89.64-1.58,1.51-2.09,2.63s-.76,2.38-.76,3.8.25,2.72.74,3.83Z"/>
      <path class="cls-1" d="m171.88,335.21l-7.42-19.01h3.02l5.9,15.66h.22l5.69-15.66h3.02l-10.69,27.65h-2.99l3.24-8.64Z"/>
      <path class="cls-1" d="m185.16,335.21v-19.01h2.66v3.82h.18c.77-1.32,1.78-2.37,3.02-3.15,1.25-.78,2.65-1.17,4.21-1.17h.29v2.88h-.36c-1.46,0-2.75.27-3.87.81-1.12.54-1.97,1.25-2.57,2.12-.6.88-.9,1.79-.9,2.75v10.94h-2.66Z"/>
      <path class="cls-1" d="m201.67,310.66c-.35.34-.81.5-1.39.5s-1.03-.17-1.35-.5c-.32-.34-.49-.79-.49-1.37s.16-1.03.49-1.37c.32-.34.77-.5,1.35-.5s1.04.17,1.39.5c.35.34.52.79.52,1.37s-.17,1.03-.52,1.37Zm-.02,5.54v19.04h-2.66v-19.04h2.66Z"/>
      <path class="cls-1" d="m210.32,343.24c-1.39-.7-2.5-1.67-3.31-2.92l2.23-1.51c.6.94,1.43,1.67,2.48,2.2,1.06.53,2.14.79,3.24.79,1.87,0,3.32-.57,4.36-1.71,1.03-1.14,1.55-2.74,1.55-4.81v-3.1h-.22c-.62,1.13-1.46,2-2.52,2.61-1.06.61-2.24.92-3.56.92-1.54,0-2.93-.44-4.18-1.31-1.25-.88-2.23-2.09-2.95-3.64-.72-1.55-1.08-3.29-1.08-5.24s.35-3.59,1.06-5.09c.71-1.5,1.69-2.66,2.95-3.49,1.26-.83,2.66-1.24,4.19-1.24,1.22,0,2.36.31,3.42.94,1.06.62,1.94,1.49,2.66,2.59h.22v-2.99h2.66v18.61c0,3.02-.74,5.35-2.21,6.98s-3.59,2.45-6.35,2.45c-1.7,0-3.25-.35-4.64-1.04Zm7.88-11.09c.86-.62,1.54-1.49,2.02-2.61s.72-2.39.72-3.83-.25-2.69-.74-3.82c-.49-1.13-1.18-2-2.07-2.63-.89-.62-1.9-.94-3.02-.94s-2.18.31-3.1.94c-.91.62-1.63,1.49-2.14,2.61-.52,1.12-.77,2.39-.77,3.83s.26,2.72.79,3.83c.53,1.12,1.25,1.99,2.18,2.61.92.62,1.97.94,3.15.94s2.12-.31,2.99-.94Z"/>
      <path class="cls-1" d="m228.79,335.21v-27.29h2.66v11.2h.18c.58-1.03,1.43-1.86,2.56-2.48,1.13-.62,2.3-.94,3.53-.94,2.11,0,3.77.66,4.97,1.98,1.2,1.32,1.8,3.17,1.8,5.54v11.99h-2.66v-11.56c0-1.66-.45-2.99-1.35-4s-2.03-1.51-3.4-1.51c-1.66,0-3.01.55-4.05,1.64-1.04,1.09-1.57,2.48-1.57,4.16v11.27h-2.66Z"/>
      <path class="cls-1" d="m258.85,318.72h-5.51v11.2c0,1.1.28,1.96.83,2.57.55.61,1.32.92,2.3.92.5,0,1.15-.13,1.94-.4v2.48c-.65.26-1.48.4-2.48.4-1.7,0-3.01-.5-3.92-1.49-.91-1-1.37-2.42-1.37-4.27v-11.41h-2.99v-2.52h2.99v-5.94h2.7v5.94h5.51v2.52Z"/>
      <path class="cls-1" d="m280.81,333.92c-2.16-1.2-3.84-2.87-5.04-5.02-1.2-2.15-1.8-4.59-1.8-7.33s.6-5.18,1.8-7.33c1.2-2.15,2.88-3.82,5.04-5.02,2.16-1.2,4.61-1.8,7.34-1.8s5.17.6,7.31,1.8c2.14,1.2,3.8,2.88,5,5.02,1.2,2.15,1.8,4.59,1.8,7.33s-.6,5.18-1.8,7.33c-1.2,2.15-2.87,3.82-5,5.02-2.14,1.2-4.57,1.8-7.31,1.8s-5.18-.6-7.34-1.8Zm13.79-1.35c1.9-1.07,3.38-2.56,4.45-4.48,1.07-1.92,1.6-4.09,1.6-6.52s-.53-4.6-1.6-6.52c-1.07-1.92-2.55-3.41-4.45-4.48-1.9-1.07-4.04-1.6-6.44-1.6s-4.58.53-6.48,1.6-3.38,2.56-4.45,4.48c-1.07,1.92-1.6,4.09-1.6,6.52s.53,4.6,1.6,6.52c1.07,1.92,2.55,3.41,4.45,4.48,1.9,1.07,4.06,1.6,6.48,1.6s4.55-.53,6.44-1.6Zm-10.44-2.72c-1.25-.79-2.21-1.91-2.9-3.37-.68-1.45-1.03-3.13-1.03-5.02s.34-3.52,1.03-4.93c.68-1.42,1.65-2.51,2.9-3.28,1.25-.77,2.69-1.15,4.32-1.15,1.37,0,2.63.32,3.78.95,1.15.64,2.03,1.49,2.63,2.57l-2.16,1.51c-.41-.7-1.01-1.28-1.8-1.75-.79-.47-1.61-.7-2.45-.7-1.66,0-2.98.62-3.98,1.85-1,1.24-1.49,2.88-1.49,4.91s.5,3.8,1.49,5.08c1,1.27,2.32,1.91,3.98,1.91.84,0,1.65-.23,2.43-.68.78-.46,1.4-1.07,1.85-1.84l2.12,1.58c-.62,1.1-1.51,1.97-2.65,2.59-1.14.62-2.39.94-3.76.94-1.63,0-3.07-.4-4.32-1.19Z"/>
      <path class="cls-1" d="m336.97,319.16v-11.56h4.07v27.83h-4.07v-12.46h-13.32v12.46h-4.07v-27.83h4.07v11.56h13.32Z"/>
      <path class="cls-1" d="m362.78,315.63v19.8h-3.92v-2.66h-.22c-.6.96-1.43,1.73-2.5,2.3s-2.2.86-3.4.86c-2.11,0-3.77-.66-4.97-1.98-1.2-1.32-1.8-3.18-1.8-5.58v-12.74h3.96v11.99c0,1.42.38,2.56,1.15,3.42.77.86,1.75,1.3,2.95,1.3,1.44,0,2.6-.46,3.49-1.39.89-.92,1.33-2.15,1.33-3.69v-11.63h3.92Z"/>
      <path class="cls-1" d="m368.43,334.42c-1.13-1.01-1.69-2.36-1.69-4.07,0-2.14.84-3.76,2.52-4.88,1.68-1.12,4.07-1.67,7.16-1.67h2.52v-1.26c0-1.22-.37-2.19-1.1-2.9-.73-.71-1.71-1.06-2.93-1.06-1.58,0-3.12.71-4.61,2.12l-2.45-2.3c2.04-2.18,4.5-3.28,7.38-3.28,2.33,0,4.18.65,5.56,1.94,1.38,1.3,2.07,3.02,2.07,5.18v13.18h-3.92v-2.63h-.22c-.5.96-1.28,1.72-2.34,2.29-1.06.56-2.2.85-3.42.85-1.9,0-3.41-.5-4.54-1.51Zm7.79-2.38c.78-.31,1.43-.8,1.94-1.46s.77-1.47.77-2.43v-.94h-1.91c-2.14,0-3.71.23-4.73.7-1.02.47-1.53,1.19-1.53,2.18,0,.72.28,1.3.85,1.75.56.44,1.33.67,2.29.67.77,0,1.54-.16,2.32-.47Z"/>
      <path class="cls-1" d="m391.71,310.95c-.47.46-1.09.68-1.85.68s-1.34-.23-1.78-.68c-.44-.46-.67-1.07-.67-1.84s.22-1.38.67-1.84c.44-.46,1.04-.68,1.78-.68s1.39.23,1.85.68c.47.46.7,1.07.7,1.84s-.23,1.38-.7,1.84Zm.16,4.68v19.8h-3.92v-19.8h3.92Z"/>
      <path class="cls-1" d="m417.79,335.43h-4.79l-6.3-11.12h-5.22v11.12h-4.07v-27.83h8.5c3.38,0,6,.74,7.85,2.21,1.85,1.48,2.77,3.55,2.77,6.21,0,1.92-.49,3.54-1.48,4.86-.98,1.32-2.4,2.26-4.25,2.81l6.98,11.74Zm-16.31-14.9h4c2.18,0,3.87-.39,5.06-1.17,1.19-.78,1.78-1.89,1.78-3.33s-.59-2.63-1.76-3.44c-1.18-.8-2.87-1.21-5.08-1.21h-4v9.14Z"/>
      <path class="cls-1" d="m436.73,326.82h-13.5c.19,1.78.76,3.17,1.71,4.18.95,1.01,2.23,1.51,3.83,1.51.94,0,1.81-.25,2.63-.74.82-.49,1.5-1.19,2.05-2.11l3.17,1.76c-.79,1.44-1.85,2.55-3.17,3.33-1.32.78-2.88,1.17-4.68,1.17-1.97,0-3.67-.42-5.11-1.26-1.44-.84-2.55-2.03-3.33-3.58-.78-1.55-1.17-3.37-1.17-5.45s.37-4,1.12-5.58c.74-1.58,1.81-2.8,3.2-3.65,1.39-.85,3.02-1.28,4.9-1.28,2.66,0,4.77.79,6.32,2.38,1.55,1.58,2.32,3.73,2.32,6.44,0,1.13-.1,2.09-.29,2.88Zm-3.71-3.38c0-1.49-.42-2.68-1.26-3.56-.84-.89-1.97-1.33-3.38-1.33-1.32,0-2.41.43-3.28,1.28-.86.85-1.44,2.06-1.73,3.62h9.65Z"/>
      <path class="cls-1" d="m441.01,335.43v-19.8h3.92v2.74h.18c.6-.98,1.43-1.77,2.5-2.36,1.07-.59,2.2-.88,3.4-.88,2.14,0,3.8.67,4.99,2s1.78,3.21,1.78,5.63v12.67h-3.92v-11.95c0-1.42-.38-2.55-1.15-3.4-.77-.85-1.75-1.28-2.95-1.28-1.44,0-2.6.46-3.49,1.39-.89.92-1.33,2.15-1.33,3.69v11.56h-3.92Z"/>
      <path class="cls-1" d="m496.05,335.21h-2.95l-3.31-9.32h-10.15l-3.31,9.32h-2.95l9.86-27.29h2.92l9.9,27.29Zm-11.45-23.22l-4,11.23h8.21l-4-11.23h-.22Z"/>
      <path class="cls-1" d="m499.18,307.92h2.66v23.54c0,1.03.5,1.55,1.51,1.55h1.01v2.48h-1.58c-2.4,0-3.6-1.1-3.6-3.31v-24.26Z"/>
      <path class="cls-1" d="m507.97,307.92h2.66v23.54c0,1.03.5,1.55,1.51,1.55h1.01v2.48h-1.58c-2.4,0-3.6-1.1-3.6-3.31v-24.26Z"/>
      <path class="cls-1" d="m548.79,335.21h-3.28l-6.91-11.7h-6.01v11.7h-2.77v-27.29h7.7c3.26,0,5.78.68,7.54,2.05,1.76,1.37,2.65,3.31,2.65,5.83,0,1.94-.53,3.53-1.6,4.77s-2.61,2.09-4.63,2.57l7.31,12.06Zm-11.48-14.36c2.42,0,4.28-.44,5.58-1.31,1.3-.88,1.94-2.12,1.94-3.73s-.65-2.98-1.94-3.89c-1.3-.91-3.16-1.37-5.58-1.37h-4.72v10.3h4.72Z"/>
      <path class="cls-1" d="m555.29,310.66c-.35.34-.81.5-1.39.5s-1.03-.17-1.35-.5c-.32-.34-.49-.79-.49-1.37s.16-1.03.49-1.37c.32-.34.77-.5,1.35-.5s1.04.17,1.39.5c.35.34.52.79.52,1.37s-.17,1.03-.52,1.37Zm-.02,5.54v19.04h-2.66v-19.04h2.66Z"/>
      <path class="cls-1" d="m563.95,343.24c-1.39-.7-2.5-1.67-3.31-2.92l2.23-1.51c.6.94,1.43,1.67,2.48,2.2,1.06.53,2.14.79,3.24.79,1.87,0,3.32-.57,4.36-1.71,1.03-1.14,1.55-2.74,1.55-4.81v-3.1h-.22c-.62,1.13-1.46,2-2.52,2.61-1.06.61-2.24.92-3.56.92-1.54,0-2.93-.44-4.18-1.31-1.25-.88-2.23-2.09-2.95-3.64-.72-1.55-1.08-3.29-1.08-5.24s.35-3.59,1.06-5.09c.71-1.5,1.69-2.66,2.95-3.49,1.26-.83,2.66-1.24,4.19-1.24,1.22,0,2.36.31,3.42.94,1.06.62,1.94,1.49,2.66,2.59h.22v-2.99h2.66v18.61c0,3.02-.74,5.35-2.21,6.98s-3.59,2.45-6.35,2.45c-1.7,0-3.25-.35-4.64-1.04Zm7.88-11.09c.86-.62,1.54-1.49,2.02-2.61s.72-2.39.72-3.83-.25-2.69-.74-3.82c-.49-1.13-1.18-2-2.07-2.63-.89-.62-1.9-.94-3.02-.94s-2.18.31-3.1.94c-.91.62-1.63,1.49-2.14,2.61-.52,1.12-.77,2.39-.77,3.83s.26,2.72.79,3.83c.53,1.12,1.25,1.99,2.18,2.61.92.62,1.97.94,3.15.94s2.12-.31,2.99-.94Z"/>
      <path class="cls-1" d="m582.41,335.21v-27.29h2.66v11.2h.18c.58-1.03,1.43-1.86,2.56-2.48,1.13-.62,2.3-.94,3.53-.94,2.11,0,3.77.66,4.97,1.98,1.2,1.32,1.8,3.17,1.8,5.54v11.99h-2.66v-11.56c0-1.66-.45-2.99-1.35-4s-2.03-1.51-3.4-1.51c-1.66,0-3.01.55-4.05,1.64-1.04,1.09-1.57,2.48-1.57,4.16v11.27h-2.66Z"/>
      <path class="cls-1" d="m612.47,318.72h-5.51v11.2c0,1.1.28,1.96.83,2.57.55.61,1.32.92,2.3.92.5,0,1.15-.13,1.94-.4v2.48c-.65.26-1.48.4-2.48.4-1.7,0-3.01-.5-3.92-1.49-.91-1-1.37-2.42-1.37-4.27v-11.41h-2.99v-2.52h2.99v-5.94h2.7v5.94h5.51v2.52Z"/>
      <path class="cls-1" d="m616.97,334.58c-1.3-.76-2.29-1.78-2.99-3.08l2.27-1.33c.58.98,1.33,1.75,2.25,2.29s1.99.81,3.19.81c1.3,0,2.32-.26,3.08-.77.76-.52,1.13-1.22,1.13-2.11,0-.84-.37-1.52-1.12-2.05-.74-.53-1.96-.97-3.64-1.33-2.21-.53-3.86-1.22-4.95-2.09-1.09-.86-1.64-2-1.64-3.42,0-1.78.62-3.19,1.85-4.23,1.24-1.04,2.92-1.57,5.06-1.57,1.58,0,2.98.34,4.19,1.03,1.21.68,2.21,1.66,3.01,2.93l-2.12,1.51c-.62-.98-1.37-1.73-2.25-2.25-.88-.52-1.83-.77-2.86-.77-1.25,0-2.24.28-2.99.83-.74.55-1.12,1.28-1.12,2.2,0,.79.4,1.46,1.21,2.02.8.55,2.01,1.02,3.62,1.4,4.32.94,6.48,2.72,6.48,5.36,0,1.78-.63,3.18-1.89,4.21-1.26,1.03-2.97,1.55-5.13,1.55-1.8,0-3.35-.38-4.64-1.13Z"/>
      <path class="cls-1" d="m664.46,335.21h-3.28l-6.91-11.7h-6.01v11.7h-2.77v-27.29h7.7c3.26,0,5.78.68,7.54,2.05,1.76,1.37,2.65,3.31,2.65,5.83,0,1.94-.53,3.53-1.6,4.77s-2.61,2.09-4.63,2.57l7.31,12.06Zm-11.48-14.36c2.42,0,4.28-.44,5.58-1.31,1.3-.88,1.94-2.12,1.94-3.73s-.65-2.98-1.94-3.89c-1.3-.91-3.16-1.37-5.58-1.37h-4.72v10.3h4.72Z"/>
      <path class="cls-1" d="m682.71,326.46h-13.75c.12,2.06.74,3.71,1.85,4.93,1.12,1.22,2.57,1.84,4.37,1.84,1.06,0,2.04-.25,2.95-.76.91-.5,1.67-1.24,2.27-2.2l2.12,1.44c-.79,1.27-1.81,2.25-3.04,2.93-1.24.68-2.67,1.03-4.3,1.03-1.82,0-3.41-.4-4.77-1.21-1.36-.8-2.39-1.96-3.11-3.46-.72-1.5-1.08-3.26-1.08-5.27s.35-3.82,1.04-5.33c.7-1.51,1.69-2.68,2.99-3.49,1.3-.82,2.82-1.22,4.57-1.22,2.47,0,4.44.77,5.9,2.32,1.46,1.55,2.2,3.62,2.2,6.21,0,.77-.07,1.51-.22,2.23Zm-2.52-2.41c0-1.78-.49-3.2-1.48-4.28-.98-1.08-2.28-1.62-3.89-1.62s-2.81.53-3.83,1.58c-1.02,1.06-1.66,2.5-1.93,4.32h11.12Z"/>
      <path class="cls-1" d="m688.72,334.58c-1.3-.76-2.29-1.78-2.99-3.08l2.27-1.33c.58.98,1.33,1.75,2.25,2.29s1.99.81,3.19.81c1.3,0,2.32-.26,3.08-.77.76-.52,1.13-1.22,1.13-2.11,0-.84-.37-1.52-1.12-2.05-.74-.53-1.96-.97-3.64-1.33-2.21-.53-3.86-1.22-4.95-2.09-1.09-.86-1.64-2-1.64-3.42,0-1.78.62-3.19,1.85-4.23,1.24-1.04,2.92-1.57,5.06-1.57,1.58,0,2.98.34,4.19,1.03,1.21.68,2.21,1.66,3.01,2.93l-2.12,1.51c-.62-.98-1.37-1.73-2.25-2.25-.88-.52-1.83-.77-2.86-.77-1.25,0-2.24.28-2.99.83-.74.55-1.12,1.28-1.12,2.2,0,.79.4,1.46,1.21,2.02.8.55,2.01,1.02,3.62,1.4,4.32.94,6.48,2.72,6.48,5.36,0,1.78-.63,3.18-1.89,4.21-1.26,1.03-2.97,1.55-5.13,1.55-1.8,0-3.35-.38-4.64-1.13Z"/>
      <path class="cls-1" d="m719.72,326.46h-13.75c.12,2.06.74,3.71,1.85,4.93,1.12,1.22,2.57,1.84,4.37,1.84,1.06,0,2.04-.25,2.95-.76.91-.5,1.67-1.24,2.27-2.2l2.12,1.44c-.79,1.27-1.81,2.25-3.04,2.93-1.24.68-2.67,1.03-4.3,1.03-1.82,0-3.41-.4-4.77-1.21-1.36-.8-2.39-1.96-3.11-3.46-.72-1.5-1.08-3.26-1.08-5.27s.35-3.82,1.04-5.33c.7-1.51,1.69-2.68,2.99-3.49,1.3-.82,2.82-1.22,4.57-1.22,2.47,0,4.44.77,5.9,2.32,1.46,1.55,2.2,3.62,2.2,6.21,0,.77-.07,1.51-.22,2.23Zm-2.52-2.41c0-1.78-.49-3.2-1.48-4.28-.98-1.08-2.28-1.62-3.89-1.62s-2.81.53-3.83,1.58c-1.02,1.06-1.66,2.5-1.93,4.32h11.12Z"/>
      <path class="cls-1" d="m724.25,335.21v-19.01h2.66v3.82h.18c.77-1.32,1.78-2.37,3.02-3.15,1.25-.78,2.65-1.17,4.21-1.17h.29v2.88h-.36c-1.46,0-2.75.27-3.87.81-1.12.54-1.97,1.25-2.57,2.12-.6.88-.9,1.79-.9,2.75v10.94h-2.66Z"/>
      <path class="cls-1" d="m742.58,335.21l-7.31-19.01h2.92l5.8,15.62h.22l5.8-15.62h2.88l-7.38,19.01h-2.92Z"/>
      <path class="cls-1" d="m770.84,326.46h-13.75c.12,2.06.74,3.71,1.85,4.93,1.12,1.22,2.57,1.84,4.37,1.84,1.06,0,2.04-.25,2.95-.76.91-.5,1.67-1.24,2.27-2.2l2.12,1.44c-.79,1.27-1.81,2.25-3.04,2.93-1.24.68-2.67,1.03-4.3,1.03-1.82,0-3.41-.4-4.77-1.21-1.36-.8-2.39-1.96-3.11-3.46-.72-1.5-1.08-3.26-1.08-5.27s.35-3.82,1.04-5.33c.7-1.51,1.69-2.68,2.99-3.49,1.3-.82,2.82-1.22,4.57-1.22,2.47,0,4.44.77,5.9,2.32,1.46,1.55,2.2,3.62,2.2,6.21,0,.77-.07,1.51-.22,2.23Zm-2.52-2.41c0-1.78-.49-3.2-1.48-4.28-.98-1.08-2.28-1.62-3.89-1.62s-2.81.53-3.83,1.58c-1.02,1.06-1.66,2.5-1.93,4.32h11.12Z"/>
      <path class="cls-1" d="m791.61,335.21h-2.66v-3.02h-.22c-.62,1.13-1.46,2-2.52,2.61-1.06.61-2.24.92-3.56.92-1.56,0-2.96-.44-4.21-1.31-1.25-.88-2.23-2.09-2.93-3.64-.71-1.55-1.06-3.29-1.06-5.24s.35-3.59,1.06-5.09c.71-1.5,1.69-2.66,2.93-3.49,1.25-.83,2.65-1.24,4.21-1.24,1.22,0,2.36.31,3.42.94,1.06.62,1.94,1.49,2.66,2.59h.22v-11.3h2.66v27.29Zm-3.35-13.32c-.5-1.13-1.2-2-2.09-2.63-.89-.62-1.9-.94-3.02-.94s-2.18.31-3.08.94c-.9.62-1.61,1.49-2.12,2.61-.52,1.12-.77,2.39-.77,3.83s.26,2.72.77,3.83c.52,1.12,1.24,1.99,2.16,2.61s1.97.94,3.15.94c1.1,0,2.09-.31,2.97-.94.88-.62,1.56-1.49,2.05-2.61.49-1.12.74-2.39.74-3.83s-.25-2.69-.76-3.82Z"/>
      <path class="cls-1" d="m796.86,335.21v-3.49h3.46v3.49h-3.46Z"/>
    </g>
  </g>
  <g id="_线路复制" data-name="线路复制">
    <g id="_1" data-name="1">
      <polyline class="cls-5" points="3170.33 3038.18 3244.26 3089.16 3363.56 3164.31 3391.41 3176.92 3416.11 3184.81 3514.91 3208.98 3585.34 3199.52 3672.05 3199.52 3706.21 3191.11 3741.95 3182.7 3806.59 3186.38 3850.21 3191.64 3885.95 3186.91 3900.14 3190.59 3925.37 3216.86 3942.18 3224.22 3963.21 3221.59 4010.51 3216.34 4051.5 3211.08 4109.31 3212.66 4172.37 3217.39 4175.05 3209.16 4177.54 3207.67 4208.64 3210.03 4258.56 3200.05 4281.16 3212.66 4290.14 3213.01 4296.58 3206.81 4301.09 3207.71 4301.4 3213.23 4349.48 3235.78 4364.2 3193.74 4427.26 3004.02 4435.67 2958.3 4437.78 2913.62 4437.78 2877.89 4433.05 2847.4 4421.48 2817.97 4404.67 2767.52 4316.37 2588.31 4310.59 2563.61 4313.75 2539.96 4321.1 2518.94 4337.92 2428.02 4357.89 2164.19 4353.69 2147.38 4302.18 2083.26 4149.78 1896.16 4090.39 1836.78 4070.42 1826.27 4050.97 1822.59 4006.83 1807.87 3963.73 1794.73 3860.72 1716.43 3825.51 1691.73 3787.15 1649.16 3726.18 1572.95 3566.94 1440.51 3357.78 1730.09 3350.42 1723.78 3247.94 1650.21 3157.02 1595.55 3046.13 1551.93 2949.42 1802.09 2880.39 1774.89 2866.91 1810.5"/>
      <polyline class="cls-5" points="4290.03 3213.49 4291.61 3219.19 4295 3219.86 4298.59 3217.78 4301.4 3213.23"/>
      <polyline class="cls-5" points="4171.89 3217.35 4174.11 3221.73 4209.42 3224.75 4214.02 3219.49 4214.59 3213.19 4214.32 3208.9"/>
      <polyline class="cls-5" points="2880.39 1774.89 2952.58 1601.51 3016.01 1628.13"/>
    </g>
    <g id="_2" data-name="2">
      <polyline class="cls-5" points="2871.99 3259.78 3000.93 3164.31 3033.38 3134.62 3080.68 3074.97 3121.45 3015.58 3126.36 3010.24 3170.24 3038.1"/>
      <polyline class="cls-5" points="4437.78 2901.01 4448.37 2898.03 4451.83 2890.63 4453.41 2877.76 4455.91 2857 4459.32 2824.28 4463.66 2793.01 4475.61 2716.67 4484.94 2648.75 4495.45 2580.03 4501.19 2514.21 4501.19 2435.03 4495.59 2377.21 4479.56 2309.77 4470.88 2289.01 4430.68 2208.86 4406.77 2176.54 4381.67 2152.11 4364.2 2138.18 4351.98 2131.87 4337.79 2127.59"/>
      <polyline class="cls-5" points="4259.26 2030.57 4209.69 2046.21 4165.28 2060.66 4091.97 2082.47 4037.31 2033.33 4048.08 1928.48 4055.7 1831.78 4056.23 1776.6 4051.24 1711.43 4047.03 1660.98 4044.14 1559.55 4007.35 1458.65 3973.72 1370.62 3965.31 1343.55 3946.13 1249.21 3903.29 1105.74 3884.64 1045.3 3789.51 1067.38 3748.52 951.49 3734.07 910.76"/>
    </g>
    <g id="_3" data-name="3">
      <polyline class="cls-5" points="2986.78 1705.46 3074.15 1745.86 3181.02 1794.56 3290.33 1853.42 3468.32 1954.67 3652.34 2054.18 3635.09 2089.21 3632.64 2111.29 3644.55 2142.12 3702.36 2272.46 3743.95 2304.88 3822.56 2188.04 3832.98 2174.46 3835.07 2175.46 3836.98 2176.12 3839.47 2176.59 3841.97 2176.67 3846.07 2175.95 3849.64 2174.02 3851.64 2172.39 3853.32 2170.47 3855.1 2167.33 3855.85 2165.05 3856.22 2162.92 3856.29 2160.15 3855.68 2157.16 3853.17 2151.78 4091.97 2082.47"/>
      <polyline class="cls-5" points="4685.31 4094 4678.65 4065.97 4647.82 3944.75 4640.11 3918.65 4637.83 3893.24 4639.24 3881.51 4643.79 3866.44 4652.2 3850.15 4672.34 3830.18 4697.92 3804.25 4711.24 3787.61 4717.89 3773.42 4719.82 3749.24 4716.67 3678.82 4743.47 3673.92 4776.05 3663.93 4803.03 3645.54 4836.14 3615.23 4828.43 3583.35 4827.03 3574.94 4822.48 3565.83 4815.99 3559 4798.65 3553.04 4767.82 3541.3 4752.58 3529.74 4734.53 3508.72 4717.37 3476.48 4697.75 3429.01 4697.22 3408.51 4701.42 3387.67 4711.94 3322.15 4712.11 3281.68 4700.02 3242.27 4684.08 3200.05 4680.93 3185.86 4686.18 3176.22 4699.32 3161.86 4738.39 3118.41 4749.42 3102.65 4741.54 3078.3 4741.19 3066.91 4762.91 3029.07 4762.91 2987.38 4733.13 2975.29 4704.49 2952.25 4676.37 2923.61 4634.86 2913.1 4606.21 2911.26 4415.18 2913.1 4368.4 2910.47 4328.72 2902.85 4278.01 2902.85 4270.04 2895.32 4269.53 2868.69 4276.43 2860.54 4301.13 2840.84 4404.67 2767.52"/>
      <polyline class="cls-5" points="3853.4 2152.27 3850.05 2149.14 3846.86 2147.34 3843.42 2146.38 3841.54 2146.19 3839.01 2146.33 3835.15 2147.38 3832.01 2149.16 3830.4 2150.46 3828.88 2152.25 3827.36 2154.72 3826.64 2156.46 3826.09 2158.48 3825.83 2160.64 3826.02 2163.32 3826.33 2165.42 3826.95 2167.23 3828.04 2169.32 3830.08 2172.02 3832.98 2174.46"/>
    </g>
    <g id="_4" data-name="4">
      <polyline class="cls-5" points="5247.64 1279.43 5228.86 1290.21 5187.86 1320.3 5146.74 1362.6 5141.88 1368.38 5072.11 1406.09 5032.3 1430.92 5021.53 1442.62 5003.26 1452.6 4960.17 1469.29 4906.04 1482.69 4895.79 1486.89 4866.88 1501.48 4835.61 1529.73 4819.45 1546.81 4804.21 1561.26 4788.97 1569.4 4765.32 1579.78 4696.87 1605.54 4685.31 1612.54 4670.07 1619.9 4652.72 1634.97 4601.57 1685.07 4533.95 1752.86 4481.92 1803.14 4503.64 1835.73 4514.15 1859.9 4517.48 1880.22 4515.56 1956.95 4515.03 2059.61 4516.96 2072.05 4517.83 2079.76 4526.24 2094.65 4554.1 2136.16 4557.6 2145.27 4560.4 2180.84 4559.7 2223.93 4565.31 2272.11 4583.35 2326.76 4601.05 2377.74 4610.68 2422.03 4639.19 2600.13 4638.8 2609.07 4634.33 2637.45 4625.26 2699.59 4606.74 2823.36 4600.83 2887.48 4602.14 2906.27 4608.05 2925.32 4610.94 2930.97 4631.7 2927.55 4634.86 2913.1"/>
      <polyline class="cls-5" points="4301.09 3207.71 4304.42 3200.57 4281.69 3163 4281.69 3092.84 4277.48 3037.78 4273.94 2991.54 4271.44 2945.68 4269.44 2909.16 4270.04 2895.32"/>
      <polyline class="cls-5" points="4349.48 3235.78 4374.45 3246.69 4405.59 3252.73 4426.34 3254.31 4436.99 3256.02"/>
    </g>
    <g id="_5" data-name="5">
      <polyline class="cls-5" points="4375.37 2168.4 4366.04 2153.55 4361.05 2150 4352.69 2146.13"/>
      <polyline class="cls-5" points="4259.26 2030.57 4278.18 2013.71 4354.08 1934.4 4407.29 1880.22 4462.48 1820.48 4481.92 1803.14 4477.45 1796.84 4464.45 1777.65 4451.31 1748.88 4443.03 1726.41 4436.72 1706.84 4432.78 1688.97 4423.06 1644.69 4403.26 1576.63 4369.1 1465.04 4357.72 1428.25 4351.76 1402.15 4349.31 1359.93 4358.42 1241.86 4361.57 1170.65 4364.99 1114.67 4367.88 1065.27 4364.72 1021.13 4349.48 945.19 4349.48 927.58 4391.79 832.46 4431.73 741.01 4467.21 675.49 4477.19 656.05 4503.47 624.34 4504.17 610.67 4502.24 604.72 4462.48 555.14 4456.87 544.46 4455.29 530.27 4455.64 520.11 4460.72 494.18 4467.91 459.84 4478.42 379.43 4506.62 215.99 4514.33 149.24"/>
    </g>
    <g id="_6" data-name="6">
      <polyline class="cls-5" points="3826.09 2158.48 3816.93 2151.93 3742.34 2102.44 3688.34 2074.72 3652.34 2054.18 3655.37 2044.11 3669.16 1961.33 3694.65 1777.13 3716.46 1626.03 3726.45 1559.29 3740.11 1451.55 3749.66 1401.89 3749.66 1297.83 3753.16 1225.92 3839.7 1208.75 3789.51 1067.38"/>
      <polyline class="cls-5" points="3843.42 2146.38 3843.42 2108.48 3843.42 2033.59 3845.75 1961.86 3847.85 1883.55 3900.93 1923.49 4006.3 2008.89 4037.31 2033.33"/>
      <polyline class="cls-5" points="4091.28 2081.85 4124.15 2107.3 4148.59 2124.78 4169.88 2146.38 4180.65 2161.43 4211.26 2214.12 4220.99 2252.75 4222.04 2296.11 4197.86 2366.27 4135.32 2493.71 4211.26 2516.31 4262.51 2531.55 4284.05 2543.38 4314.24 2579.21"/>
      <path class="cls-5" d="m3815.98,3187.51l-.1-10.07-2.45-11.04-3.42-16.55v-8.67l6.96-17.87s22.86-25.36,23.12-25.75,8.15-9.07,8.15-9.07l15.11-8.28,15.11-2.89,12.88,1.71,12.74,5.91,17.61,5.65,48.88,1.84,8.15-8.15,8.8-17.87,11.43-16.69,24.83-22.2,19.45-10.51,51.9-1.45,12.61.39,14.32,8.8,10.64,1.05,15.9-6.57,38.76-18.53,10.38-1.84,6.96,1.97,9.33,5.65,5.52,6.83,22.73,28.12,21.28,8.41,15.05,2.58"/>
    </g>
    <g id="_7" data-name="7">
      <polyline class="cls-5" points="3743.95 2304.88 3719.61 2343.14 3711.21 2357.33 3703.59 2384.4 3698.86 2415.93 3691.5 2456.66 3679.94 2497.13 3662.86 2541.54 3626.07 2622.21 3601.89 2676.34 3587.97 2707.61 3571.67 2732.57 3557.75 2745.71 3536.99 2765.42 3426.36 2838.21 3345.42 2890.24 3310.21 2914.94 3299.7 2927.29 3278.68 2950.67 3268.7 2972.48 3264.23 2993.51 3261.86 3015.05 3258.97 3047.11 3249.51 3073.65 3242.22 3087.75 3238.48 3119.9 3231.47 3254.7 3222.45 3430.76 3226.91 3465.45 3232.17 3495.14 3244.52 3521.16 3265.28 3558.73 3289.19 3585.27 3307.06 3601.83 3345.16 3634.15 3461.57 3732.69 3540.67 3799.17 3554.33 3809.42 3548.81 3817.3 3490.74 3887.73 3362.77 3962.35 3281.83 4010.44 3343.85 4105.83 3447.91 4040.92 3473.13 4079.03 3384.84 4134.21"/>
      <polyline class="cls-5" points="3847.85 1883.55 3850.21 1796.57 3853.89 1725.89 3857.31 1667.81 3862.3 1576.11 3865.45 1469.16 3868.61 1422.12 3870.71 1396.63 3874.39 1380.08 3877.28 1370.62 3877.28 1353.27 3872.02 1317.8 3855.47 1258.41 3839.7 1208.75"/>
    </g>
    <g id="_8" data-name="8">
      <polyline class="cls-5" points="3126.36 3010.24 3110.77 2998.5 3096.32 2985.36 3076.34 2957.51 3064.7 2928.34 3055.59 2904.86 3051.38 2870.88 3049.98 2837.24 3045.78 2813.77 3023 2790.65 2989.72 2762.27 2965.54 2740.89 2947.67 2718.12 2928.05 2666.62 2914.39 2611.96 2901.07 2570.27 2883.91 2540.48 2854.13 2511.4 2746.56 2419.61 2692.61 2371.96 2687.7 2363.9 2718.53 2288.92 2689.1 2285.07 2658.27 2277.36 2569.63 2220.25 2514.27 2179.96 2468.72 2154.03 2431.94 2135.11 2405.66 2131.96 2305.1 2135.81 2146.74 2140.37 2121.16 2141.77 2077.37 2142.12 2072.81 2131.96 2059.5 2127.4 1971.56 2078.35 1957.19 2074.85 1931.97 2067.49 1906.74 2063.99 1867.5 2058.73 1844.72 2058.73 1781.31 2068.89 1767.64 2073.8 1732.96 2024.4 1682.51 1958.18 1653.07 1923.14 1517.48 1751.81 1462.48 1544.75 1456.87 1437.19 1461.78 1387.08 1478.59 1289.68 1492.61 1164.25 1496.11 1144.63 1493.66 1105.39 1508.72 1059.14 1550.42 960.34"/>
      <polyline class="cls-5" points="2077.37 2142.12 1999.59 2143.52 1868.64 2151.05 1774.83 2155.52 1760.29 2160.51 1742.04 2168.68 1705.45 2133.32 1728.32 2101.65 1746.45 2084.57 1754.2 2079.97 1767.64 2073.8"/>
    </g>
    <g id="_9" data-name="9">
      <polyline class="cls-5" points="4338.11 2425.53 4323.21 2414 4197.86 2366.27 4150.48 2350.24 4008.23 2257.04 3904.87 2197.83 3855.1 2167.33"/>
      <polyline class="cls-5" points="3263.84 1839.15 3228.67 1901.42 3180.93 1978.41 3148.87 2030.18 3103.94 2080.63 3038.07 2125.83 2986.78 2151.93 2916.84 2190.65 2790.71 2260.37 2749.02 2280.34 2727.99 2285.94 2718.53 2288.92"/>
      <polyline class="cls-5" points="2130.41 2141.26 2129.05 2107.96 2127.73 2068.02 2129.07 2056.19 2142.18 2018.35 2163.99 1980.51 2191.06 1901.42 2225.48 1781.07 2231.79 1754 2239.15 1736.66 2283.82 1648.89 2298.8 1620.51 2308.26 1600.81 2310.36 1591.08"/>
    </g>
    <g id="_10" data-name="10">
      <polyline class="cls-5" points="4269.53 2894.18 4262.77 2884.02 4250.68 2884.02 4228.96 2853.71 4214.07 2827.08 4207.85 2812.19 4207.85 2792.22 4232.55 2717.33 4227.29 2695.52 4212.58 2661.89 4194.71 2625.1 4176.84 2595.67 4167.64 2584.89 4145.83 2571.23 4133.22 2564.92 4121.92 2549.42 4121.92 2534.44 4125.6 2515 4135.32 2493.71"/>
      <polyline class="cls-5" points="4222.04 2296.11 4249.63 2300.48 4280.81 2304.88 4347.45 2302.16"/>
      <line class="cls-6" x1="3360.58" y1="4134.21" x2="3343.85" y2="4105.83"/>
    </g>
    <g id="_12" data-name="12">
      <polyline class="cls-5" points="4405.59 3252.73 4399.06 3279.05 4385.57 3347.03 4333.54 3296.92 4349.7 3235.15"/>
      <polyline class="cls-5" points="4011.11 2258.93 4002.62 2276.13 3985.28 2312.13 3947.18 2377.57 3937.72 2403.05 3948.1 2406.86 3974.77 2419.61 3996.05 2430.78 4041.51 2454.16 4072.26 2470.32 4125.07 2488.98 4135.88 2493.88"/>
      <polyline class="cls-5" points="3070.6 1744.21 3024.75 1846.41 2943.82 1807.87 2873.05 1778.44 2947.85 1599.1 2952.58 1601.51"/>
      <polyline class="cls-5" points="3884.64 1045.3 3831.82 913.13 3748.52 951.49"/>
      <polyline class="cls-5" points="3789.51 1067.38 3783.73 1070.79 3601.37 1073.94 3603.73 1179.84 3605.05 1315.96 3603.99 1346.7 3594.01 1386.38 3582.71 1411.61 3566.94 1440.51"/>
    </g>
    <g id="_13" data-name="13">
      <polyline class="cls-5" points="4684.95 4092.48 4693.89 4124.13 4725.42 4246.06 4738.74 4294.76 4751 4322.62 4786.21 4387.26 4853.48 4518.65 4931.26 4663.17 4968.05 4737.27 4977.51 4766.7"/>
      <polyline class="cls-5" points="2887.53 3248.28 2849.57 3201.62 2817.69 3148.02 2773.54 3016.98 2770.04 2992.11 2763.03 2945.16 2747.26 2784.34"/>
    </g>
    <g id="_14" data-name="14">
      <polyline class="cls-5" points="3567.94 1441.35 3561.69 1435 3542.59 1415.29 3497.31 1376.4 3481.02 1361.68 3409.28 1311.23 3368.81 1291.26 3297.86 1279.7 3175.94 1265.51 3112.87 1271.81 2937.86 1305.45 2873.75 1309.65 2820.67 1304.4 2757.07 1284.95 2700.84 1259.99 2666.15 1249.48 2618.86 1243.7 2533.72 1240.81 2482.48 1236.08 2457.51 1227.4 2420.46 1194.03 2403.64 1168.81 2357.66 1085.24 2312.99 1002.21 2307.21 972.51 2307.21 958.85 2312.72 842.7 2317.45 812.22 2323.5 773.59 2332.43 718.67 2326.13 664.81 2324.55 642.73 2315.09 622.76 2307.21 592.28 2304.58 571.52 2303 540.25 2244.93 545.77 2247.29 530.53"/>
      <polyline class="cls-5" points="2247.13 531.56 2248.21 525.67 2273.31 521.46 2278.83 512.13 2282.77 508.85 2289.99 505.43 2293.28 505.43 2303 540.25"/>
    </g>
    <g id="_15" data-name="15">
      <polyline class="cls-5" points="3604.94 1304.94 3749.78 1295.43 3859.24 1271.93 3977.92 1236.6 4116.67 1196.66 4217.57 1170.91 4297.98 1179.84 4316.9 1185.62 4360.02 1205.57"/>
      <polyline class="cls-5" points="5246.46 1280.12 5257.89 1273.26 5292.32 1250.53 5354.51 1208.92 5420.9 1163.9 5458.39 1133.77 5469.95 1123.08 5483.61 1085.77 5492.02 1051.61 5492.9 1027.78 5493.95 1010.97 5502.36 996.25 6328.52 170.09"/>
    </g>
    <polyline id="_16" data-name="16" class="cls-5" points="4762.91 2987.38 4780.61 2993.16 4873.63 3009.8 5006.42 3033.27 5048.11 3046.41 5053.89 3061.3 5048.46 3074.44 5029.89 3148.72 5023.94 3181.3 5020.08 3213.19 5020.08 3239.11 5028.84 3290.62 5059.67 3407.29 5067.03 3453.89 5063.53 3489.27 5060.02 3555.84 5059.32 3615.05 5062.83 3672.16 5064.75 3715.08 5145.16 3772.89 5249.48 3837.27 5262.18 3842.44 5279.83 3845.29 6389.66 4053.01"/>
    <g id="_18" data-name="18">
      <polyline class="cls-5" points="4751 4322.62 4794.88 4302.12 4871.35 4252.46 4939.15 4205.16 4977.51 4129.48 4977.51 4007.29 4981.72 3950.53 4996.7 3909.54 5043.99 3844.11 5066.86 3798.38 5066.86 3740.84 5064.75 3715.08"/>
      <polyline class="cls-5" points="5053.89 3061.3 5075.79 2976.69 5085.25 2930.97 5069.57 2879.99 5022.18 2757.01 5018.68 2728.28 5021.48 2680.63 5033.22 2544.16 5034.8 2475.32 5022.18 2401.21 4962.8 2183.11 4936.52 2137.92 4891.32 2088.51 4856.11 2050.67 4811.97 1997.59 4793.57 1953.97 4768.87 1830.47 4758.88 1796.31 4733.13 1751.11 4659.48 1629.1"/>
      <polyline class="cls-5" points="3766.65 2380.46 3731.7 2357.86 3719.61 2343.14"/>
    </g>
    <polyline id="_21" data-name="21" class="cls-5" points="4402.34 1573.6 4317.95 1584.34 4313.05 1560.86 4302.53 1532.48 4218.1 1567.17 4166.94 1418.27 4137.86 1311.05"/>
    <polyline id="_22" data-name="22" class="cls-5" points="3013.48 1627.06 3024.97 1631.81 3116.81 1670.18 3161.22 1588.54 3191.18 1527.49 3201.69 1502 3205.63 1473.36 3205.63 1448.4 3298.65 1450.76 3303.38 1507 3307.06 1520.4 3318.62 1550.09 3332.37 1568.57 3352.81 1588.19 3383.18 1612.72 3438.18 1642.85 3517.8 1685.68 3689.05 1777.04 3844.96 1882.5 3855.27 1889.13"/>
    <g id="_24" data-name="24">
      <polyline class="cls-5" points="4037.6 2030.52 4033.63 2061.01 4025.57 2135.46 4016.81 2227.26 4010.42 2260.32"/>
      <polyline class="cls-5" points="3937.72 2403.05 3876.75 2403.05 3827.09 2399.64 3790.3 2389.65 3765.43 2379.66"/>
      <polyline class="cls-5" points="3222.45 3430.76 3183.82 3433.39 3090.27 3437.59 3057.16 3446 3029.31 3452.31 2995.67 3468.08 2966.24 3497.51 2918.24 3535.87 2869.02 3564.78 2816.99 3575.81 2749.19 3591.05 2682.45 3609.97 2721.34 3689.33 2739.73 3733.48 2761.28 3784.46 2785.98 3874.85 2727.12 3909.01"/>
    </g>
    <g id="_25" data-name="25">
      <polyline class="cls-5" points="3601.37 1073.94 3488.99 1073.94 3488.99 1102.94 3488.99 1178.97 3603.73 1179.84"/>
      <polyline class="cls-5" points="3345.16 3634.15 3425.05 3542.18 3470.24 3491.2 3615.82 3590 3684.67 3645.71 3554.33 3809.42"/>
      <polyline class="cls-5" points="3281.83 4010.44 3059 4119.23 2926.3 4181.24 2870.07 4224.86 2792.29 4324.72 2679.82 4462.41 2495.88 4590.65"/>
    </g>
    <g id="_201" data-name="201">
      <polyline class="cls-5" points="4209.42 3224.75 4225.19 3230.79 4333.54 3296.92"/>
      <polyline class="cls-5" points="4385.57 3347.03 4408.52 3357.1 4434.97 3357.1 4445.13 3343.52 4452.23 3264.3 4457.88 3206.75 4457.88 3108.08 4457.88 3063.93 4450.74 2966.53 4434.62 2964.04"/>
    </g>
    <g id="_202" data-name="202">
      <line class="cls-6" x1="3799.76" y1="2256.69" x2="3969.33" y2="2339.52"/>
      <polyline class="cls-5" points="4317.17 2589.93 4289.57 2609.16 4260.14 2635.78 4240.17 2681.33 4232.55 2717.33"/>
      <polyline class="cls-5" points="4634.15 2916.31 4639.41 2892.08 4665.86 2802.21 4681.98 2762.62 4672.17 2750 4638.18 2709.71 4633.28 2700.25 4625.56 2697.6"/>
      <polyline class="cls-5" points="4138.1 1311.91 4127.18 1269.71 4114.56 1204.28 4108.52 1170.91 4103.26 1154.09 4103.26 1099.17 4100.9 1024.54 4100.9 969.89"/>
    </g>
    <g id="_203" data-name="203">
      <line class="cls-6" x1="4273.8" y1="2407" x2="4337.04" y2="2432.78"/>
      <line class="cls-6" x1="4351.66" y1="2246.51" x2="4221.02" y2="2254.24"/>
      <polyline class="cls-5" points="4192.95 2051.65 4157.48 2008.98 4086.71 1953.27 3910.48 1822.94 3829.89 1761.27 3709.71 1672.78"/>
    </g>
    <g id="_204" data-name="204">
      <path class="cls-5" d="m4430.44,1855.17l-20.34,10.17-10.16-3.11-13.14-12.65-38.36-34.69-19.62-32.58-7.71-26.98-36.79-47.65v-12.26s-23.48-35.74-25.06-38.89-7.88-31.88-7.88-31.88l-21.02-20.32-12.26-37.14"/>
      <polyline class="cls-5" points="4348.43 1814.88 4410.45 1785.45 4461.6 1771.42"/>
      <polyline class="cls-5" points="3943.46 2387.57 3896.46 2387.57 3863.09 2381.77 3810.53 2360.48 3778.74 2339.52 3757.72 2322.65 3743.95 2305.48"/>
    </g>
    <g id="_205" data-name="205">
      <line class="cls-6" x1="3865.45" y1="1469.16" x2="3738.07" y2="1467.66"/>
      <line class="cls-6" x1="4044.14" y1="1559.55" x2="3862.85" y2="1557.36"/>
    </g>
    <g id="_206" data-name="206">
      <polyline class="cls-5" points="4145.4 1891.78 4195.67 1865.33 4150.48 1783 4100.02 1684.19 4065.42 1610.79 4044.19 1561.33"/>
      <line class="cls-6" x1="4010.91" y1="1468.41" x2="3866.05" y2="1469.16"/>
      <polyline class="cls-5" points="3640.64 1501.81 3629.22 1519.61 3606.62 1577.16 3613.19 1599.76 3602.94 1624.72 3566.42 1677.27 3549.07 1690.94 3535.44 1695.09"/>
      <polyline class="cls-5" points="3503.12 1677.78 3485.75 1710.65 3463.41 1751.64 3446.07 1792.37 3440.55 1864.11 3404.29 1935.32 3387.73 1963.43 3410.59 1974.73 3428.46 1988.66 3442.39 2008.63 3505.19 2044.37 3473.22 2088.86"/>
    </g>
    <polyline id="_207" data-name="207" class="cls-5" points="3265.28 3558.73 3072.93 3677.24 3283.24 4012.61"/>
    <g id="_208" data-name="208">
      <polyline class="cls-5" points="3843.42 2033.59 3753.51 1968.69 3782.74 1726.56"/>
    </g>
    <g id="_209" data-name="209">
      <polyline class="cls-5" points="1742.04 2168.68 1662.18 2224.11 1630.3 2248.98 1565.13 2279.81 1533.25 2282.97 1378.04 2262.3 1140.84 2224.11"/>
      <line class="cls-6" x1="1867.5" y1="2058.73" x2="1864.15" y2="2151.27"/>
      <polyline class="cls-5" points="2146.74 2140.37 2151.38 2174.97 2156.37 2222.53 2148.23 2278.76 2195 2320.81 2229.16 2344.98 2303.53 2382.56 2317.19 2402.79 2386.04 2444.31 2413.37 2496.34 2421.78 2542.06 2449.63 2614.59 2473.28 2655.05 2476.43 2685.01 2463.82 2709.19 2453.83 2733.89 2389.72 2765.94 2476.43 3001.39 2490.1 3062.88 2500.61 3088.11 2514.8 3088.11 2523.73 3104.4 2520.58 3120.16"/>
      <polyline class="cls-5" points="1768.21 2074.15 1775.88 2086.5 1794.62 2135.46 1800.4 2153.94"/>
    </g>
    <polyline id="_301" data-name="301" class="cls-5" points="3554.77 3809.42 3570.53 3826.41 3785.05 4005.71 3785.05 4478.7 4357.89 4901.24"/>
    <polyline id="_302" data-name="302" class="cls-5" points="4977.51 4766.7 4977.51 5323.78 5695.67 6041.94"/>
    <polyline id="_304" data-name="304" class="cls-5" points="1662.18 2224.11 1651.32 2264.05 1662.18 2376.51 1662.18 3679.87 1256.81 4085.24"/>
    <polyline id="_305" data-name="305" class="cls-5" points="2293.28 505.43 2293.28 485.07 2498.51 103.4 3709.71 103.4"/>
    <polyline id="_306" data-name="306" class="cls-5" points="5021.53 1442.62 5141.48 1412.13 5604.49 1412.13 6070.04 946.59 6607.24 946.59"/>
    <g id="_307" data-name="307">
      <polyline class="cls-5" points="3046.13 1551.93 3092.9 1434.21 3121.8 1345.92 3121.8 1270.92"/>
      <polyline class="cls-5" points="2244.93 545.77 1966.39 565.48 1694.42 577.04 1969.67 1.04 3369.86 1.04 3472.28 103.46"/>
    </g>
    <g id="_308" data-name="308">
      <line id="_308-2" data-name="308" class="cls-6" x1="3785.05" y1="4478.7" x2="3975.29" y2="4478.7"/>
      <line class="cls-6" x1="3273.36" y1="1844.28" x2="3357.78" y2="1730.09"/>
    </g>
    <polyline id="_309" data-name="309" class="cls-5" points="2873.45 3258.71 2852.02 3273.8 1786.91 3734.53 1483.15 4038.3"/>
    <polyline id="_601" data-name="601" class="cls-5" points="1140.84 2224.11 305.73 1389 305.73 1007.99"/>
    <polyline id="_602" data-name="602" class="cls-5" points="1694.42 577.04 1390.65 577.04 784.17 1007.99 140.9 1007.99"/>
    <polyline id="H1" class="cls-5" points="3024.75 1846.41 3048.4 1863.76 3091.15 1911.93 3163.89 1786.75"/>
  </g>
</svg>