<?xml version="1.0" encoding="UTF-8"?>
<svg xmlns="http://www.w3.org/2000/svg" viewBox="0 0 6589.63 6042.91">
  <defs>
    <style>
      .cls-1, .cls-2, .cls-3 {
        stroke-width: 0px;
      }

      .cls-2 {
        fill: #fff;
      }

      .cls-4 {
        stroke: #007dc4;
        stroke-width: 15px;
      }

      .cls-4, .cls-5 {
        stroke-miterlimit: 10;
      }

      .cls-4, .cls-5, .cls-6, .cls-7 {
        fill: none;
      }

      .cls-3 {
        fill: #888;
      }

      .cls-5 {
        stroke: #187943;
        stroke-width: 4px;
      }

      .cls-6 {
        fill-rule: evenodd;
      }

      .cls-6, .cls-7 {
        stroke: #000;
        stroke-linecap: round;
        stroke-linejoin: round;
        stroke-width: 2px;
      }
    </style>
  </defs>
  <g id="_底图" data-name="底图">
    <g id="_标题" data-name="标题">
      <g>
        <path class="cls-1" d="m199.47,71.45v67.36h-16.87v-6.75h-30.51v42.12h-17.01v-42.12h-30.37v7.42h-16.2v-68.04h46.57v-23.35h17.01v23.35h47.38Zm-64.39,44.82v-29.02h-30.37v29.02h30.37Zm47.52,0v-29.02h-30.51v29.02h30.51Z"/>
        <path class="cls-1" d="m256.18,97.5c-1.89,17.41-5.27,40.77-9.85,56.02l-16.2-6.48c4.73-14.31,8.64-34.56,10.39-52.51l15.66,2.97Zm25.38-10.93v62.64c0,6.34,1.08,7.42,7.56,7.42h19.3c6.75,0,7.96-4.32,8.91-25.38,3.78,2.83,10.66,5.67,15.12,6.75-1.89,25.65-6.21,33.61-22.81,33.61h-22.41c-17.55,0-22.41-5.4-22.41-22.41v-62.64h16.74Zm-1.21-36.31c12.15,7.69,29.29,19.57,37.39,27.94l-11.88,12.55c-7.29-8.23-23.89-21.06-36.45-29.56l10.93-10.93Zm58.86,39.96c7.56,16.06,14.58,36.31,17.41,50.22l-16.33,6.75c-2.02-13.77-9.04-35.1-16.06-50.89l14.98-6.07Z"/>
        <path class="cls-1" d="m502.14,97.37c-4.32,17.68-10.26,33.34-18.49,46.3,2.16,8.91,4.59,14.04,7.15,14.04,2.02,0,3.1-6.34,3.51-20.11,2.97,3.37,7.56,6.88,11.2,8.37-2.02,20.79-6.21,26.59-16.6,26.59-6.61,0-11.74-5.67-15.66-14.98-5.53,6.48-11.88,12.01-18.9,16.74-2.16-2.7-7.83-8.37-11.2-10.66,9.99-5.94,18.22-13.5,25.11-22.81-3.51-16.33-5.4-37.39-6.34-59.53h-26.32v14.58h24.03s0,3.65-.14,5.4c-.4,30.1-.94,42.12-3.65,45.76-2.16,2.97-4.18,4.18-7.42,4.72-2.7.54-7.02.67-11.61.54-.4-4.05-1.48-9.31-3.37-12.69-2.16,12.96-6.48,25.65-15.12,34.96-2.16-2.7-8.23-7.83-11.61-9.85,5.4-6.07,8.91-13.5,10.8-21.06-11.88,4.86-24.57,10.12-34.83,14.31l-5.13-16.06c4.05-1.08,8.77-2.7,14.04-4.46v-42.52h-11.74v-14.85h11.74v-30.24h14.85v30.24h10.53v14.85h-10.53v37.26l10.39-3.65,1.89,9.85c1.89-9.04,2.16-18.63,2.16-26.86v-44.82h40.63c-.13-6.34-.27-12.55-.27-18.76h15.12c-.14,6.35-.14,12.55,0,18.76h10.53c-2.7-4.19-6.61-9.04-10.26-12.82l10.93-6.48c4.99,4.72,10.66,11.34,13.09,15.79l-5.67,3.51h7.42v14.58h-25.78c.67,14.17,1.62,27.54,3.1,39.01,3.38-7.83,5.94-16.47,7.96-25.65l14.44,2.7Zm-66.55,11.47v2.7c0,8.37-.4,18.09-2.02,27.67,3.38.41,5.94.41,7.42.41s2.43-.41,3.38-1.62c1.21-2.02,1.62-9.18,1.89-29.16h-10.66Z"/>
        <path class="cls-1" d="m650.78,155.01v15.39h-117.45V54.03h113.94v15.39h-98.28v85.59h101.79Zm-25.24-6.21c-6.21-7.29-15.93-16.6-26.73-26.46-11.07,10.53-22.81,19.57-34.56,26.73-2.7-3.24-8.64-9.45-12.28-12.42,12.28-6.34,24.16-14.98,34.96-24.7-9.99-8.64-20.25-17.14-29.43-24.3l11.2-9.85c8.77,6.88,19.17,14.85,29.29,23.22,8.1-8.64,14.98-17.82,20.65-27.4l15.25,6.07c-6.75,11.07-14.85,21.6-23.89,31.32,11.2,9.31,21.33,18.49,28.08,25.92l-12.55,11.88Z"/>
        <path class="cls-1" d="m725.03,56.46c-9.04,21.87-23.35,42.25-37.93,55.48-2.16-2.02-6.75-5.54-9.31-7.15,15.12-11.88,28.62-31.18,36.58-51.3l10.66,2.97Zm37.12,64.66c11.74,14.31,25.51,33.21,32.13,45.36l-9.72,5.4c-2.16-4.32-5.4-9.58-8.91-15.12-70.87,4.86-78.16,5.27-83.16,7.15-.54-2.16-2.43-7.69-3.92-10.53,3.51-.81,7.15-4.86,12.28-11.2,5.26-6.07,21.6-29.43,32.4-51.84l10.8,4.86c-11.07,20.38-24.3,40.36-37.53,56.02l62.77-3.78c-5.4-7.56-11.2-15.39-16.47-22l9.31-4.32Zm-2.16-68.58c8.91,18.36,26.05,39.69,39.96,50.89-2.56,2.02-6.34,5.8-8.37,8.5-13.9-12.82-31.05-35.37-41.44-55.62l9.85-3.78Z"/>
        <path class="cls-1" d="m916.86,107.63c-5.53,13.77-13.09,25.11-22.54,34.15,13.9,10.53,31.72,17.68,53.32,21.06-2.16,2.16-4.86,6.21-6.21,9.04-22.27-4.32-40.36-12.01-54.67-23.62-14.85,11.74-33.34,19.3-55.08,24.84-1.08-2.43-4.05-6.88-6.08-9.04,21.6-4.46,39.82-11.61,53.86-22.41-9.31-9.04-16.47-20.25-21.87-33.34l8.91-2.7c4.59,11.47,11.47,21.6,20.25,29.83,8.64-8.23,15.39-18.36,19.84-30.64l10.26,2.83Zm27.27-29.7h-115.83v-9.85h56.02c-1.89-4.72-5.67-11.34-8.91-16.6l9.31-3.24c3.78,5.4,8.1,12.82,9.99,17.41l-6.07,2.43h55.48v9.85Zm-72.49,7.96c-9.04,11.47-23.22,23.49-35.1,31.18-1.75-2.02-5.53-5.8-7.69-7.56,11.88-6.75,25.11-17.14,33.21-27.4l9.58,3.78Zm38.34-4.05c12.28,8.37,27.4,20.52,34.69,29.16l-8.23,6.48c-6.75-8.5-21.73-21.33-34.15-29.83l7.69-5.8Z"/>
        <path class="cls-1" d="m1019.33,119.51c-.27,2.56-.27,6.48,0,8.37-33.61,6.88-38.07,8.1-40.9,9.72-.54-2.02-1.89-6.48-3.1-9.18,2.83-.54,5.94-3.78,9.99-8.77,2.56-2.7,7.83-9.45,13.63-18.22-16.2,2.16-19.44,2.97-21.46,4.05-.4-2.16-2.02-6.88-3.1-9.58,2.43-.54,4.73-3.65,7.69-8.23,2.83-4.45,12.55-21.6,17.95-37.66l9.45,4.32c-5.94,13.9-13.63,28.48-21.6,39.96l16.87-1.62c3.1-5,5.94-9.99,8.5-14.98l8.37,5.13c-8.64,14.85-18.63,29.56-29.02,41.58l26.73-4.86Zm2.03,31.86l-44.14,13.09-2.02-9.72c11.07-2.56,28.08-7.42,44.68-11.88l1.49,8.5Zm73.71-32.13c-6.75,10.53-15.79,20.11-26.46,28.08,4.18,9.85,9.31,15.39,15.12,15.39,3.65,0,5.13-3.24,5.67-15.12,2.16,2.29,5.13,4.46,7.42,5.27-1.76,15.12-4.86,19.57-14.04,19.57s-16.74-7.15-22.27-19.3c-10.66,7.02-22.68,12.96-35.23,17.28-1.35-2.56-3.91-5.94-6.21-8.23,13.77-4.18,26.73-10.26,38.07-17.82-2.83-8.5-4.86-18.49-6.61-29.7l-25.65,4.99-1.75-9.04,26.19-4.86c-.68-5.8-1.22-11.88-1.62-18.09l-19.98,3.1-1.76-9.04,21.19-3.1c-.54-9.45-.81-19.17-.94-29.29h9.85c0,9.72.13,18.9.54,27.81l32.26-4.73,1.62,8.77-33.34,5.13c.54,6.21,1.08,12.01,1.75,17.68l33.61-6.34,1.75,8.77-34.29,6.48c1.48,9.58,3.37,18.22,5.53,25.51,8.5-6.88,15.79-14.58,21.19-23.08l8.37,3.92Zm-13.5-49.54c-4.19-3.65-12.69-8.91-19.3-12.15l5.67-5.53c6.61,2.83,15.25,7.96,19.44,11.47l-5.8,6.21Z"/>
        <path class="cls-1" d="m1238.84,159.46c0,6.34-1.76,9.45-6.08,11.2-4.32,1.62-11.61,1.89-23.76,1.75-.54-2.83-2.43-7.15-3.78-9.99,8.91.4,17.68.27,20.25.27,2.43-.14,3.51-.94,3.51-3.24v-92.34h-90.72v105.43h-9.99V57.68h110.56v101.79Zm-61.29-18.49c-2.56-4.86-6.21-10.8-10.26-17.14-5.4,12.69-12.01,23.35-20.11,31.99-1.48-1.35-5.67-4.19-7.83-5.53,9.31-9.04,16.47-21.06,21.6-35.37-5.94-8.5-12.55-17.28-18.63-24.7l6.21-5.53c5.27,6.07,10.66,13.09,15.79,19.98,2.56-8.91,4.46-18.22,6.07-28.21l9.18.95c-2.16,13.09-4.99,25.38-8.64,36.45,5.27,7.56,9.99,14.85,13.23,20.65l-6.61,6.48Zm38.88,4.05c-2.7-5.81-6.48-12.96-11.07-20.52-5.4,12.82-12.01,23.62-20.52,32.4-1.76-1.48-5.67-4.32-7.96-5.53,9.99-9.04,17.14-21.46,22.54-36.31-5.8-8.5-12.28-17.28-18.36-24.84l6.48-4.99c5.13,5.94,10.26,12.69,15.12,19.44,2.56-8.77,4.32-18.09,5.81-27.94l9.04.95c-2.02,13.23-4.72,25.38-8.37,36.45,5.94,9.04,11.07,17.95,14.31,25.11l-7.02,5.81Z"/>
        <path class="cls-1" d="m1387.61,55.38v117.45h-9.85v-5.67h-91.93v5.67h-9.72V55.38h111.51Zm-9.85,102.87v-93.69h-91.93v93.69h91.93Zm-12.55-77.22c-5.67,8.91-14.17,16.6-24.03,23.08,10.26,4.86,22.14,8.5,33.88,10.66-1.75,1.75-4.32,5.26-5.53,7.56-12.69-2.7-25.38-7.29-36.58-13.36-12.69,6.88-26.73,11.88-39.96,14.85-.95-2.29-3.11-6.21-4.73-8.23,11.88-2.16,24.7-6.34,36.18-11.61-5.4-3.65-10.39-7.69-14.58-12.01-4.05,3.65-8.1,6.88-12.28,9.58-1.49-1.62-4.86-4.73-6.88-6.07,11.47-6.75,22.95-17.14,29.7-28.08l8.24,2.7c-1.49,2.7-3.38,5.27-5.4,7.83h34.69l1.62-.41,5.67,3.51Zm-58.72,53.86c18.09,2.02,41.17,7.15,54.27,11.61l-4.59,7.42c-12.69-4.59-35.91-9.99-54.27-12.15l4.59-6.88Zm12.82-16.2c10.8,2.16,24.3,6.48,31.86,9.85l-4.19,6.75c-7.42-3.65-21.06-8.23-31.72-10.53l4.05-6.07Zm-3.78-32.13c4.46,4.86,10.26,9.31,17.14,13.23,7.29-4.18,13.63-8.91,18.49-14.04h-34.83l-.81.81Z"/>
        <path class="cls-3" d="m108.85,232.64c-1.34,2.27-3.14,4.05-5.4,5.33-2.26,1.28-4.81,1.92-7.66,1.92-3.33,0-6.27-.82-8.83-2.45-2.56-1.63-4.54-3.91-5.95-6.84-1.41-2.93-2.11-6.3-2.11-10.1s.71-7.06,2.14-9.96c1.42-2.9,3.42-5.14,6-6.72,2.58-1.58,5.54-2.38,8.9-2.38,2.85,0,5.38.65,7.61,1.94,2.22,1.3,3.98,3.06,5.26,5.3l-4.56,2.64c-.86-1.47-2.07-2.63-3.62-3.48-1.55-.85-3.18-1.27-4.87-1.27-2.21,0-4.16.58-5.86,1.75-1.7,1.17-3.02,2.8-3.96,4.9-.94,2.1-1.42,4.52-1.42,7.27s.47,5.26,1.42,7.44c.94,2.18,2.26,3.86,3.96,5.06,1.7,1.2,3.65,1.8,5.86,1.8,1.66,0,3.25-.43,4.75-1.3,1.5-.86,2.77-2.05,3.79-3.55l4.56,2.69Z"/>
        <path class="cls-3" d="m137.51,227.74h-18c.26,2.37,1.02,4.22,2.28,5.57,1.26,1.34,2.97,2.02,5.11,2.02,1.25,0,2.42-.33,3.5-.98,1.09-.66,2-1.59,2.74-2.81l4.22,2.35c-1.06,1.92-2.46,3.4-4.22,4.44-1.76,1.04-3.84,1.56-6.24,1.56-2.62,0-4.9-.56-6.82-1.68s-3.4-2.71-4.44-4.78c-1.04-2.06-1.56-4.49-1.56-7.27s.5-5.33,1.49-7.44c.99-2.11,2.42-3.74,4.27-4.87,1.86-1.14,4.03-1.7,6.53-1.7,3.55,0,6.36,1.06,8.42,3.17,2.06,2.11,3.1,4.98,3.1,8.59,0,1.5-.13,2.78-.38,3.84Zm-4.94-4.51c0-1.98-.56-3.57-1.68-4.75-1.12-1.18-2.62-1.78-4.51-1.78-1.76,0-3.22.57-4.37,1.7-1.15,1.14-1.92,2.74-2.3,4.82h12.86Z"/>
        <path class="cls-3" d="m144.42,239.21v-26.4h5.23v3.65h.24c.8-1.31,1.91-2.36,3.34-3.14s2.94-1.18,4.54-1.18c2.85,0,5.06.89,6.65,2.66s2.38,4.28,2.38,7.51v16.9h-5.23v-15.94c0-1.89-.51-3.4-1.54-4.54-1.02-1.14-2.34-1.7-3.94-1.7-1.92,0-3.47.62-4.66,1.85-1.18,1.23-1.78,2.87-1.78,4.92v15.41h-5.23Z"/>
        <path class="cls-3" d="m188.63,217.76h-7.34v13.39c0,1.28.34,2.27,1.03,2.98.69.7,1.66,1.06,2.9,1.06.9,0,1.84-.18,2.83-.53v4.9c-1.22.42-2.54.62-3.98.62-2.59,0-4.58-.73-5.95-2.18-1.38-1.46-2.06-3.54-2.06-6.26v-13.97h-4.13v-4.94h4.13v-8.06h5.23v8.06h7.34v4.94Z"/>
        <path class="cls-3" d="m194.1,239.21l-.1-26.4h5.38v4.94h.24c1.02-1.79,2.37-3.18,4.03-4.15,1.66-.98,3.58-1.46,5.76-1.46h.29v5.42h-.43c-3.14,0-5.57.67-7.3,2.02-1.73,1.34-2.59,3.09-2.59,5.23v14.4h-5.28Z"/>
        <path class="cls-3" d="m215.12,237.87c-1.5-1.34-2.26-3.15-2.26-5.42,0-2.85,1.12-5.02,3.36-6.5,2.24-1.49,5.42-2.23,9.55-2.23h3.36v-1.68c0-1.63-.49-2.92-1.46-3.86-.98-.94-2.28-1.42-3.91-1.42-2.11,0-4.16.94-6.14,2.83l-3.26-3.07c2.72-2.91,6-4.37,9.84-4.37,3.1,0,5.58.86,7.42,2.59,1.84,1.73,2.76,4.03,2.76,6.91v17.57h-5.23v-3.5h-.29c-.67,1.28-1.71,2.3-3.12,3.05-1.41.75-2.93,1.13-4.56,1.13-2.53,0-4.54-.67-6.05-2.02Zm10.39-3.17c1.04-.42,1.9-1.06,2.59-1.94.69-.88,1.03-1.96,1.03-3.24v-1.25h-2.54c-2.85,0-4.95.31-6.31.94-1.36.62-2.04,1.59-2.04,2.9,0,.96.38,1.74,1.13,2.33.75.59,1.77.89,3.05.89,1.02,0,2.06-.21,3.1-.62Z"/>
        <path class="cls-3" d="m241.81,202.11h5.23v30.62c0,1.25.62,1.87,1.87,1.87h1.3v4.94h-2.69c-1.89,0-3.31-.45-4.27-1.34s-1.44-2.21-1.44-3.94v-32.16Z"/>
        <path class="cls-3" d="m294.35,232.23c1.49-1.71,2.23-4.04,2.23-6.98v-23.14h5.47v23.47c0,2.91-.56,5.45-1.68,7.61-1.12,2.16-2.72,3.82-4.8,4.97-2.08,1.15-4.51,1.73-7.3,1.73s-5.22-.58-7.3-1.73c-2.08-1.15-3.68-2.81-4.8-4.97-1.12-2.16-1.68-4.7-1.68-7.61v-23.47h5.42v22.94c0,2.98.75,5.34,2.26,7.1,1.5,1.76,3.54,2.64,6.1,2.64s4.58-.86,6.07-2.57Z"/>
        <path class="cls-3" d="m310.21,239.21l-.1-26.4h5.38v4.94h.24c1.02-1.79,2.37-3.18,4.03-4.15,1.66-.98,3.58-1.46,5.76-1.46h.29v5.42h-.43c-3.14,0-5.57.67-7.3,2.02-1.73,1.34-2.59,3.09-2.59,5.23v14.4h-5.28Z"/>
        <path class="cls-3" d="m330.99,239.21v-37.1h5.23v14.26h.24c.93-1.31,2.08-2.34,3.46-3.07,1.38-.74,2.85-1.1,4.42-1.1,2.14,0,4.05.56,5.71,1.68,1.66,1.12,2.96,2.7,3.89,4.73.93,2.03,1.39,4.36,1.39,6.98,0,2.78-.46,5.26-1.39,7.44-.93,2.18-2.22,3.86-3.89,5.06-1.66,1.2-3.57,1.8-5.71,1.8-1.66,0-3.17-.37-4.51-1.1-1.34-.74-2.46-1.78-3.36-3.12h-.24v3.55h-5.23Zm6.94-6.82c1.26,1.63,2.89,2.45,4.87,2.45,2.11,0,3.83-.82,5.16-2.45,1.33-1.63,1.99-3.76,1.99-6.38,0-1.7-.3-3.22-.89-4.56-.59-1.34-1.42-2.39-2.47-3.14-1.06-.75-2.26-1.13-3.6-1.13s-2.54.38-3.6,1.13c-1.06.75-1.88,1.8-2.47,3.14-.59,1.34-.89,2.86-.89,4.56,0,2.62.63,4.75,1.9,6.38Z"/>
        <path class="cls-3" d="m362.82,237.87c-1.5-1.34-2.26-3.15-2.26-5.42,0-2.85,1.12-5.02,3.36-6.5,2.24-1.49,5.42-2.23,9.55-2.23h3.36v-1.68c0-1.63-.49-2.92-1.46-3.86-.98-.94-2.28-1.42-3.91-1.42-2.11,0-4.16.94-6.14,2.83l-3.26-3.07c2.72-2.91,6-4.37,9.84-4.37,3.1,0,5.58.86,7.42,2.59,1.84,1.73,2.76,4.03,2.76,6.91v17.57h-5.23v-3.5h-.29c-.67,1.28-1.71,2.3-3.12,3.05-1.41.75-2.93,1.13-4.56,1.13-2.53,0-4.54-.67-6.05-2.02Zm10.39-3.17c1.04-.42,1.9-1.06,2.59-1.94.69-.88,1.03-1.96,1.03-3.24v-1.25h-2.54c-2.85,0-4.95.31-6.31.94-1.36.62-2.04,1.59-2.04,2.9,0,.96.38,1.74,1.13,2.33.75.59,1.77.89,3.05.89,1.02,0,2.06-.21,3.1-.62Z"/>
        <path class="cls-3" d="m389.5,239.21v-26.4h5.23v3.65h.24c.8-1.31,1.91-2.36,3.34-3.14s2.94-1.18,4.54-1.18c2.85,0,5.06.89,6.65,2.66s2.38,4.28,2.38,7.51v16.9h-5.23v-15.94c0-1.89-.51-3.4-1.54-4.54-1.02-1.14-2.34-1.7-3.94-1.7-1.92,0-3.47.62-4.66,1.85-1.18,1.23-1.78,2.87-1.78,4.92v15.41h-5.23Z"/>
        <path class="cls-3" d="m467.7,239.21h-5.76l-3.89-11.09h-13.3l-3.89,11.09h-5.76l13.49-37.1h5.62l13.49,37.1Zm-16.46-29.57l-4.66,13.34h9.65l-4.7-13.34h-.29Z"/>
        <path class="cls-3" d="m472.83,239.21l-.1-26.4h5.38v4.94h.24c1.02-1.79,2.37-3.18,4.03-4.15,1.66-.98,3.58-1.46,5.76-1.46h.29v5.42h-.43c-3.14,0-5.57.67-7.3,2.02-1.73,1.34-2.59,3.09-2.59,5.23v14.4h-5.28Z"/>
        <path class="cls-3" d="m515.07,227.74h-18c.26,2.37,1.02,4.22,2.28,5.57,1.26,1.34,2.97,2.02,5.11,2.02,1.25,0,2.42-.33,3.5-.98,1.09-.66,2-1.59,2.74-2.81l4.22,2.35c-1.06,1.92-2.46,3.4-4.22,4.44-1.76,1.04-3.84,1.56-6.24,1.56-2.62,0-4.9-.56-6.82-1.68s-3.4-2.71-4.44-4.78c-1.04-2.06-1.56-4.49-1.56-7.27s.5-5.33,1.49-7.44c.99-2.11,2.42-3.74,4.27-4.87,1.86-1.14,4.03-1.7,6.53-1.7,3.55,0,6.36,1.06,8.42,3.17,2.06,2.11,3.1,4.98,3.1,8.59,0,1.5-.13,2.78-.38,3.84Zm-4.94-4.51c0-1.98-.56-3.57-1.68-4.75-1.12-1.18-2.62-1.78-4.51-1.78-1.76,0-3.22.57-4.37,1.7-1.15,1.14-1.92,2.74-2.3,4.82h12.86Z"/>
        <path class="cls-3" d="m522.99,237.87c-1.5-1.34-2.26-3.15-2.26-5.42,0-2.85,1.12-5.02,3.36-6.5,2.24-1.49,5.42-2.23,9.55-2.23h3.36v-1.68c0-1.63-.49-2.92-1.46-3.86-.98-.94-2.28-1.42-3.91-1.42-2.11,0-4.16.94-6.14,2.83l-3.26-3.07c2.72-2.91,6-4.37,9.84-4.37,3.1,0,5.58.86,7.42,2.59,1.84,1.73,2.76,4.03,2.76,6.91v17.57h-5.23v-3.5h-.29c-.67,1.28-1.71,2.3-3.12,3.05-1.41.75-2.93,1.13-4.56,1.13-2.53,0-4.54-.67-6.05-2.02Zm10.39-3.17c1.04-.42,1.9-1.06,2.59-1.94.69-.88,1.03-1.96,1.03-3.24v-1.25h-2.54c-2.85,0-4.95.31-6.31.94-1.36.62-2.04,1.59-2.04,2.9,0,.96.38,1.74,1.13,2.33.75.59,1.77.89,3.05.89,1.02,0,2.06-.21,3.1-.62Z"/>
        <path class="cls-3" d="m579.39,202.54c4.35,0,7.71.96,10.08,2.88,2.37,1.92,3.55,4.64,3.55,8.16s-1.14,6.28-3.43,8.18c-2.29,1.9-5.58,2.86-9.86,2.86h-7.34v14.3h-3.7v-36.38h10.7Zm-.34,18.62c3.23,0,5.73-.66,7.49-1.97,1.76-1.31,2.64-3.18,2.64-5.62s-.88-4.3-2.64-5.59c-1.76-1.3-4.26-1.94-7.49-1.94h-6.67v15.12h6.67Z"/>
        <path class="cls-3" d="m617.98,213.58v25.34h-3.55v-3.84h-.29c-.77,1.38-1.9,2.47-3.38,3.29-1.49.82-3.06,1.22-4.73,1.22-2.82,0-5.02-.87-6.6-2.62-1.58-1.74-2.38-4.2-2.38-7.37v-16.03h3.55v15.46c0,2.24.58,4.02,1.75,5.33,1.17,1.31,2.7,1.97,4.58,1.97,2.21,0,4.01-.72,5.4-2.16,1.39-1.44,2.09-3.3,2.09-5.57v-15.02h3.55Z"/>
        <path class="cls-3" d="m626.19,238.92v-36.38h3.55v15.02h.24c.93-1.44,2.11-2.57,3.55-3.38s3.01-1.22,4.7-1.22c2.05,0,3.9.55,5.54,1.66,1.65,1.1,2.94,2.63,3.86,4.58.93,1.95,1.39,4.18,1.39,6.67,0,2.62-.46,4.98-1.39,7.06-.93,2.08-2.22,3.7-3.86,4.87-1.65,1.17-3.5,1.75-5.54,1.75-1.79,0-3.4-.41-4.82-1.22-1.42-.82-2.57-1.96-3.43-3.43h-.24v4.03h-3.55Zm4.39-7.58c.66,1.5,1.58,2.67,2.76,3.5,1.18.83,2.51,1.25,3.98,1.25s2.92-.42,4.15-1.25c1.23-.83,2.19-2,2.88-3.5.69-1.5,1.03-3.2,1.03-5.09s-.34-3.58-1.01-5.06c-.67-1.49-1.62-2.65-2.83-3.48-1.22-.83-2.59-1.25-4.13-1.25s-2.85.42-4.03,1.25c-1.18.83-2.11,1.99-2.78,3.48-.67,1.49-1.01,3.18-1.01,5.06s.33,3.58.98,5.09Z"/>
        <path class="cls-3" d="m656,202.54h3.55v31.39c0,1.38.67,2.06,2.02,2.06h1.34v3.31h-2.11c-3.2,0-4.8-1.47-4.8-4.42v-32.35Z"/>
        <path class="cls-3" d="m673.01,206.19c-.46.45-1.08.67-1.85.67s-1.37-.22-1.8-.67c-.43-.45-.65-1.06-.65-1.82s.22-1.38.65-1.82c.43-.45,1.03-.67,1.8-.67s1.38.22,1.85.67c.46.45.7,1.06.7,1.82s-.23,1.38-.7,1.82Zm-.02,7.39v25.39h-3.55v-25.39h3.55Z"/>
        <path class="cls-3" d="m686.07,237.96c-1.78-1.12-3.15-2.7-4.13-4.73-.98-2.03-1.46-4.38-1.46-7.03s.49-4.94,1.46-6.94c.98-2,2.35-3.55,4.13-4.66,1.78-1.1,3.86-1.66,6.26-1.66,1.82,0,3.58.48,5.28,1.44,1.7.96,3.04,2.24,4.03,3.84l-2.78,1.97c-.74-1.22-1.7-2.17-2.9-2.86-1.2-.69-2.49-1.03-3.86-1.03-1.57,0-2.95.42-4.15,1.25-1.2.83-2.14,1.99-2.81,3.48-.67,1.49-1.01,3.21-1.01,5.16s.33,3.74.98,5.26c.66,1.52,1.58,2.7,2.78,3.55,1.2.85,2.58,1.27,4.15,1.27,1.38,0,2.67-.34,3.89-1.03,1.22-.69,2.19-1.64,2.93-2.86l2.78,1.97c-.99,1.6-2.34,2.88-4.03,3.84-1.7.96-3.46,1.44-5.28,1.44-2.4,0-4.49-.56-6.26-1.68Z"/>
        <path class="cls-3" d="m739.56,238.92h-3.74v-32.88h-11.47v-3.5h26.64v3.5h-11.42v32.88Z"/>
        <path class="cls-3" d="m752.43,238.92v-25.34h3.55v5.09h.24c1.02-1.76,2.37-3.16,4.03-4.2,1.66-1.04,3.54-1.56,5.62-1.56h.38v3.84h-.48c-1.95,0-3.67.36-5.16,1.08-1.49.72-2.63,1.66-3.43,2.83-.8,1.17-1.2,2.39-1.2,3.67v14.59h-3.55Z"/>
        <path class="cls-3" d="m771.87,237.7c-1.44-1.26-2.16-2.95-2.16-5.06,0-5.44,4.24-8.16,12.72-8.16h3.74v-2.3c0-1.86-.54-3.32-1.63-4.39-1.09-1.07-2.58-1.61-4.46-1.61-2.14,0-4.3.91-6.48,2.74l-2.11-2.45c2.53-2.37,5.46-3.55,8.78-3.55,2.94,0,5.26.78,6.96,2.35,1.7,1.57,2.54,3.71,2.54,6.43v17.23h-3.6v-3.84h-.24c-.77,1.38-1.9,2.47-3.38,3.29-1.49.82-3.08,1.22-4.78,1.22-2.5,0-4.46-.63-5.9-1.9Zm10.1-2.16c1.2-.53,2.2-1.33,3-2.4.8-1.07,1.2-2.36,1.2-3.86v-1.54h-3.07c-3.33,0-5.78.38-7.37,1.15s-2.38,1.94-2.38,3.5c0,1.22.45,2.18,1.34,2.88.9.7,2.13,1.06,3.7,1.06,1.18,0,2.38-.26,3.58-.79Z"/>
        <path class="cls-3" d="m797.69,238.92v-25.34h3.55v3.89h.24c.77-1.38,1.9-2.48,3.41-3.31,1.5-.83,3.07-1.25,4.7-1.25,2.82,0,5.02.88,6.62,2.64,1.6,1.76,2.4,4.22,2.4,7.39v15.98h-3.55v-15.41c0-2.21-.6-3.98-1.8-5.33-1.2-1.34-2.71-2.02-4.54-2.02-2.21,0-4.01.73-5.4,2.18-1.39,1.46-2.09,3.3-2.09,5.54v15.02h-3.55Z"/>
        <path class="cls-3" d="m828.56,238.08c-1.73-1.01-3.06-2.38-3.98-4.1l3.02-1.78c.77,1.31,1.77,2.33,3,3.05,1.23.72,2.65,1.08,4.25,1.08,1.73,0,3.1-.34,4.1-1.03,1.01-.69,1.51-1.62,1.51-2.81,0-1.12-.5-2.03-1.49-2.74-.99-.7-2.61-1.3-4.85-1.78-2.94-.7-5.14-1.63-6.6-2.78-1.46-1.15-2.18-2.67-2.18-4.56,0-2.37.82-4.25,2.47-5.64,1.65-1.39,3.9-2.09,6.74-2.09,2.11,0,3.98.46,5.59,1.37,1.62.91,2.95,2.22,4.01,3.91l-2.83,2.02c-.83-1.31-1.83-2.31-3-3-1.17-.69-2.44-1.03-3.82-1.03-1.66,0-2.99.37-3.98,1.1-.99.74-1.49,1.71-1.49,2.93,0,1.06.54,1.95,1.61,2.69,1.07.74,2.68,1.36,4.82,1.87,5.76,1.25,8.64,3.63,8.64,7.15,0,2.37-.84,4.24-2.52,5.62-1.68,1.38-3.96,2.06-6.84,2.06-2.4,0-4.46-.5-6.19-1.51Z"/>
        <path class="cls-3" d="m850.35,250.39v-36.82h3.55v4.03h.24c.93-1.47,2.11-2.62,3.55-3.46,1.44-.83,3.01-1.25,4.7-1.25,2.05,0,3.9.55,5.54,1.66,1.65,1.1,2.94,2.64,3.86,4.61.93,1.97,1.39,4.2,1.39,6.7,0,2.62-.46,4.98-1.39,7.06-.93,2.08-2.22,3.7-3.86,4.87-1.65,1.17-3.5,1.75-5.54,1.75-1.82,0-3.44-.4-4.85-1.2-1.41-.8-2.54-1.95-3.41-3.46h-.24v15.5h-3.55Zm4.39-19.03c.66,1.49,1.57,2.65,2.74,3.48,1.17.83,2.5,1.25,4.01,1.25s2.92-.42,4.15-1.25c1.23-.83,2.2-1.99,2.9-3.48.7-1.49,1.06-3.19,1.06-5.11s-.34-3.58-1.03-5.06c-.69-1.49-1.64-2.66-2.86-3.5-1.22-.85-2.59-1.27-4.13-1.27s-2.85.42-4.03,1.27c-1.18.85-2.11,2.02-2.78,3.5-.67,1.49-1.01,3.18-1.01,5.06s.33,3.62.98,5.11Z"/>
        <path class="cls-3" d="m884.35,237.96c-1.74-1.09-3.09-2.64-4.03-4.66-.94-2.02-1.42-4.37-1.42-7.06s.47-5.04,1.42-7.06c.94-2.02,2.29-3.57,4.03-4.66,1.74-1.09,3.77-1.63,6.07-1.63s4.33.54,6.07,1.63c1.74,1.09,3.09,2.64,4.03,4.66.94,2.02,1.42,4.37,1.42,7.06s-.47,5.04-1.42,7.06c-.94,2.02-2.29,3.57-4.03,4.66-1.74,1.09-3.77,1.63-6.07,1.63s-4.33-.54-6.07-1.63Zm11.78-4.44c1.44-1.81,2.16-4.23,2.16-7.27s-.72-5.46-2.16-7.27c-1.44-1.81-3.34-2.71-5.71-2.71s-4.27.9-5.71,2.71c-1.44,1.81-2.16,4.23-2.16,7.27s.72,5.46,2.16,7.27c1.44,1.81,3.34,2.71,5.71,2.71s4.27-.9,5.71-2.71Z"/>
        <path class="cls-3" d="m908.91,238.92v-25.34h3.55v5.09h.24c1.02-1.76,2.37-3.16,4.03-4.2,1.66-1.04,3.54-1.56,5.62-1.56h.38v3.84h-.48c-1.95,0-3.67.36-5.16,1.08-1.49.72-2.63,1.66-3.43,2.83-.8,1.17-1.2,2.39-1.2,3.67v14.59h-3.55Z"/>
        <path class="cls-3" d="m940.39,216.94h-7.34v14.93c0,1.47.37,2.62,1.1,3.43.74.82,1.76,1.22,3.07,1.22.67,0,1.54-.18,2.59-.53v3.31c-.86.35-1.97.53-3.31.53-2.27,0-4.02-.66-5.23-1.99-1.22-1.33-1.82-3.22-1.82-5.69v-15.22h-3.98v-3.36h3.98v-7.92h3.6v7.92h7.34v3.36Z"/>
        <path class="cls-3" d="m966.65,238.87h-2.78v-36.29h3.02l20.64,31.54h.19v-31.54h2.74v36.29h-2.98l-20.64-31.54h-.19v31.54Z"/>
        <path class="cls-3" d="m1019.74,227.07h-19.06c.16,3.01,1.05,5.42,2.66,7.22,1.62,1.81,3.72,2.71,6.31,2.71,1.54,0,2.99-.38,4.37-1.13,1.38-.75,2.45-1.78,3.22-3.1l2.06,1.39c-.93,1.63-2.24,2.92-3.94,3.86-1.7.94-3.6,1.42-5.71,1.42-2.34,0-4.38-.54-6.14-1.63-1.76-1.09-3.12-2.62-4.08-4.61-.96-1.98-1.44-4.29-1.44-6.91s.46-4.99,1.39-7.01c.93-2.02,2.24-3.58,3.94-4.68,1.7-1.1,3.68-1.66,5.95-1.66,2.14,0,4.02.49,5.64,1.46,1.62.98,2.86,2.35,3.74,4.13.88,1.78,1.32,3.82,1.32,6.12,0,.74-.08,1.54-.24,2.4Zm-2.5-2.45c0-2.75-.74-4.98-2.21-6.67-1.47-1.7-3.39-2.54-5.76-2.54s-4.27.83-5.81,2.5c-1.54,1.66-2.43,3.9-2.69,6.72h16.46Z"/>
        <path class="cls-3" d="m1038.65,216.12h-7.49v15.74c0,1.63.38,2.9,1.15,3.79.77.9,1.81,1.34,3.12,1.34.77,0,1.65-.19,2.64-.58v2.5c-.99.38-2.05.58-3.17.58-2.02,0-3.59-.64-4.73-1.92-1.14-1.28-1.7-3.1-1.7-5.47v-15.98h-3.98v-2.5h3.98v-7.49h2.69v7.49h7.49v2.5Z"/>
        <path class="cls-3" d="m1049.16,238.87l-8.21-25.25h2.93l6.62,21.5h.19l6.67-21.5h2.98l6.72,21.5h.14l6.62-21.5h2.93l-8.21,25.25h-2.88l-6.72-21.6h-.19l-6.67,21.6h-2.93Z"/>
        <path class="cls-3" d="m1085.64,237.89c-1.7-1.1-3.02-2.66-3.96-4.68-.94-2.02-1.42-4.34-1.42-6.96s.47-4.94,1.42-6.96c.94-2.02,2.26-3.58,3.96-4.68,1.7-1.1,3.65-1.66,5.86-1.66s4.21.55,5.9,1.66c1.7,1.1,3.02,2.66,3.96,4.68.94,2.02,1.42,4.34,1.42,6.96s-.47,4.94-1.42,6.96c-.94,2.02-2.26,3.58-3.96,4.68-1.7,1.1-3.66,1.66-5.9,1.66s-4.16-.55-5.86-1.66Zm10.34-2.18c1.3-.9,2.3-2.16,3.02-3.79.72-1.63,1.08-3.52,1.08-5.66s-.36-4.03-1.08-5.66c-.72-1.63-1.73-2.9-3.02-3.79-1.3-.9-2.79-1.34-4.49-1.34s-3.18.45-4.46,1.34c-1.28.9-2.28,2.16-3,3.79-.72,1.63-1.08,3.52-1.08,5.66s.36,4.03,1.08,5.66c.72,1.63,1.72,2.9,3,3.79,1.28.9,2.77,1.34,4.46,1.34s3.19-.45,4.49-1.34Z"/>
        <path class="cls-3" d="m1109.98,238.87v-25.25h2.64v5.62h.19c.99-1.82,2.36-3.33,4.1-4.51,1.74-1.18,3.75-1.78,6.02-1.78h.43v2.88h-.62c-1.98,0-3.74.43-5.28,1.3-1.54.86-2.73,1.95-3.58,3.26-.85,1.31-1.27,2.61-1.27,3.89v14.59h-2.64Z"/>
        <path class="cls-3" d="m1148.18,238.87h-3.36l-10.94-12.67-2.54,2.35v10.32h-2.64v-36.29h2.64v22.51l12.43-11.47h3.74l-11.71,10.8,12.38,14.45Z"/>
        <path class="cls-3" d="m1174.49,238.92h-2.78v-36.29h2.98l13.63,24.91h.19l13.58-24.91h2.98v36.29h-2.74v-30.96h-.19l-12.82,23.47h-1.82l-12.82-23.47h-.19v30.96Z"/>
        <path class="cls-3" d="m1214.71,237.72c-1.41-1.22-2.11-2.86-2.11-4.94,0-5.28,4.32-7.92,12.96-7.92h4.03v-2.83c0-2.08-.6-3.7-1.8-4.87-1.2-1.17-2.87-1.75-5.02-1.75s-4.38.9-6.62,2.69l-1.58-1.87c1.18-1.02,2.49-1.82,3.91-2.4,1.42-.58,2.92-.86,4.49-.86,2.91,0,5.18.76,6.82,2.28,1.63,1.52,2.45,3.62,2.45,6.31v17.33h-2.64v-4.32h-.19c-.86,1.6-2.08,2.83-3.65,3.7-1.57.86-3.3,1.3-5.18,1.3-2.5,0-4.45-.61-5.86-1.82Zm10.44-1.58c1.33-.64,2.4-1.56,3.22-2.76.82-1.2,1.22-2.58,1.22-4.15v-1.92h-3.55c-7.17,0-10.75,1.78-10.75,5.33,0,1.38.51,2.46,1.54,3.26,1.02.8,2.42,1.2,4.18,1.2,1.44,0,2.82-.32,4.15-.96Z"/>
        <path class="cls-3" d="m1240.39,250.25v-36.62h2.64v4.99h.19c.9-1.76,2.11-3.14,3.65-4.15,1.54-1.01,3.25-1.51,5.14-1.51,2.08,0,3.94.56,5.57,1.68,1.63,1.12,2.91,2.67,3.84,4.66.93,1.98,1.39,4.22,1.39,6.72s-.46,4.91-1.39,6.96c-.93,2.05-2.21,3.65-3.84,4.8-1.63,1.15-3.49,1.73-5.57,1.73s-3.73-.48-5.23-1.44c-1.5-.96-2.69-2.32-3.55-4.08h-.19v16.27h-2.64Zm3.62-18.46c.72,1.62,1.72,2.87,3,3.77,1.28.9,2.74,1.34,4.37,1.34s3.16-.45,4.49-1.34c1.33-.9,2.37-2.15,3.12-3.77.75-1.62,1.13-3.45,1.13-5.5s-.37-3.88-1.1-5.5c-.74-1.62-1.77-2.89-3.1-3.82-1.33-.93-2.82-1.39-4.49-1.39s-3.1.46-4.39,1.39c-1.3.93-2.3,2.2-3.02,3.82-.72,1.62-1.08,3.45-1.08,5.5s.36,3.88,1.08,5.5Z"/>
      </g>
    </g>
    <g>
      <path class="cls-1" d="m87,992.95v.82h-4.89v.86h3.66v4.08h-8.11v-4.08h3.55v-.86h-4.85v-.82h2.97v-1.15h-2.11v-.8h2.11v-1.06h.89v1.06h2.91v-1.06h.91v1.06h2.15v.8h-2.15v1.15h2.95Zm-6.28,6.48c-.97.59-2.48,1.18-3.69,1.5-.13-.18-.41-.48-.61-.65,1.21-.3,2.73-.88,3.5-1.37l.8.52Zm-2.19-3.08h2.69v-1.06h-2.69v1.06Zm0,1.69h2.69v-1.07h-2.69v1.07Zm1.7-5.09h2.91v-1.15h-2.91v1.15Zm1.88,2.34v1.06h2.77v-1.06h-2.77Zm2.77,1.68h-2.77v1.07h2.77v-1.07Zm-1.58,1.94c1.31.43,2.76.98,3.63,1.38l-.66.6c-.82-.4-2.17-.95-3.51-1.42l.54-.56Z"/>
      <path class="cls-1" d="m89.45,995.67c-.25-.5-.82-1.31-1.31-1.87l.7-.4c.5.55,1.09,1.31,1.36,1.83l-.74.43Zm-1,4.39c.4-.91.94-2.47,1.33-3.79l.72.5c-.35,1.22-.83,2.7-1.26,3.79l-.79-.5Zm.89-9.94c.52.56,1.14,1.35,1.43,1.88l-.74.48c-.26-.53-.86-1.35-1.38-1.94l.7-.42Zm3.84,2.28c-.4.76-1.04,1.52-1.63,2.03-.13-.13-.46-.37-.64-.47.61-.47,1.18-1.12,1.51-1.78l.76.22Zm.4-.6h-2.12v-.76h3.38c-.11-.34-.26-.72-.43-1.03l.8-.22c.23.37.43.86.55,1.25h3.32v.76h-2.57v2.87h-.82v-2.87h-1.31v2.87h-.82v-2.87Zm5.11,6.32s-.02.25-.06.37c-.24,1.28-.48,1.88-.83,2.15-.22.19-.44.24-.79.25-.3.02-.9.02-1.55-.02-.01-.23-.11-.54-.24-.76.61.06,1.24.07,1.48.07.22,0,.34-.01.43-.1.2-.16.38-.52.55-1.26h-6.04c.22-.61.46-1.5.6-2.23h5.12v-.88h-5.72v-.7h6.56v2.27h-5.25c-.07.28-.14.56-.22.83h5.96Zm-1.1-5.95c.6.54,1.26,1.26,1.55,1.79l-.67.42c-.28-.53-.94-1.29-1.52-1.83l.65-.37Z"/>
      <path class="cls-1" d="m102.13,995.11c-.43-.34-1.32-.84-1.98-1.18l.5-.65c.65.31,1.54.79,1.98,1.1l-.5.72Zm.44,1.8c-.4,1.24-.94,2.72-1.4,3.83l-.8-.44c.43-.95,1.06-2.49,1.49-3.85l.72.47Zm-.1-4.89c-.4-.37-1.22-.92-1.85-1.31l.52-.61c.62.34,1.45.88,1.87,1.21l-.54.71Zm4.14,2.41s-.01.29-.01.41c-.11,3.84-.2,5.15-.49,5.54-.19.25-.4.35-.7.38-.28.02-.76.02-1.22,0-.02-.25-.1-.58-.23-.82.46.05.9.05,1.07.05s.26-.01.37-.16c.18-.25.29-1.39.37-4.58h-1.19c-.19,2.25-.64,4.29-1.86,5.64-.14-.19-.42-.44-.64-.56,1.56-1.64,1.72-4.67,1.79-7.6h-1.12v-.85h4.19v.85h-2.24c-.02.58-.04,1.14-.07,1.7h1.98Zm-1.8-2.57c-.19-.43-.61-1.1-1-1.6l.8-.34c.4.48.83,1.12,1.03,1.55l-.84.38Zm6.34,5.45h-1.68v2.59c0,.48-.08.72-.42.85-.34.14-.86.16-1.67.16-.04-.25-.16-.58-.25-.83.6.02,1.14.02,1.3,0,.17,0,.22-.04.22-.18v-2.59h-1.83v-.8h1.83v-1.15c.35-.23.71-.55,1.02-.88h-2.27v-.74c-.06.11-.13.2-.19.3-.16-.13-.54-.35-.76-.46.67-.88,1.12-2.24,1.36-3.62l.85.13c-.1.5-.22.98-.34,1.45h2.82v.84h-3.11c-.19.48-.38.92-.61,1.31h2.95l.16-.05.55.38c-.43.58-1.03,1.18-1.61,1.62v.86h1.68v.8Z"/>
      <path class="cls-1" d="m120.93,993.28c-.59.89-1.42,1.66-2.39,2.29,1.33.62,2.94,1.06,4.64,1.27-.2.2-.43.59-.56.84-.56-.07-1.13-.19-1.67-.34v3.53h-.9v-.38h-4.74v.4h-.86v-3.48c-.64.19-1.27.34-1.9.47-.08-.23-.28-.59-.43-.78,1.6-.28,3.27-.79,4.71-1.5-.6-.42-1.13-.88-1.57-1.38-.54.42-1.16.82-1.87,1.16-.13-.2-.4-.49-.6-.64,1.64-.73,2.81-1.77,3.41-2.69l.96.17c-.17.24-.36.47-.55.71h3.56l.16-.04.6.38Zm-7.44-.01h-.88v-2.25h4.77c-.17-.31-.36-.67-.54-.96l.86-.22c.24.35.5.8.7,1.18h4.27v2.25h-.9v-1.43h-8.29v1.43Zm7,3.96c-1.02-.3-1.97-.67-2.83-1.14-.84.46-1.74.84-2.67,1.14h5.51Zm-.44,2.49v-1.74h-4.74v1.74h4.74Zm-4.16-6.03c.47.54,1.08,1.02,1.79,1.45.74-.46,1.39-.95,1.88-1.5h-3.62l-.05.05Z"/>
      <path class="cls-1" d="m128.45,999.83c0,.48-.1.74-.41.9-.3.16-.78.17-1.58.17-.02-.23-.14-.62-.26-.85.55.01,1.06.01,1.2,0,.17-.01.23-.06.23-.23v-2.95h-1.88c-.11,1.42-.35,2.91-.9,4.04-.16-.14-.52-.35-.73-.43.83-1.68.89-4.05.89-5.82v-4.28h3.45v9.45Zm-.83-3.81v-2.01h-1.81v.66c0,.41-.01.88-.02,1.35h1.83Zm-1.81-4.81v1.97h1.81v-1.97h-1.81Zm9.09,3.41c-.31,1.63-.89,2.97-1.64,4.04.58.66,1.25,1.2,2,1.57-.2.17-.44.47-.58.68-.72-.41-1.37-.95-1.94-1.62-.54.64-1.15,1.15-1.81,1.54-.12-.2-.35-.5-.53-.66.66-.36,1.28-.88,1.83-1.52-.67-.97-1.2-2.12-1.6-3.36h-.3v5.61h-.84v-10.48h5.06v2.3c0,.46-.11.68-.47.82-.38.12-.98.12-1.88.12-.04-.24-.17-.54-.29-.76.73.01,1.35.01,1.54,0,.19,0,.24-.05.24-.19v-1.46h-3.36v3.21h3.89l.16-.02.52.18Zm-3.48.67c.32.98.76,1.9,1.31,2.69.52-.77.92-1.67,1.2-2.69h-2.51Z"/>
      <path class="cls-1" d="m145.95,991.5c-.72,1.08-1.83,1.91-3.15,2.55,1.25.38,2.73.6,4.33.7-.18.2-.38.55-.49.8-1.83-.16-3.5-.48-4.89-1.06-1.6.62-3.39.98-5.13,1.2-.06-.23-.22-.58-.36-.78,1.52-.14,3.09-.43,4.51-.89-.7-.38-1.3-.85-1.79-1.42-.48.4-1.03.76-1.64,1.1-.12-.2-.36-.52-.55-.66,1.68-.85,2.87-2.09,3.48-3.13l.94.19c-.23.35-.48.71-.77,1.06h4.83l.16-.05.54.37Zm.1,5.1s-.01.28-.05.4c-.25,2.17-.53,3.07-.94,3.44-.26.24-.53.3-.97.32-.35.01-1.07.01-1.77-.04-.01-.24-.12-.56-.28-.79.76.07,1.51.08,1.81.08.24,0,.38-.01.52-.11.28-.23.52-.96.72-2.53h-3.63c-.76,1.93-2.23,2.94-4.58,3.5-.1-.2-.32-.58-.49-.76,2.11-.41,3.44-1.21,4.13-2.75h-3.3v-.78h3.57c.1-.36.18-.76.23-1.19l.92.07c-.06.4-.14.78-.23,1.12h4.34Zm-6.5-4.49c.53.66,1.28,1.18,2.21,1.57,1.13-.46,2.11-1.03,2.82-1.74h-4.85l-.18.17Z"/>
      <path class="cls-1" d="m158.44,992.07v5.61h-.91v-.68h-3.44v3.89h-.92v-3.89h-3.43v.74h-.88v-5.67h4.31v-2.13h.92v2.13h4.35Zm-5.28,4.05v-3.18h-3.43v3.18h3.43Zm4.37,0v-3.18h-3.44v3.18h3.44Z"/>
      <path class="cls-1" d="m162.18,994.33c-.19,1.4-.56,3.43-1.06,4.7l-.89-.37c.52-1.22.91-3.09,1.08-4.5l.86.17Zm1.94-1.07v5.91c0,.55.14.66.83.66h2.29c.74,0,.85-.42.95-2.48.22.17.59.32.84.4-.13,2.27-.41,2.93-1.74,2.93h-2.41c-1.3,0-1.66-.32-1.66-1.51v-5.9h.9Zm.25-2.9c1.12.77,2.54,1.9,3.23,2.65l-.64.66c-.66-.74-2.05-1.92-3.18-2.72l.59-.59Zm5.22,3.49c.7,1.43,1.35,3.26,1.61,4.5l-.88.35c-.24-1.24-.89-3.12-1.56-4.52l.83-.32Z"/>
    </g>
    <g>
      <path class="cls-1" d="m249.77,995.98l-1.44.43v3.37c0,.55-.14.8-.48.95-.35.16-.91.17-1.86.17-.02-.24-.16-.61-.29-.85.67.02,1.28.01,1.45,0,.2,0,.29-.06.29-.26v-3.11c-.59.17-1.14.34-1.63.47l-.24-.9c.52-.12,1.16-.29,1.87-.49v-2.53h-1.7v-.88h1.7v-2.4h.89v2.4h1.34v.88h-1.34v2.28l1.32-.37.12.85Zm6.44-1.39c-.31,1.48-.9,2.85-1.75,3.99.65.66,1.38,1.19,2.18,1.52-.22.18-.49.52-.62.76-.79-.38-1.5-.94-2.13-1.6-.6.66-1.32,1.21-2.12,1.64-.13-.2-.38-.47-.59-.65.83-.42,1.54-.98,2.15-1.63-.79-.98-1.42-2.13-1.87-3.39h-.36v5.64h-.88v-10.53h5.62s0,.25-.01.38c-.07,1.68-.18,2.36-.43,2.63-.23.22-.48.29-.88.31-.38.02-1.14.01-1.93-.02-.01-.24-.11-.54-.25-.76.79.07,1.57.07,1.81.07.25,0,.4-.01.48-.1.16-.14.23-.61.28-1.69h-3.81v3.26h4.39l.16-.04.58.19Zm-3.91.65c.38.97.92,1.9,1.57,2.7.59-.82,1.02-1.74,1.28-2.7h-2.85Z"/>
      <path class="cls-1" d="m268.04,990.49v10.41h-.92v-.6h-8.02v.6h-.89v-10.41h9.83Zm-.92,8.98v-8.16h-8.02v8.16h8.02Zm-.7-1.86v.76h-6.54v-.76h2.76v-2.01h-2.25v-.77h2.25v-1.7h-2.59v-.8h6.13v.8h-2.7v1.7h2.4v.77h-2.4v2.01h2.94Zm-1.62-1.8c.44.38.97.94,1.21,1.31l-.61.36c-.23-.37-.74-.95-1.16-1.36l.56-.31Z"/>
      <path class="cls-1" d="m277.69,994.59v1.49h2.58v.85h-2.58v2.75c0,.56-.13.82-.54.96-.42.14-1.12.16-2.17.16-.05-.26-.18-.64-.31-.9.83.04,1.62.02,1.83.02.22-.01.29-.07.29-.25v-2.73h-6.75v-.85h6.75v-1.49h-7.02v-.85h4.85v-1.55h-3.81v-.85h3.81v-1.4h.91v1.4h4.07v.85h-4.07v1.55h4.93v.85h-2.77Zm-5.41,2.6c.71.59,1.51,1.44,1.87,2.03l-.78.5c-.32-.59-1.1-1.49-1.81-2.09l.72-.44Z"/>
      <path class="cls-1" d="m286.07,994.32s0,.28-.01.41c-.1,3.92-.19,5.23-.48,5.64-.18.25-.4.35-.68.37-.26.04-.68.04-1.12.01-.01-.24-.1-.58-.23-.79.43.04.8.05.98.05.14,0,.24-.02.34-.17.18-.26.29-1.43.37-4.7h-1.36c-.05,1.86-.35,3.93-1.7,5.73-.13-.17-.43-.38-.64-.5,1.37-1.85,1.52-4.03,1.52-5.77v-1.82h-1.28v-.84h4.63v.84h-2.53v1.55h2.18Zm-1.99-2.47c-.12-.44-.41-1.13-.65-1.64l.76-.26c.28.52.56,1.18.68,1.62l-.79.29Zm3.86.5c-.34.68-.74,1.3-1.16,1.78-.16-.13-.5-.41-.71-.54.85-.88,1.5-2.23,1.85-3.65l.86.16c-.13.5-.3.98-.48,1.44h4.14v.82h-4.5Zm4.51,2.97c-.55.54-1.27,1.13-1.87,1.55.46,1.37,1.12,2.48,2.03,3.12-.2.16-.48.48-.61.72-1.6-1.2-2.4-3.59-2.81-6.43-.36.1-.73.18-1.09.26v4.89l1.8-.79c.01.24.07.6.13.79-2.19,1.02-2.53,1.18-2.73,1.38-.08-.19-.32-.53-.46-.67.17-.14.41-.43.41-.98v-5.17c1.54-.32,3.27-.82,4.25-1.29l.72.62c-.65.28-1.44.54-2.27.77.11.7.23,1.38.41,2.03.52-.42,1.08-.92,1.45-1.34l.65.55Z"/>
      <path class="cls-1" d="m295.6,995.11c-.43-.34-1.32-.84-1.98-1.18l.5-.65c.65.31,1.54.79,1.98,1.1l-.5.72Zm.44,1.8c-.4,1.24-.94,2.72-1.4,3.83l-.8-.44c.43-.95,1.06-2.49,1.49-3.85l.72.47Zm-.1-4.89c-.4-.37-1.22-.92-1.85-1.31l.52-.61c.62.34,1.45.88,1.87,1.21l-.54.71Zm4.14,2.41s-.01.29-.01.41c-.11,3.84-.2,5.15-.49,5.54-.19.25-.4.35-.7.38-.28.02-.76.02-1.22,0-.02-.25-.1-.58-.23-.82.46.05.9.05,1.07.05s.26-.01.37-.16c.18-.25.29-1.39.37-4.58h-1.19c-.19,2.25-.64,4.29-1.86,5.64-.14-.19-.42-.44-.64-.56,1.56-1.64,1.72-4.67,1.79-7.6h-1.12v-.85h4.19v.85h-2.24c-.02.58-.04,1.14-.07,1.7h1.98Zm-1.8-2.57c-.19-.43-.61-1.1-1-1.6l.8-.34c.4.48.83,1.12,1.03,1.55l-.84.38Zm6.34,5.45h-1.68v2.59c0,.48-.08.72-.42.85-.34.14-.86.16-1.67.16-.04-.25-.16-.58-.25-.83.6.02,1.14.02,1.3,0,.17,0,.22-.04.22-.18v-2.59h-1.83v-.8h1.83v-1.15c.35-.23.71-.55,1.02-.88h-2.27v-.74c-.06.11-.13.2-.19.3-.16-.13-.54-.35-.76-.46.67-.88,1.12-2.24,1.36-3.62l.85.13c-.1.5-.22.98-.34,1.45h2.82v.84h-3.11c-.19.48-.38.92-.61,1.31h2.95l.16-.05.55.38c-.43.58-1.03,1.18-1.61,1.62v.86h1.68v.8Z"/>
      <path class="cls-1" d="m316.38,998.63h-4.25v2.27h-.92v-2.27h-5.3v-.88h5.3v-1.81h-2.75c-.72,0-1.16.06-1.28.17-.06-.19-.22-.66-.34-.92.26-.06.52-.41.83-.94.18-.26.55-.91.95-1.72h-2.53v-.86h2.94c.25-.58.52-1.2.72-1.8l1,.29c-.22.5-.43,1.02-.67,1.51h6.09v.86h-6.51c-.48.94-1,1.8-1.5,2.55h3.06v-1.81h.92v1.81h3.25v.85h-3.25v1.81h4.25v.88Z"/>
      <path class="cls-1" d="m322.36,997.75l.08.82c-1.58.41-3.25.83-4.5,1.14l-.22-.88c.7-.16,1.61-.35,2.59-.59.31-1.27.62-3.37.78-4.82l.84.16c-.24,1.4-.56,3.23-.88,4.49l1.29-.31Zm-4.49-5.56h4.63v.83h-4.63v-.83Zm1.19,1.38c.28,1.37.54,3.09.61,4.27l-.76.14c-.05-1.18-.3-2.93-.58-4.28l.72-.13Zm1.01-1.5c-.14-.49-.48-1.26-.79-1.82l.74-.23c.36.55.71,1.28.85,1.77l-.8.28Zm5.5,1.21v2.36h2.52v5.21h-.9v-.52h-3.6v.56h-.86v-5.25h1.94v-5.7h.9v2.48h3.02v.85h-3.02Zm1.62,3.2h-3.6v3.01h3.6v-3.01Z"/>
    </g>
    <line class="cls-4" x1="11.88" y1="38.07" x2="11.88" y2="366.78"/>
    <line class="cls-5" x1="2" y1="38.07" x2="2" y2="366.78"/>
    <g>
      <path class="cls-1" d="m102.3,331.11c-.96,1.44-2.23,2.57-3.8,3.38-1.57.82-3.33,1.22-5.27,1.22-2.45,0-4.6-.59-6.44-1.78-1.85-1.19-3.28-2.86-4.3-5.02-1.02-2.16-1.53-4.66-1.53-7.49s.51-5.23,1.53-7.34c1.02-2.11,2.45-3.75,4.3-4.91s4-1.75,6.44-1.75c1.9,0,3.65.41,5.26,1.22,1.61.82,2.88,1.94,3.82,3.38l-2.23,1.58c-.74-1.08-1.75-1.94-3.02-2.59-1.27-.65-2.56-.97-3.85-.97-1.85,0-3.48.47-4.9,1.42-1.42.95-2.51,2.28-3.29,4-.78,1.72-1.17,3.7-1.17,5.96s.39,4.34,1.17,6.1c.78,1.76,1.88,3.13,3.29,4.1,1.42.97,3.05,1.46,4.9,1.46,1.32,0,2.59-.32,3.82-.97,1.22-.65,2.24-1.54,3.06-2.66l2.23,1.66Z"/>
      <path class="cls-1" d="m109.77,334.49c-1.31-.82-2.32-1.98-3.02-3.49-.71-1.51-1.06-3.28-1.06-5.29s.35-3.78,1.06-5.29c.71-1.51,1.72-2.68,3.02-3.49,1.31-.82,2.83-1.22,4.55-1.22s3.25.41,4.55,1.22c1.31.82,2.32,1.98,3.02,3.49.71,1.51,1.06,3.28,1.06,5.29s-.35,3.78-1.06,5.29c-.71,1.51-1.72,2.68-3.02,3.49-1.31.82-2.83,1.22-4.55,1.22s-3.25-.41-4.55-1.22Zm8.84-3.33c1.08-1.36,1.62-3.17,1.62-5.45s-.54-4.1-1.62-5.45c-1.08-1.36-2.51-2.03-4.28-2.03s-3.2.68-4.28,2.03c-1.08,1.36-1.62,3.17-1.62,5.45s.54,4.1,1.62,5.45c1.08,1.36,2.51,2.03,4.28,2.03s3.2-.68,4.28-2.03Z"/>
      <path class="cls-1" d="m127.28,343.82v-27.61h2.66v3.02h.18c.7-1.1,1.58-1.97,2.66-2.59,1.08-.62,2.26-.94,3.53-.94,1.54,0,2.92.41,4.16,1.24,1.24.83,2.2,1.98,2.9,3.46.7,1.48,1.04,3.15,1.04,5.02,0,1.97-.35,3.73-1.04,5.29-.7,1.56-1.66,2.78-2.9,3.65-1.24.88-2.62,1.31-4.16,1.31-1.37,0-2.58-.3-3.64-.9s-1.91-1.46-2.56-2.59h-.18v11.63h-2.66Zm3.29-14.27c.49,1.12,1.18,1.99,2.05,2.61.88.62,1.88.94,3.01.94s2.19-.31,3.11-.94c.92-.62,1.65-1.49,2.18-2.61.53-1.12.79-2.39.79-3.83s-.26-2.68-.77-3.8c-.52-1.12-1.23-1.99-2.14-2.63-.91-.64-1.94-.95-3.1-.95s-2.14.32-3.02.95c-.89.64-1.58,1.51-2.09,2.63s-.76,2.38-.76,3.8.25,2.72.74,3.83Z"/>
      <path class="cls-1" d="m153.28,335.21l-7.42-19.01h3.02l5.9,15.66h.22l5.69-15.66h3.02l-10.69,27.65h-2.99l3.24-8.64Z"/>
      <path class="cls-1" d="m166.56,335.21v-19.01h2.66v3.82h.18c.77-1.32,1.78-2.37,3.02-3.15,1.25-.78,2.65-1.17,4.21-1.17h.29v2.88h-.36c-1.46,0-2.75.27-3.87.81-1.12.54-1.97,1.25-2.57,2.12-.6.88-.9,1.79-.9,2.75v10.94h-2.66Z"/>
      <path class="cls-1" d="m183.07,310.66c-.35.34-.81.5-1.39.5s-1.03-.17-1.35-.5c-.32-.34-.49-.79-.49-1.37s.16-1.03.49-1.37c.32-.34.77-.5,1.35-.5s1.04.17,1.39.5c.35.34.52.79.52,1.37s-.17,1.03-.52,1.37Zm-.02,5.54v19.04h-2.66v-19.04h2.66Z"/>
      <path class="cls-1" d="m191.72,343.24c-1.39-.7-2.5-1.67-3.31-2.92l2.23-1.51c.6.94,1.43,1.67,2.48,2.2,1.06.53,2.14.79,3.24.79,1.87,0,3.32-.57,4.36-1.71,1.03-1.14,1.55-2.74,1.55-4.81v-3.1h-.22c-.62,1.13-1.46,2-2.52,2.61-1.06.61-2.24.92-3.56.92-1.54,0-2.93-.44-4.18-1.31-1.25-.88-2.23-2.09-2.95-3.64-.72-1.55-1.08-3.29-1.08-5.24s.35-3.59,1.06-5.09c.71-1.5,1.69-2.66,2.95-3.49,1.26-.83,2.66-1.24,4.19-1.24,1.22,0,2.36.31,3.42.94,1.06.62,1.94,1.49,2.66,2.59h.22v-2.99h2.66v18.61c0,3.02-.74,5.35-2.21,6.98s-3.59,2.45-6.35,2.45c-1.7,0-3.25-.35-4.64-1.04Zm7.88-11.09c.86-.62,1.54-1.49,2.02-2.61s.72-2.39.72-3.83-.25-2.69-.74-3.82c-.49-1.13-1.18-2-2.07-2.63-.89-.62-1.9-.94-3.02-.94s-2.18.31-3.1.94c-.91.62-1.63,1.49-2.14,2.61-.52,1.12-.77,2.39-.77,3.83s.26,2.72.79,3.83c.53,1.12,1.25,1.99,2.18,2.61.92.62,1.97.94,3.15.94s2.12-.31,2.99-.94Z"/>
      <path class="cls-1" d="m210.19,335.21v-27.29h2.66v11.2h.18c.58-1.03,1.43-1.86,2.56-2.48,1.13-.62,2.3-.94,3.53-.94,2.11,0,3.77.66,4.97,1.98,1.2,1.32,1.8,3.17,1.8,5.54v11.99h-2.66v-11.56c0-1.66-.45-2.99-1.35-4s-2.03-1.51-3.4-1.51c-1.66,0-3.01.55-4.05,1.64-1.04,1.09-1.57,2.48-1.57,4.16v11.27h-2.66Z"/>
      <path class="cls-1" d="m240.25,318.72h-5.51v11.2c0,1.1.28,1.96.83,2.57.55.61,1.32.92,2.3.92.5,0,1.15-.13,1.94-.4v2.48c-.65.26-1.48.4-2.48.4-1.7,0-3.01-.5-3.92-1.49-.91-1-1.37-2.42-1.37-4.27v-11.41h-2.99v-2.52h2.99v-5.94h2.7v5.94h5.51v2.52Z"/>
      <path class="cls-1" d="m262.21,333.92c-2.16-1.2-3.84-2.87-5.04-5.02-1.2-2.15-1.8-4.59-1.8-7.33s.6-5.18,1.8-7.33c1.2-2.15,2.88-3.82,5.04-5.02,2.16-1.2,4.61-1.8,7.34-1.8s5.17.6,7.31,1.8c2.14,1.2,3.8,2.88,5,5.02,1.2,2.15,1.8,4.59,1.8,7.33s-.6,5.18-1.8,7.33c-1.2,2.15-2.87,3.82-5,5.02-2.14,1.2-4.57,1.8-7.31,1.8s-5.18-.6-7.34-1.8Zm13.79-1.35c1.9-1.07,3.38-2.56,4.45-4.48,1.07-1.92,1.6-4.09,1.6-6.52s-.53-4.6-1.6-6.52c-1.07-1.92-2.55-3.41-4.45-4.48-1.9-1.07-4.04-1.6-6.44-1.6s-4.58.53-6.48,1.6-3.38,2.56-4.45,4.48c-1.07,1.92-1.6,4.09-1.6,6.52s.53,4.6,1.6,6.52c1.07,1.92,2.55,3.41,4.45,4.48,1.9,1.07,4.06,1.6,6.48,1.6s4.55-.53,6.44-1.6Zm-10.44-2.72c-1.25-.79-2.21-1.91-2.9-3.37-.68-1.45-1.03-3.13-1.03-5.02s.34-3.52,1.03-4.93c.68-1.42,1.65-2.51,2.9-3.28,1.25-.77,2.69-1.15,4.32-1.15,1.37,0,2.63.32,3.78.95,1.15.64,2.03,1.49,2.63,2.57l-2.16,1.51c-.41-.7-1.01-1.28-1.8-1.75-.79-.47-1.61-.7-2.45-.7-1.66,0-2.98.62-3.98,1.85-1,1.24-1.49,2.88-1.49,4.91s.5,3.8,1.49,5.08c1,1.27,2.32,1.91,3.98,1.91.84,0,1.65-.23,2.43-.68.78-.46,1.4-1.07,1.85-1.84l2.12,1.58c-.62,1.1-1.51,1.97-2.65,2.59-1.14.62-2.39.94-3.76.94-1.63,0-3.07-.4-4.32-1.19Z"/>
      <path class="cls-1" d="m318.37,319.16v-11.56h4.07v27.83h-4.07v-12.46h-13.32v12.46h-4.07v-27.83h4.07v11.56h13.32Z"/>
      <path class="cls-1" d="m344.18,315.63v19.8h-3.92v-2.66h-.22c-.6.96-1.43,1.73-2.5,2.3s-2.2.86-3.4.86c-2.11,0-3.77-.66-4.97-1.98-1.2-1.32-1.8-3.18-1.8-5.58v-12.74h3.96v11.99c0,1.42.38,2.56,1.15,3.42.77.86,1.75,1.3,2.95,1.3,1.44,0,2.6-.46,3.49-1.39.89-.92,1.33-2.15,1.33-3.69v-11.63h3.92Z"/>
      <path class="cls-1" d="m349.83,334.42c-1.13-1.01-1.69-2.36-1.69-4.07,0-2.14.84-3.76,2.52-4.88,1.68-1.12,4.07-1.67,7.16-1.67h2.52v-1.26c0-1.22-.37-2.19-1.1-2.9-.73-.71-1.71-1.06-2.93-1.06-1.58,0-3.12.71-4.61,2.12l-2.45-2.3c2.04-2.18,4.5-3.28,7.38-3.28,2.33,0,4.18.65,5.56,1.94,1.38,1.3,2.07,3.02,2.07,5.18v13.18h-3.92v-2.63h-.22c-.5.96-1.28,1.72-2.34,2.29-1.06.56-2.2.85-3.42.85-1.9,0-3.41-.5-4.54-1.51Zm7.79-2.38c.78-.31,1.43-.8,1.94-1.46s.77-1.47.77-2.43v-.94h-1.91c-2.14,0-3.71.23-4.73.7-1.02.47-1.53,1.19-1.53,2.18,0,.72.28,1.3.85,1.75.56.44,1.33.67,2.29.67.77,0,1.54-.16,2.32-.47Z"/>
      <path class="cls-1" d="m373.11,310.95c-.47.46-1.09.68-1.85.68s-1.34-.23-1.78-.68c-.44-.46-.67-1.07-.67-1.84s.22-1.38.67-1.84c.44-.46,1.04-.68,1.78-.68s1.39.23,1.85.68c.47.46.7,1.07.7,1.84s-.23,1.38-.7,1.84Zm.16,4.68v19.8h-3.92v-19.8h3.92Z"/>
      <path class="cls-1" d="m399.19,335.43h-4.79l-6.3-11.12h-5.22v11.12h-4.07v-27.83h8.5c3.38,0,6,.74,7.85,2.21,1.85,1.48,2.77,3.55,2.77,6.21,0,1.92-.49,3.54-1.48,4.86-.98,1.32-2.4,2.26-4.25,2.81l6.98,11.74Zm-16.31-14.9h4c2.18,0,3.87-.39,5.06-1.17,1.19-.78,1.78-1.89,1.78-3.33s-.59-2.63-1.76-3.44c-1.18-.8-2.87-1.21-5.08-1.21h-4v9.14Z"/>
      <path class="cls-1" d="m418.12,326.82h-13.5c.19,1.78.76,3.17,1.71,4.18.95,1.01,2.23,1.51,3.83,1.51.94,0,1.81-.25,2.63-.74.82-.49,1.5-1.19,2.05-2.11l3.17,1.76c-.79,1.44-1.85,2.55-3.17,3.33-1.32.78-2.88,1.17-4.68,1.17-1.97,0-3.67-.42-5.11-1.26-1.44-.84-2.55-2.03-3.33-3.58-.78-1.55-1.17-3.37-1.17-5.45s.37-4,1.12-5.58c.74-1.58,1.81-2.8,3.2-3.65,1.39-.85,3.02-1.28,4.9-1.28,2.66,0,4.77.79,6.32,2.38,1.55,1.58,2.32,3.73,2.32,6.44,0,1.13-.1,2.09-.29,2.88Zm-3.71-3.38c0-1.49-.42-2.68-1.26-3.56-.84-.89-1.97-1.33-3.38-1.33-1.32,0-2.41.43-3.28,1.28-.86.85-1.44,2.06-1.73,3.62h9.65Z"/>
      <path class="cls-1" d="m422.41,335.43v-19.8h3.92v2.74h.18c.6-.98,1.43-1.77,2.5-2.36,1.07-.59,2.2-.88,3.4-.88,2.14,0,3.8.67,4.99,2s1.78,3.21,1.78,5.63v12.67h-3.92v-11.95c0-1.42-.38-2.55-1.15-3.4-.77-.85-1.75-1.28-2.95-1.28-1.44,0-2.6.46-3.49,1.39-.89.92-1.33,2.15-1.33,3.69v11.56h-3.92Z"/>
      <path class="cls-1" d="m477.45,335.21h-2.95l-3.31-9.32h-10.15l-3.31,9.32h-2.95l9.86-27.29h2.92l9.9,27.29Zm-11.45-23.22l-4,11.23h8.21l-4-11.23h-.22Z"/>
      <path class="cls-1" d="m480.58,307.92h2.66v23.54c0,1.03.5,1.55,1.51,1.55h1.01v2.48h-1.58c-2.4,0-3.6-1.1-3.6-3.31v-24.26Z"/>
      <path class="cls-1" d="m489.37,307.92h2.66v23.54c0,1.03.5,1.55,1.51,1.55h1.01v2.48h-1.58c-2.4,0-3.6-1.1-3.6-3.31v-24.26Z"/>
      <path class="cls-1" d="m530.19,335.21h-3.28l-6.91-11.7h-6.01v11.7h-2.77v-27.29h7.7c3.26,0,5.78.68,7.54,2.05,1.76,1.37,2.65,3.31,2.65,5.83,0,1.94-.53,3.53-1.6,4.77s-2.61,2.09-4.63,2.57l7.31,12.06Zm-11.48-14.36c2.42,0,4.28-.44,5.58-1.31,1.3-.88,1.94-2.12,1.94-3.73s-.65-2.98-1.94-3.89c-1.3-.91-3.16-1.37-5.58-1.37h-4.72v10.3h4.72Z"/>
      <path class="cls-1" d="m536.69,310.66c-.35.34-.81.5-1.39.5s-1.03-.17-1.35-.5c-.32-.34-.49-.79-.49-1.37s.16-1.03.49-1.37c.32-.34.77-.5,1.35-.5s1.04.17,1.39.5c.35.34.52.79.52,1.37s-.17,1.03-.52,1.37Zm-.02,5.54v19.04h-2.66v-19.04h2.66Z"/>
      <path class="cls-1" d="m545.35,343.24c-1.39-.7-2.5-1.67-3.31-2.92l2.23-1.51c.6.94,1.43,1.67,2.48,2.2,1.06.53,2.14.79,3.24.79,1.87,0,3.32-.57,4.36-1.71,1.03-1.14,1.55-2.74,1.55-4.81v-3.1h-.22c-.62,1.13-1.46,2-2.52,2.61-1.06.61-2.24.92-3.56.92-1.54,0-2.93-.44-4.18-1.31-1.25-.88-2.23-2.09-2.95-3.64-.72-1.55-1.08-3.29-1.08-5.24s.35-3.59,1.06-5.09c.71-1.5,1.69-2.66,2.95-3.49,1.26-.83,2.66-1.24,4.19-1.24,1.22,0,2.36.31,3.42.94,1.06.62,1.94,1.49,2.66,2.59h.22v-2.99h2.66v18.61c0,3.02-.74,5.35-2.21,6.98s-3.59,2.45-6.35,2.45c-1.7,0-3.25-.35-4.64-1.04Zm7.88-11.09c.86-.62,1.54-1.49,2.02-2.61s.72-2.39.72-3.83-.25-2.69-.74-3.82c-.49-1.13-1.18-2-2.07-2.63-.89-.62-1.9-.94-3.02-.94s-2.18.31-3.1.94c-.91.62-1.63,1.49-2.14,2.61-.52,1.12-.77,2.39-.77,3.83s.26,2.72.79,3.83c.53,1.12,1.25,1.99,2.18,2.61.92.62,1.97.94,3.15.94s2.12-.31,2.99-.94Z"/>
      <path class="cls-1" d="m563.81,335.21v-27.29h2.66v11.2h.18c.58-1.03,1.43-1.86,2.56-2.48,1.13-.62,2.3-.94,3.53-.94,2.11,0,3.77.66,4.97,1.98,1.2,1.32,1.8,3.17,1.8,5.54v11.99h-2.66v-11.56c0-1.66-.45-2.99-1.35-4s-2.03-1.51-3.4-1.51c-1.66,0-3.01.55-4.05,1.64-1.04,1.09-1.57,2.48-1.57,4.16v11.27h-2.66Z"/>
      <path class="cls-1" d="m593.87,318.72h-5.51v11.2c0,1.1.28,1.96.83,2.57.55.61,1.32.92,2.3.92.5,0,1.15-.13,1.94-.4v2.48c-.65.26-1.48.4-2.48.4-1.7,0-3.01-.5-3.92-1.49-.91-1-1.37-2.42-1.37-4.27v-11.41h-2.99v-2.52h2.99v-5.94h2.7v5.94h5.51v2.52Z"/>
      <path class="cls-1" d="m598.37,334.58c-1.3-.76-2.29-1.78-2.99-3.08l2.27-1.33c.58.98,1.33,1.75,2.25,2.29s1.99.81,3.19.81c1.3,0,2.32-.26,3.08-.77.76-.52,1.13-1.22,1.13-2.11,0-.84-.37-1.52-1.12-2.05-.74-.53-1.96-.97-3.64-1.33-2.21-.53-3.86-1.22-4.95-2.09-1.09-.86-1.64-2-1.64-3.42,0-1.78.62-3.19,1.85-4.23,1.24-1.04,2.92-1.57,5.06-1.57,1.58,0,2.98.34,4.19,1.03,1.21.68,2.21,1.66,3.01,2.93l-2.12,1.51c-.62-.98-1.37-1.73-2.25-2.25-.88-.52-1.83-.77-2.86-.77-1.25,0-2.24.28-2.99.83-.74.55-1.12,1.28-1.12,2.2,0,.79.4,1.46,1.21,2.02.8.55,2.01,1.02,3.62,1.4,4.32.94,6.48,2.72,6.48,5.36,0,1.78-.63,3.18-1.89,4.21-1.26,1.03-2.97,1.55-5.13,1.55-1.8,0-3.35-.38-4.64-1.13Z"/>
      <path class="cls-1" d="m645.86,335.21h-3.28l-6.91-11.7h-6.01v11.7h-2.77v-27.29h7.7c3.26,0,5.78.68,7.54,2.05,1.76,1.37,2.65,3.31,2.65,5.83,0,1.94-.53,3.53-1.6,4.77s-2.61,2.09-4.63,2.57l7.31,12.06Zm-11.48-14.36c2.42,0,4.28-.44,5.58-1.31,1.3-.88,1.94-2.12,1.94-3.73s-.65-2.98-1.94-3.89c-1.3-.91-3.16-1.37-5.58-1.37h-4.72v10.3h4.72Z"/>
      <path class="cls-1" d="m664.11,326.46h-13.75c.12,2.06.74,3.71,1.85,4.93,1.12,1.22,2.57,1.84,4.37,1.84,1.06,0,2.04-.25,2.95-.76.91-.5,1.67-1.24,2.27-2.2l2.12,1.44c-.79,1.27-1.81,2.25-3.04,2.93-1.24.68-2.67,1.03-4.3,1.03-1.82,0-3.41-.4-4.77-1.21-1.36-.8-2.39-1.96-3.11-3.46-.72-1.5-1.08-3.26-1.08-5.27s.35-3.82,1.04-5.33c.7-1.51,1.69-2.68,2.99-3.49,1.3-.82,2.82-1.22,4.57-1.22,2.47,0,4.44.77,5.9,2.32,1.46,1.55,2.2,3.62,2.2,6.21,0,.77-.07,1.51-.22,2.23Zm-2.52-2.41c0-1.78-.49-3.2-1.48-4.28-.98-1.08-2.28-1.62-3.89-1.62s-2.81.53-3.83,1.58c-1.02,1.06-1.66,2.5-1.93,4.32h11.12Z"/>
      <path class="cls-1" d="m670.12,334.58c-1.3-.76-2.29-1.78-2.99-3.08l2.27-1.33c.58.98,1.33,1.75,2.25,2.29s1.99.81,3.19.81c1.3,0,2.32-.26,3.08-.77.76-.52,1.13-1.22,1.13-2.11,0-.84-.37-1.52-1.12-2.05-.74-.53-1.96-.97-3.64-1.33-2.21-.53-3.86-1.22-4.95-2.09-1.09-.86-1.64-2-1.64-3.42,0-1.78.62-3.19,1.85-4.23,1.24-1.04,2.92-1.57,5.06-1.57,1.58,0,2.98.34,4.19,1.03,1.21.68,2.21,1.66,3.01,2.93l-2.12,1.51c-.62-.98-1.37-1.73-2.25-2.25-.88-.52-1.83-.77-2.86-.77-1.25,0-2.24.28-2.99.83-.74.55-1.12,1.28-1.12,2.2,0,.79.4,1.46,1.21,2.02.8.55,2.01,1.02,3.62,1.4,4.32.94,6.48,2.72,6.48,5.36,0,1.78-.63,3.18-1.89,4.21-1.26,1.03-2.97,1.55-5.13,1.55-1.8,0-3.35-.38-4.64-1.13Z"/>
      <path class="cls-1" d="m701.12,326.46h-13.75c.12,2.06.74,3.71,1.85,4.93,1.12,1.22,2.57,1.84,4.37,1.84,1.06,0,2.04-.25,2.95-.76.91-.5,1.67-1.24,2.27-2.2l2.12,1.44c-.79,1.27-1.81,2.25-3.04,2.93-1.24.68-2.67,1.03-4.3,1.03-1.82,0-3.41-.4-4.77-1.21-1.36-.8-2.39-1.96-3.11-3.46-.72-1.5-1.08-3.26-1.08-5.27s.35-3.82,1.04-5.33c.7-1.51,1.69-2.68,2.99-3.49,1.3-.82,2.82-1.22,4.57-1.22,2.47,0,4.44.77,5.9,2.32,1.46,1.55,2.2,3.62,2.2,6.21,0,.77-.07,1.51-.22,2.23Zm-2.52-2.41c0-1.78-.49-3.2-1.48-4.28-.98-1.08-2.28-1.62-3.89-1.62s-2.81.53-3.83,1.58c-1.02,1.06-1.66,2.5-1.93,4.32h11.12Z"/>
      <path class="cls-1" d="m705.65,335.21v-19.01h2.66v3.82h.18c.77-1.32,1.78-2.37,3.02-3.15,1.25-.78,2.65-1.17,4.21-1.17h.29v2.88h-.36c-1.46,0-2.75.27-3.87.81-1.12.54-1.97,1.25-2.57,2.12-.6.88-.9,1.79-.9,2.75v10.94h-2.66Z"/>
      <path class="cls-1" d="m723.98,335.21l-7.31-19.01h2.92l5.8,15.62h.22l5.8-15.62h2.88l-7.38,19.01h-2.92Z"/>
      <path class="cls-1" d="m752.24,326.46h-13.75c.12,2.06.74,3.71,1.85,4.93,1.12,1.22,2.57,1.84,4.37,1.84,1.06,0,2.04-.25,2.95-.76.91-.5,1.67-1.24,2.27-2.2l2.12,1.44c-.79,1.27-1.81,2.25-3.04,2.93-1.24.68-2.67,1.03-4.3,1.03-1.82,0-3.41-.4-4.77-1.21-1.36-.8-2.39-1.96-3.11-3.46-.72-1.5-1.08-3.26-1.08-5.27s.35-3.82,1.04-5.33c.7-1.51,1.69-2.68,2.99-3.49,1.3-.82,2.82-1.22,4.57-1.22,2.47,0,4.44.77,5.9,2.32,1.46,1.55,2.2,3.62,2.2,6.21,0,.77-.07,1.51-.22,2.23Zm-2.52-2.41c0-1.78-.49-3.2-1.48-4.28-.98-1.08-2.28-1.62-3.89-1.62s-2.81.53-3.83,1.58c-1.02,1.06-1.66,2.5-1.93,4.32h11.12Z"/>
      <path class="cls-1" d="m773.01,335.21h-2.66v-3.02h-.22c-.62,1.13-1.46,2-2.52,2.61-1.06.61-2.24.92-3.56.92-1.56,0-2.96-.44-4.21-1.31-1.25-.88-2.23-2.09-2.93-3.64-.71-1.55-1.06-3.29-1.06-5.24s.35-3.59,1.06-5.09c.71-1.5,1.69-2.66,2.93-3.49,1.25-.83,2.65-1.24,4.21-1.24,1.22,0,2.36.31,3.42.94,1.06.62,1.94,1.49,2.66,2.59h.22v-11.3h2.66v27.29Zm-3.35-13.32c-.5-1.13-1.2-2-2.09-2.63-.89-.62-1.9-.94-3.02-.94s-2.18.31-3.08.94c-.9.62-1.61,1.49-2.12,2.61-.52,1.12-.77,2.39-.77,3.83s.26,2.72.77,3.83c.52,1.12,1.24,1.99,2.16,2.61s1.97.94,3.15.94c1.1,0,2.09-.31,2.97-.94.88-.62,1.56-1.49,2.05-2.61.49-1.12.74-2.39.74-3.83s-.25-2.69-.76-3.82Z"/>
      <path class="cls-1" d="m778.26,335.21v-3.49h3.46v3.49h-3.46Z"/>
    </g>
  </g>
  <g id="_线路" data-name="线路">
    <g id="_1" data-name="1">
      <polyline class="cls-6" points="3151.73 3038.14 3225.66 3089.12 3344.96 3164.27 3372.81 3176.88 3397.51 3184.77 3496.31 3208.94 3566.74 3199.48 3653.45 3199.48 3687.61 3191.07 3723.35 3182.66 3787.99 3186.34 3831.61 3191.6 3867.35 3186.87 3881.54 3190.55 3906.77 3216.82 3923.58 3224.18 3944.61 3221.55 3991.9 3216.3 4032.9 3211.04 4090.71 3212.62 4153.77 3217.35 4156.44 3209.12 4158.94 3207.63 4190.04 3209.99 4239.96 3200.01 4262.56 3212.62 4271.54 3212.97 4277.98 3206.77 4282.49 3207.67 4282.79 3213.19 4330.88 3235.74 4345.6 3193.7 4408.66 3003.98 4417.07 2958.26 4419.17 2913.58 4419.17 2877.85 4414.44 2847.36 4402.88 2817.93 4386.06 2767.48 4297.77 2588.27 4291.99 2563.57 4295.15 2539.92 4302.5 2518.9 4319.32 2427.98 4339.29 2164.15 4335.09 2147.34 4283.58 2083.22 4131.17 1896.12 4071.79 1836.74 4051.82 1826.23 4032.37 1822.55 3988.23 1807.83 3945.13 1794.69 3842.12 1716.39 3806.91 1691.69 3768.55 1649.12 3707.58 1572.91 3548.34 1440.47 3339.17 1730.05 3331.82 1723.74 3229.33 1650.17 3138.42 1595.51 3027.52 1551.89 2930.82 1802.05 2861.79 1774.85 2848.31 1810.46"/>
      <polyline class="cls-6" points="4271.43 3213.45 4273.01 3219.15 4276.4 3219.82 4279.99 3217.74 4282.79 3213.19"/>
      <polyline class="cls-6" points="4153.29 3217.31 4155.51 3221.69 4190.82 3224.71 4195.42 3219.45 4195.99 3213.15 4195.72 3208.86"/>
      <polyline class="cls-6" points="2861.79 1774.85 2933.98 1601.47 2997.41 1628.09"/>
    </g>
    <g id="_2" data-name="2">
      <polyline class="cls-6" points="2853.39 3259.74 2982.33 3164.27 3014.78 3134.58 3062.08 3074.93 3102.85 3015.54 3107.76 3010.2 3151.63 3038.06"/>
      <polyline class="cls-6" points="4419.17 2900.97 4429.77 2897.99 4433.23 2890.59 4434.81 2877.72 4437.31 2856.96 4440.72 2824.24 4445.06 2792.97 4457.01 2716.64 4466.34 2648.71 4476.85 2579.99 4482.59 2514.17 4482.59 2434.99 4476.98 2377.18 4460.96 2309.73 4452.28 2288.97 4412.08 2208.82 4388.17 2176.5 4363.07 2152.07 4345.6 2138.14 4333.38 2131.83 4319.19 2127.55"/>
      <polyline class="cls-6" points="4240.66 2030.53 4191.09 2046.17 4146.68 2060.62 4073.36 2082.43 4018.71 2033.29 4029.48 1928.45 4037.1 1831.74 4037.63 1776.56 4032.63 1711.39 4028.43 1660.94 4025.54 1559.51 3988.75 1458.61 3955.12 1370.58 3946.71 1343.51 3927.52 1249.18 3884.69 1105.7 3866.04 1045.26 3770.91 1067.34 3729.92 951.45 3715.47 910.72"/>
    </g>
    <g id="_3" data-name="3">
      <polyline class="cls-6" points="2968.18 1705.42 3055.55 1745.82 3162.42 1794.52 3271.73 1853.38 3449.71 1954.64 3633.74 2054.14 3616.49 2089.18 3614.04 2111.25 3625.95 2142.08 3683.76 2272.42 3725.35 2304.84 3803.96 2188 3814.37 2174.42 3816.47 2175.42 3818.38 2176.08 3820.87 2176.55 3823.37 2176.64 3827.47 2175.91 3831.04 2173.98 3833.04 2172.35 3834.72 2170.43 3836.5 2167.29 3837.25 2165.01 3837.61 2162.88 3837.69 2160.11 3837.08 2157.12 3834.57 2151.74 4073.36 2082.43"/>
      <polyline class="cls-6" points="4666.71 4093.96 4660.05 4065.93 4629.22 3944.71 4621.51 3918.61 4619.23 3893.2 4620.63 3881.47 4625.19 3866.4 4633.6 3850.11 4653.74 3830.14 4679.32 3804.21 4692.63 3787.57 4699.29 3773.38 4701.22 3749.2 4698.06 3678.78 4724.87 3673.88 4757.45 3663.89 4784.43 3645.5 4817.54 3615.19 4809.83 3583.31 4808.43 3574.9 4803.88 3565.79 4797.39 3558.96 4780.05 3553 4749.22 3541.26 4733.98 3529.7 4715.93 3508.68 4698.77 3476.45 4679.15 3428.97 4678.62 3408.47 4682.82 3387.63 4693.33 3322.11 4693.51 3281.64 4681.42 3242.23 4665.48 3200.01 4662.33 3185.82 4667.58 3176.18 4680.72 3161.82 4719.79 3118.37 4730.82 3102.61 4722.94 3078.26 4722.59 3066.87 4744.31 3029.03 4744.31 2987.34 4714.53 2975.25 4685.89 2952.21 4657.77 2923.57 4616.25 2913.06 4587.61 2911.22 4396.58 2913.06 4349.8 2910.43 4310.12 2902.81 4259.41 2902.81 4251.44 2895.28 4250.93 2868.66 4257.83 2860.5 4282.53 2840.8 4386.06 2767.48"/>
      <polyline class="cls-6" points="3834.8 2152.23 3831.45 2149.1 3828.26 2147.3 3824.82 2146.34 3822.94 2146.15 3820.41 2146.29 3816.55 2147.34 3813.4 2149.12 3811.79 2150.42 3810.28 2152.21 3808.76 2154.68 3808.04 2156.42 3807.49 2158.44 3807.23 2160.6 3807.42 2163.28 3807.73 2165.38 3808.35 2167.19 3809.44 2169.28 3811.48 2171.98 3814.37 2174.42"/>
    </g>
    <g id="_4" data-name="4">
      <polyline class="cls-6" points="5229.04 1279.39 5210.25 1290.17 5169.26 1320.26 5128.14 1362.56 5123.28 1368.34 5053.51 1406.05 5013.7 1430.88 5002.93 1442.58 4984.66 1452.56 4941.57 1469.25 4887.44 1482.65 4877.19 1486.85 4848.28 1501.44 4817.01 1529.69 4800.85 1546.77 4785.61 1561.22 4770.37 1569.36 4746.72 1579.74 4678.27 1605.5 4666.71 1612.5 4651.47 1619.86 4634.12 1634.93 4582.97 1685.03 4515.35 1752.82 4463.32 1803.1 4485.04 1835.69 4495.55 1859.86 4498.88 1880.18 4496.96 1956.91 4496.43 2059.57 4498.36 2072.01 4499.23 2079.72 4507.64 2094.61 4535.5 2136.12 4539 2145.23 4541.8 2180.8 4541.1 2223.89 4546.71 2272.07 4564.75 2326.72 4582.44 2377.7 4592.08 2421.99 4620.59 2600.09 4620.2 2609.03 4615.73 2637.41 4606.66 2699.55 4588.14 2823.32 4582.23 2887.44 4583.54 2906.23 4589.45 2925.28 4592.34 2930.93 4613.1 2927.51 4616.25 2913.06"/>
      <polyline class="cls-6" points="4282.49 3207.67 4285.82 3200.53 4263.09 3162.96 4263.09 3092.8 4258.88 3037.74 4255.33 2991.5 4252.84 2945.64 4250.84 2909.12 4251.44 2895.28"/>
      <polyline class="cls-6" points="4330.88 3235.74 4355.85 3246.65 4386.98 3252.69 4407.74 3254.27 4418.39 3255.98"/>
    </g>
    <g id="_5" data-name="5">
      <polyline class="cls-6" points="4356.77 2168.36 4347.44 2153.51 4342.44 2149.96 4334.08 2146.09"/>
      <polyline class="cls-6" points="4240.66 2030.53 4259.58 2013.67 4335.48 1934.36 4388.69 1880.18 4443.88 1820.45 4463.32 1803.1 4458.85 1796.8 4445.85 1777.61 4432.71 1748.84 4424.43 1726.37 4418.12 1706.8 4414.18 1688.93 4404.46 1644.65 4384.66 1576.59 4350.5 1465 4339.12 1428.21 4333.16 1402.11 4330.71 1359.89 4339.82 1241.82 4342.97 1170.61 4346.39 1114.64 4349.28 1065.23 4346.12 1021.09 4330.88 945.15 4330.88 927.54 4373.19 832.42 4413.13 740.97 4448.61 675.45 4458.59 656.01 4484.87 624.3 4485.57 610.64 4483.64 604.68 4443.88 555.1 4438.27 544.42 4436.69 530.23 4437.04 520.07 4442.12 494.14 4449.31 459.8 4459.82 379.39 4488.02 215.95 4495.73 149.2"/>
    </g>
    <g id="_6" data-name="6">
      <polyline class="cls-6" points="3807.49 2158.44 3798.33 2151.89 3723.74 2102.4 3669.74 2074.68 3633.74 2054.14 3636.77 2044.07 3650.56 1961.29 3676.05 1777.09 3697.86 1625.99 3707.85 1559.25 3721.51 1451.51 3731.06 1401.85 3731.06 1297.79 3734.56 1225.88 3821.1 1208.71 3770.91 1067.34"/>
      <polyline class="cls-6" points="3824.82 2146.34 3824.82 2108.45 3824.82 2033.55 3827.15 1961.82 3829.25 1883.51 3882.33 1923.45 3987.7 2008.85 4018.71 2033.29"/>
      <polyline class="cls-6" points="4072.67 2081.81 4105.55 2107.26 4129.99 2124.74 4151.28 2146.34 4162.05 2161.39 4192.66 2214.08 4202.39 2252.71 4203.44 2296.07 4179.26 2366.23 4116.72 2493.67 4192.66 2516.27 4243.9 2531.51 4265.45 2543.34 4295.64 2579.17"/>
      <path class="cls-6" d="m3797.38,3187.47l-.1-10.07-2.45-11.04-3.42-16.55v-8.67l6.96-17.87s22.86-25.36,23.12-25.75,8.15-9.07,8.15-9.07l15.11-8.28,15.11-2.89,12.88,1.71,12.74,5.91,17.61,5.65,48.88,1.84,8.15-8.15,8.8-17.87,11.43-16.69,24.83-22.2,19.45-10.51,51.9-1.45,12.61.39,14.32,8.8,10.64,1.05,15.9-6.57,38.76-18.53,10.38-1.84,6.96,1.97,9.33,5.65,5.52,6.83,22.73,28.12,21.28,8.41,15.05,2.58"/>
    </g>
    <g id="_7" data-name="7">
      <polyline class="cls-6" points="3725.35 2304.84 3701.01 2343.1 3692.61 2357.29 3684.98 2384.36 3680.25 2415.89 3672.9 2456.62 3661.33 2497.09 3644.25 2541.5 3607.47 2622.17 3583.29 2676.3 3569.36 2707.57 3553.07 2732.53 3539.15 2745.67 3518.39 2765.38 3407.76 2838.17 3326.82 2890.2 3291.61 2914.9 3281.1 2927.25 3260.08 2950.64 3250.09 2972.45 3245.63 2993.47 3243.26 3015.01 3240.37 3047.07 3230.91 3073.61 3223.62 3087.71 3219.88 3119.86 3212.87 3254.66 3203.85 3430.72 3208.31 3465.41 3213.57 3495.1 3225.92 3521.12 3246.68 3558.69 3270.59 3585.23 3288.46 3601.79 3326.56 3634.11 3442.97 3732.65 3522.06 3799.13 3535.73 3809.38 3530.21 3817.26 3472.14 3887.69 3344.17 3962.31 3263.23 4010.4 3325.25 4105.79 3429.31 4040.88 3454.53 4078.99 3366.24 4134.17"/>
      <polyline class="cls-6" points="3829.25 1883.51 3831.61 1796.53 3835.29 1725.85 3838.71 1667.77 3843.7 1576.07 3846.85 1469.12 3850.01 1422.08 3852.11 1396.59 3855.79 1380.04 3858.68 1370.58 3858.68 1353.23 3853.42 1317.76 3836.87 1258.37 3821.1 1208.71"/>
    </g>
    <g id="_8" data-name="8">
      <polyline class="cls-6" points="3107.76 3010.2 3092.17 2998.46 3077.71 2985.32 3057.74 2957.47 3046.09 2928.3 3036.98 2904.82 3032.78 2870.84 3031.38 2837.2 3027.17 2813.73 3004.4 2790.61 2971.12 2762.23 2946.94 2740.85 2929.07 2718.08 2909.45 2666.58 2895.79 2611.92 2882.47 2570.23 2865.31 2540.45 2835.52 2511.36 2727.96 2419.57 2674.01 2371.92 2669.1 2363.86 2699.93 2288.88 2670.5 2285.03 2639.67 2277.32 2551.03 2220.21 2495.67 2179.92 2450.12 2153.99 2413.33 2135.07 2387.06 2131.92 2286.5 2135.77 2128.14 2140.33 2102.56 2141.73 2058.77 2142.08 2054.21 2131.92 2040.9 2127.36 1952.96 2078.31 1938.59 2074.81 1913.36 2067.45 1888.14 2063.95 1848.9 2058.69 1826.12 2058.69 1762.71 2068.85 1749.04 2073.76 1714.36 2024.36 1663.9 1958.14 1634.47 1923.1 1498.88 1751.77 1443.88 1544.71 1438.27 1437.15 1443.17 1387.04 1459.99 1289.64 1474.01 1164.21 1477.51 1144.59 1475.06 1105.35 1490.12 1059.1 1531.82 960.3"/>
      <polyline class="cls-6" points="2058.77 2142.08 1980.98 2143.48 1850.04 2151.01 1756.23 2155.48 1741.69 2160.47 1723.44 2168.64 1686.85 2133.28 1709.71 2101.61 1727.85 2084.53 1735.6 2079.93 1749.04 2073.76"/>
    </g>
    <g id="_9" data-name="9">
      <polyline class="cls-6" points="4319.51 2425.49 4304.61 2413.96 4179.26 2366.23 4131.88 2350.2 3989.63 2257 3886.27 2197.79 3836.5 2167.29"/>
      <polyline class="cls-6" points="3245.24 1839.11 3210.06 1901.38 3162.33 1978.37 3130.27 2030.14 3085.33 2080.59 3019.47 2125.79 2968.18 2151.89 2898.24 2190.61 2772.11 2260.33 2730.42 2280.3 2709.39 2285.91 2699.93 2288.88"/>
      <polyline class="cls-6" points="2111.81 2141.22 2110.44 2107.92 2109.13 2067.98 2110.47 2056.15 2123.58 2018.31 2145.39 1980.47 2172.46 1901.38 2206.88 1781.03 2213.19 1753.96 2220.55 1736.62 2265.22 1648.85 2280.2 1620.47 2289.66 1600.77 2291.76 1591.04"/>
    </g>
    <g id="_10" data-name="10">
      <polyline class="cls-6" points="4250.93 2894.14 4244.17 2883.98 4232.08 2883.98 4210.36 2853.67 4195.47 2827.04 4189.25 2812.15 4189.25 2792.18 4213.95 2717.29 4208.69 2695.48 4193.98 2661.85 4176.11 2625.06 4158.24 2595.63 4149.04 2584.85 4127.23 2571.19 4114.62 2564.88 4103.32 2549.38 4103.32 2534.4 4107 2514.96 4116.72 2493.67"/>
      <polyline class="cls-6" points="4203.44 2296.07 4231.03 2300.45 4262.21 2304.84 4328.85 2302.12"/>
      <line class="cls-7" x1="3341.98" y1="4134.17" x2="3325.25" y2="4105.79"/>
    </g>
    <g id="_12" data-name="12">
      <polyline class="cls-6" points="4386.98 3252.69 4380.46 3279.01 4366.97 3346.99 4314.94 3296.88 4331.1 3235.11"/>
      <polyline class="cls-6" points="3992.51 2258.89 3984.02 2276.09 3966.68 2312.09 3928.58 2377.53 3919.12 2403.01 3929.5 2406.82 3956.17 2419.57 3977.45 2430.74 4022.91 2454.12 4053.66 2470.28 4106.47 2488.94 4117.28 2493.84"/>
      <polyline class="cls-6" points="3052 1744.17 3006.15 1846.37 2925.22 1807.83 2854.44 1778.4 2929.25 1599.06 2933.98 1601.47"/>
      <polyline class="cls-6" points="3866.04 1045.26 3813.22 913.09 3729.92 951.45"/>
      <polyline class="cls-6" points="3770.91 1067.34 3765.13 1070.75 3582.77 1073.91 3585.13 1179.8 3586.44 1315.92 3585.39 1346.66 3575.41 1386.34 3564.11 1411.57 3548.34 1440.47"/>
    </g>
    <g id="_13" data-name="13">
      <polyline class="cls-6" points="4666.34 4092.44 4675.29 4124.09 4706.82 4246.02 4720.14 4294.72 4732.4 4322.58 4767.61 4387.22 4834.88 4518.61 4912.66 4663.13 4949.45 4737.23 4958.91 4766.66"/>
      <polyline class="cls-6" points="2868.93 3248.24 2830.97 3201.58 2799.09 3147.98 2754.94 3016.94 2751.44 2992.07 2744.43 2945.12 2728.66 2784.3"/>
    </g>
    <g id="_14" data-name="14">
      <polyline class="cls-6" points="3549.34 1441.31 3543.09 1434.96 3523.99 1415.25 3478.71 1376.36 3462.42 1361.64 3390.68 1311.19 3350.21 1291.22 3279.26 1279.66 3157.33 1265.47 3094.27 1271.77 2919.26 1305.41 2855.15 1309.61 2802.06 1304.36 2738.47 1284.91 2682.24 1259.95 2647.55 1249.44 2600.25 1243.66 2515.12 1240.77 2463.88 1236.04 2438.91 1227.36 2401.86 1193.99 2385.04 1168.77 2339.06 1085.2 2294.39 1002.17 2288.61 972.47 2288.61 958.81 2294.12 842.66 2298.85 812.18 2304.9 773.55 2313.83 718.64 2307.52 664.77 2305.95 642.69 2296.49 622.72 2288.61 592.24 2285.98 571.48 2284.4 540.21 2226.33 545.73 2228.69 530.49"/>
      <polyline class="cls-6" points="2228.53 531.52 2229.61 525.63 2254.71 521.42 2260.23 512.09 2264.17 508.81 2271.39 505.39 2274.68 505.39 2284.4 540.21"/>
    </g>
    <g id="_15" data-name="15">
      <polyline class="cls-6" points="3586.34 1304.9 3731.17 1295.39 3840.64 1271.89 3959.32 1236.56 4098.06 1196.62 4198.97 1170.87 4279.38 1179.8 4298.3 1185.58 4341.42 1205.53"/>
      <polyline class="cls-6" points="5227.86 1280.08 5239.29 1273.22 5273.71 1250.49 5335.9 1208.88 5402.3 1163.86 5439.79 1133.73 5451.35 1123.04 5465.01 1085.73 5473.42 1051.57 5474.3 1027.74 5475.35 1010.93 5483.76 996.21 6309.92 170.05"/>
    </g>
    <polyline id="_16" data-name="16" class="cls-6" points="4744.31 2987.34 4762.01 2993.12 4855.03 3009.76 4987.82 3033.23 5029.51 3046.37 5035.29 3061.26 5029.86 3074.4 5011.29 3148.68 5005.33 3181.26 5001.48 3213.15 5001.48 3239.07 5010.24 3290.58 5041.07 3407.25 5048.43 3453.85 5044.93 3489.23 5041.42 3555.8 5040.72 3615.01 5044.23 3672.12 5046.15 3715.04 5126.56 3772.85 5230.88 3837.23 5243.58 3842.4 5261.23 3845.25 6371.06 4052.97"/>
    <g id="_18" data-name="18">
      <polyline class="cls-6" points="4732.4 4322.58 4776.28 4302.08 4852.75 4252.42 4920.55 4205.12 4958.91 4129.44 4958.91 4007.25 4963.12 3950.49 4978.09 3909.5 5025.39 3844.07 5048.25 3798.34 5048.25 3740.8 5046.15 3715.04"/>
      <polyline class="cls-6" points="5035.29 3061.26 5057.19 2976.65 5066.65 2930.93 5050.97 2879.95 5003.58 2756.97 5000.08 2728.24 5002.88 2680.59 5014.62 2544.12 5016.2 2475.28 5003.58 2401.18 4944.2 2183.07 4917.92 2137.88 4872.72 2088.47 4837.51 2050.64 4793.36 1997.55 4774.97 1953.93 4750.27 1830.43 4740.28 1796.27 4714.53 1751.07 4640.88 1629.06"/>
      <polyline class="cls-6" points="3748.05 2380.42 3713.1 2357.82 3701.01 2343.1"/>
    </g>
    <polyline id="_21" data-name="21" class="cls-6" points="4383.74 1573.56 4299.35 1584.3 4294.44 1560.82 4283.93 1532.45 4199.5 1567.13 4148.34 1418.23 4119.26 1311.01"/>
    <polyline id="_22" data-name="22" class="cls-6" points="2994.87 1627.02 3006.37 1631.77 3098.21 1670.14 3142.62 1588.5 3172.58 1527.45 3183.09 1501.96 3187.03 1473.32 3187.03 1448.36 3280.05 1450.72 3284.78 1506.96 3288.46 1520.36 3300.02 1550.05 3313.77 1568.53 3334.21 1588.15 3364.58 1612.68 3419.58 1642.81 3499.2 1685.64 3670.44 1777 3826.36 1882.46 3836.67 1889.09"/>
    <g id="_24" data-name="24">
      <polyline class="cls-6" points="4019 2030.48 4015.03 2060.97 4006.97 2135.42 3998.21 2227.22 3991.82 2260.28"/>
      <polyline class="cls-6" points="3919.12 2403.01 3858.15 2403.01 3808.49 2399.6 3771.7 2389.61 3746.82 2379.62"/>
      <polyline class="cls-6" points="3203.85 3430.72 3165.22 3433.35 3071.67 3437.55 3038.56 3445.96 3010.71 3452.27 2977.07 3468.04 2947.64 3497.47 2899.64 3535.83 2850.42 3564.74 2798.39 3575.77 2730.59 3591.01 2663.85 3609.93 2702.74 3689.29 2721.13 3733.44 2742.68 3784.42 2767.38 3874.81 2708.52 3908.97"/>
    </g>
    <g id="_25" data-name="25">
      <polyline class="cls-6" points="3582.77 1073.91 3470.39 1073.91 3470.39 1102.9 3470.39 1178.93 3585.13 1179.8"/>
      <polyline class="cls-6" points="3326.56 3634.11 3406.44 3542.14 3451.64 3491.16 3597.22 3589.96 3666.06 3645.67 3535.73 3809.38"/>
      <polyline class="cls-6" points="3263.23 4010.4 3040.4 4119.19 2907.7 4181.2 2851.47 4224.82 2773.69 4324.68 2661.22 4462.37 2477.28 4590.61"/>
    </g>
    <g id="_201" data-name="201">
      <polyline class="cls-6" points="4190.82 3224.71 4206.59 3230.75 4314.94 3296.88"/>
      <polyline class="cls-6" points="4366.97 3346.99 4389.92 3357.06 4416.37 3357.06 4426.53 3343.48 4433.63 3264.26 4439.28 3206.71 4439.28 3108.04 4439.28 3063.89 4432.14 2966.49 4416.02 2964"/>
    </g>
    <g id="_202" data-name="202">
      <line class="cls-7" x1="3781.16" y1="2256.65" x2="3950.73" y2="2339.48"/>
      <polyline class="cls-6" points="4298.57 2589.89 4270.97 2609.12 4241.54 2635.74 4221.57 2681.29 4213.95 2717.29"/>
      <polyline class="cls-6" points="4615.55 2916.27 4620.81 2892.04 4647.26 2802.17 4663.38 2762.58 4653.57 2749.96 4619.58 2709.67 4614.68 2700.21 4606.95 2697.56"/>
      <polyline class="cls-6" points="4119.5 1311.87 4108.58 1269.67 4095.96 1204.24 4089.92 1170.87 4084.66 1154.05 4084.66 1099.13 4082.3 1024.5 4082.3 969.85"/>
    </g>
    <g id="_203" data-name="203">
      <line class="cls-7" x1="4255.2" y1="2406.96" x2="4318.44" y2="2432.74"/>
      <line class="cls-7" x1="4333.06" y1="2246.47" x2="4202.42" y2="2254.2"/>
      <polyline class="cls-6" points="4174.35 2051.61 4138.88 2008.94 4068.11 1953.23 3891.88 1822.9 3811.29 1761.23 3691.11 1672.74"/>
    </g>
    <g id="_204" data-name="204">
      <path class="cls-6" d="m4411.84,1855.13l-20.34,10.17-10.16-3.11-13.14-12.65-38.36-34.69-19.62-32.58-7.71-26.98-36.79-47.65v-12.26s-23.48-35.74-25.06-38.89-7.88-31.88-7.88-31.88l-21.02-20.32-12.26-37.14"/>
      <polyline class="cls-6" points="4329.83 1814.84 4391.85 1785.41 4443 1771.38"/>
      <polyline class="cls-6" points="3924.86 2387.53 3877.86 2387.53 3844.49 2381.73 3791.93 2360.45 3760.14 2339.48 3739.12 2322.61 3725.35 2305.44"/>
    </g>
    <g id="_205" data-name="205">
      <line class="cls-7" x1="3846.85" y1="1469.12" x2="3719.47" y2="1467.62"/>
      <line class="cls-7" x1="4025.54" y1="1559.51" x2="3844.25" y2="1557.32"/>
    </g>
    <g id="_206" data-name="206">
      <polyline class="cls-6" points="4126.79 1891.74 4177.07 1865.29 4131.88 1782.96 4081.42 1684.15 4046.82 1610.75 4025.59 1561.29"/>
      <line class="cls-7" x1="3992.31" y1="1468.37" x2="3847.44" y2="1469.12"/>
      <polyline class="cls-6" points="3622.04 1501.77 3610.62 1519.57 3588.02 1577.12 3594.59 1599.72 3584.34 1624.68 3547.82 1677.23 3530.47 1690.9 3516.84 1695.05"/>
      <polyline class="cls-6" points="3484.52 1677.74 3467.15 1710.61 3444.81 1751.6 3427.47 1792.33 3421.95 1864.07 3385.69 1935.28 3369.13 1963.39 3391.99 1974.69 3409.86 1988.62 3423.79 2008.59 3486.59 2044.33 3454.62 2088.82"/>
    </g>
    <polyline id="_207" data-name="207" class="cls-6" points="3246.68 3558.69 3054.33 3677.2 3264.64 4012.57"/>
    <g id="_208" data-name="208">
      <polyline class="cls-6" points="3824.82 2033.55 3734.91 1968.65 3764.14 1726.52"/>
    </g>
    <g id="_209" data-name="209">
      <polyline class="cls-6" points="1723.44 2168.64 1643.58 2224.07 1611.7 2248.94 1546.53 2279.77 1514.65 2282.93 1359.44 2262.26 1122.24 2224.07"/>
      <line class="cls-7" x1="1848.9" y1="2058.69" x2="1845.55" y2="2151.23"/>
      <polyline class="cls-6" points="2128.14 2140.33 2132.78 2174.93 2137.77 2222.49 2129.63 2278.72 2176.4 2320.77 2210.56 2344.94 2284.93 2382.52 2298.59 2402.75 2367.44 2444.27 2394.77 2496.3 2403.17 2542.02 2431.03 2614.55 2454.68 2655.01 2457.83 2684.97 2445.22 2709.15 2435.23 2733.85 2371.12 2765.91 2457.83 3001.35 2471.5 3062.84 2482.01 3088.07 2496.2 3088.07 2505.13 3104.36 2501.98 3120.12"/>
      <polyline class="cls-6" points="1749.61 2074.11 1757.28 2086.46 1776.02 2135.42 1781.8 2153.91"/>
    </g>
    <polyline id="_301" data-name="301" class="cls-6" points="3536.17 3809.38 3551.93 3826.37 3766.44 4005.67 3766.44 4478.66 4339.29 4901.2"/>
    <polyline id="_302" data-name="302" class="cls-6" points="4958.91 4766.66 4958.91 5323.74 5677.07 6041.91"/>
    <polyline id="_304" data-name="304" class="cls-6" points="1643.58 2224.07 1632.72 2264.01 1643.58 2376.47 1643.58 3679.83 1238.21 4085.2"/>
    <polyline id="_305" data-name="305" class="cls-6" points="2274.68 505.39 2274.68 485.03 2479.9 103.36 3691.11 103.36"/>
    <polyline id="_306" data-name="306" class="cls-6" points="5002.93 1442.58 5122.88 1412.09 5585.89 1412.09 6051.44 946.55 6588.63 946.55"/>
    <g id="_307" data-name="307">
      <polyline class="cls-6" points="3027.52 1551.89 3074.3 1434.17 3103.2 1345.88 3103.2 1270.88"/>
      <polyline class="cls-6" points="2226.33 545.73 1947.79 565.44 1675.82 577 1951.07 1 3351.26 1 3453.68 103.42"/>
    </g>
    <g id="_308" data-name="308">
      <line id="_308-2" data-name="308" class="cls-7" x1="3766.44" y1="4478.66" x2="3956.69" y2="4478.66"/>
      <line class="cls-7" x1="3254.76" y1="1844.24" x2="3339.17" y2="1730.05"/>
    </g>
    <polyline id="_309" data-name="309" class="cls-6" points="2854.85 3258.67 2833.42 3273.76 1768.31 3734.49 1464.55 4038.26"/>
    <polyline id="_601" data-name="601" class="cls-6" points="1122.24 2224.07 287.13 1388.96 287.13 1007.95"/>
    <polyline id="_602" data-name="602" class="cls-6" points="1675.82 577 1372.05 577 765.57 1007.95 122.3 1007.95"/>
    <polyline id="H1" class="cls-6" points="3006.15 1846.37 3029.8 1863.72 3072.55 1911.89 3145.29 1786.71"/>
  </g>
  <g id="_站点" data-name="站点">
    <g>
      <circle class="cls-1" cx="123.08" cy="1007.95" r="2.5"/>
      <circle class="cls-2" cx="123.08" cy="1007.95" r="2.08"/>
    </g>
    <g>
      <circle class="cls-1" cx="287.13" cy="1007.95" r="2.5"/>
      <circle class="cls-2" cx="287.13" cy="1007.95" r="2.08"/>
    </g>
  </g>
</svg>