<?xml version="1.0" encoding="UTF-8"?>
<svg xmlns="http://www.w3.org/2000/svg" viewBox="0 0 6513.97 6042.91">
  <defs>
    <style>
      .cls-1, .cls-2, .cls-3 {
        stroke-width: 0px;
      }

      .cls-2 {
        fill: #fff;
      }

      .cls-3 {
        fill: #888;
      }

      .cls-4 {
        fill-rule: evenodd;
      }

      .cls-4, .cls-5 {
        fill: none;
        stroke: #000;
        stroke-linecap: round;
        stroke-linejoin: round;
        stroke-width: 2px;
      }
    </style>
  </defs>
  <g id="_底图" data-name="底图">
    <g id="_标题" data-name="标题">
      <g>
        <path class="cls-1" d="m89.61,88.92v15.12h43.47v45.49c0,7.96-1.62,12.42-7.29,14.85-5.54,2.56-13.36,2.7-23.76,2.7-.67-4.72-3.1-11.47-5.4-15.79,6.75.41,14.71.41,16.74.27,2.29,0,2.97-.54,2.97-2.29v-29.56h-26.73v60.75h-16.74v-60.75h-24.97v47.38h-16.2v-63.04h41.17v-15.12H20.36v-15.66h54.13c-2.03-4.86-4.59-10.39-6.88-14.85l15.93-5c3.38,6.21,7.83,14.31,10.12,19.84h49.81v15.66h-53.86Z"/>
        <path class="cls-1" d="m285.77,78.39v67.36h-16.87v-6.75h-30.51v42.12h-17.01v-42.12h-30.37v7.42h-16.2v-68.04h46.57v-23.35h17.01v23.35h47.38Zm-64.39,44.82v-29.02h-30.37v29.02h30.37Zm47.52,0v-29.02h-30.51v29.02h30.51Z"/>
        <path class="cls-1" d="m440.07,161.95v15.39h-117.45V60.97h113.94v15.39h-98.28v85.59h101.79Zm-25.24-6.21c-6.21-7.29-15.93-16.6-26.73-26.46-11.07,10.53-22.81,19.57-34.56,26.73-2.7-3.24-8.64-9.45-12.28-12.42,12.28-6.34,24.16-14.98,34.96-24.7-9.99-8.64-20.25-17.14-29.43-24.3l11.2-9.85c8.77,6.88,19.17,14.85,29.29,23.22,8.1-8.64,14.98-17.82,20.65-27.4l15.25,6.07c-6.75,11.07-14.85,21.6-23.89,31.32,11.2,9.31,21.33,18.49,28.08,25.92l-12.55,11.88Z"/>
        <path class="cls-1" d="m514.32,63.4c-9.04,21.87-23.35,42.25-37.93,55.48-2.16-2.02-6.75-5.54-9.31-7.15,15.12-11.88,28.62-31.18,36.58-51.3l10.66,2.97Zm37.12,64.66c11.74,14.31,25.51,33.21,32.13,45.36l-9.72,5.4c-2.16-4.32-5.4-9.58-8.91-15.12-70.87,4.86-78.16,5.27-83.16,7.15-.54-2.16-2.43-7.69-3.92-10.53,3.51-.81,7.15-4.86,12.28-11.2,5.26-6.07,21.6-29.43,32.4-51.84l10.8,4.86c-11.07,20.38-24.3,40.36-37.53,56.02l62.77-3.78c-5.4-7.56-11.2-15.39-16.47-22l9.31-4.32Zm-2.16-68.58c8.91,18.36,26.05,39.69,39.96,50.89-2.56,2.02-6.34,5.8-8.37,8.5-13.9-12.82-31.05-35.37-41.44-55.62l9.85-3.78Z"/>
        <path class="cls-1" d="m706.16,114.57c-5.53,13.77-13.09,25.11-22.54,34.15,13.9,10.53,31.72,17.68,53.32,21.06-2.16,2.16-4.86,6.21-6.21,9.04-22.27-4.32-40.36-12.01-54.67-23.62-14.85,11.74-33.34,19.3-55.08,24.84-1.08-2.43-4.05-6.88-6.08-9.04,21.6-4.46,39.82-11.61,53.86-22.41-9.31-9.04-16.47-20.25-21.87-33.34l8.91-2.7c4.59,11.47,11.47,21.6,20.25,29.83,8.64-8.23,15.39-18.36,19.84-30.64l10.26,2.83Zm27.27-29.7h-115.83v-9.85h56.02c-1.89-4.72-5.67-11.34-8.91-16.6l9.31-3.24c3.78,5.4,8.1,12.82,9.99,17.41l-6.07,2.43h55.48v9.85Zm-72.49,7.96c-9.04,11.47-23.22,23.49-35.1,31.18-1.75-2.02-5.53-5.8-7.69-7.56,11.88-6.75,25.11-17.14,33.21-27.4l9.58,3.78Zm38.34-4.05c12.28,8.37,27.4,20.52,34.69,29.16l-8.23,6.48c-6.75-8.5-21.73-21.33-34.15-29.83l7.69-5.8Z"/>
        <path class="cls-1" d="m808.62,126.44c-.27,2.56-.27,6.48,0,8.37-33.61,6.88-38.07,8.1-40.9,9.72-.54-2.02-1.89-6.48-3.1-9.18,2.83-.54,5.94-3.78,9.99-8.77,2.56-2.7,7.83-9.45,13.63-18.22-16.2,2.16-19.44,2.97-21.46,4.05-.4-2.16-2.02-6.88-3.1-9.58,2.43-.54,4.73-3.65,7.69-8.23,2.83-4.45,12.55-21.6,17.95-37.66l9.45,4.32c-5.94,13.9-13.63,28.48-21.6,39.96l16.87-1.62c3.1-5,5.94-9.99,8.5-14.98l8.37,5.13c-8.64,14.85-18.63,29.56-29.02,41.58l26.73-4.86Zm2.03,31.86l-44.14,13.09-2.02-9.72c11.07-2.56,28.08-7.42,44.68-11.88l1.49,8.5Zm73.71-32.13c-6.75,10.53-15.79,20.11-26.46,28.08,4.18,9.85,9.31,15.39,15.12,15.39,3.65,0,5.13-3.24,5.67-15.12,2.16,2.29,5.13,4.46,7.42,5.27-1.76,15.12-4.86,19.57-14.04,19.57s-16.74-7.15-22.27-19.3c-10.66,7.02-22.68,12.96-35.23,17.28-1.35-2.56-3.91-5.94-6.21-8.23,13.77-4.18,26.73-10.26,38.07-17.82-2.83-8.5-4.86-18.49-6.61-29.7l-25.65,4.99-1.75-9.04,26.19-4.86c-.68-5.8-1.22-11.88-1.62-18.09l-19.98,3.1-1.76-9.04,21.19-3.1c-.54-9.45-.81-19.17-.94-29.29h9.85c0,9.72.13,18.9.54,27.81l32.26-4.73,1.62,8.77-33.34,5.13c.54,6.21,1.08,12.01,1.75,17.68l33.61-6.34,1.75,8.77-34.29,6.48c1.48,9.58,3.37,18.22,5.53,25.51,8.5-6.88,15.79-14.58,21.19-23.08l8.37,3.92Zm-13.5-49.54c-4.19-3.65-12.69-8.91-19.3-12.15l5.67-5.53c6.61,2.83,15.25,7.96,19.44,11.47l-5.8,6.21Z"/>
        <path class="cls-1" d="m1028.13,166.4c0,6.34-1.75,9.45-6.07,11.2-4.32,1.62-11.61,1.89-23.76,1.75-.54-2.83-2.43-7.15-3.78-9.99,8.91.4,17.68.27,20.25.27,2.43-.14,3.51-.94,3.51-3.24v-92.34h-90.72v105.43h-9.99v-114.88h110.56v101.79Zm-61.29-18.49c-2.56-4.86-6.21-10.8-10.26-17.14-5.4,12.69-12.01,23.35-20.11,31.99-1.48-1.35-5.67-4.19-7.83-5.53,9.31-9.04,16.47-21.06,21.6-35.37-5.94-8.5-12.55-17.28-18.63-24.7l6.21-5.53c5.27,6.07,10.66,13.09,15.79,19.98,2.56-8.91,4.46-18.22,6.07-28.21l9.18.95c-2.16,13.09-4.99,25.38-8.64,36.45,5.27,7.56,9.99,14.85,13.23,20.65l-6.61,6.48Zm38.88,4.05c-2.7-5.81-6.48-12.96-11.07-20.52-5.4,12.82-12.01,23.62-20.52,32.4-1.76-1.48-5.67-4.32-7.96-5.53,9.99-9.04,17.14-21.46,22.54-36.31-5.8-8.5-12.28-17.28-18.36-24.84l6.48-4.99c5.13,5.94,10.26,12.69,15.12,19.44,2.56-8.77,4.32-18.09,5.81-27.94l9.04.95c-2.02,13.23-4.72,25.38-8.37,36.45,5.94,9.04,11.07,17.95,14.31,25.11l-7.02,5.81Z"/>
        <path class="cls-1" d="m1176.9,62.32v117.45h-9.85v-5.67h-91.93v5.67h-9.72V62.32h111.51Zm-9.85,102.87v-93.69h-91.93v93.69h91.93Zm-12.55-77.22c-5.67,8.91-14.17,16.6-24.03,23.08,10.26,4.86,22.14,8.5,33.88,10.66-1.75,1.75-4.32,5.26-5.53,7.56-12.69-2.7-25.38-7.29-36.58-13.36-12.69,6.88-26.73,11.88-39.96,14.85-.94-2.29-3.1-6.21-4.72-8.23,11.88-2.16,24.7-6.34,36.18-11.61-5.4-3.65-10.4-7.69-14.58-12.01-4.05,3.65-8.1,6.88-12.28,9.58-1.48-1.62-4.86-4.73-6.88-6.07,11.47-6.75,22.95-17.14,29.7-28.08l8.23,2.7c-1.48,2.7-3.38,5.27-5.4,7.83h34.69l1.62-.41,5.67,3.51Zm-58.72,53.86c18.09,2.02,41.17,7.15,54.27,11.61l-4.59,7.42c-12.69-4.59-35.91-9.99-54.27-12.15l4.59-6.88Zm12.82-16.2c10.8,2.16,24.3,6.48,31.86,9.85l-4.18,6.75c-7.42-3.65-21.06-8.23-31.72-10.53l4.05-6.07Zm-3.78-32.13c4.45,4.86,10.26,9.31,17.14,13.23,7.29-4.18,13.63-8.91,18.49-14.04h-34.83l-.81.81Z"/>
        <path class="cls-3" d="m48.22,244.53c-2.75-1.61-4.9-3.85-6.44-6.71l5.39-2.92c1.06,2.05,2.49,3.61,4.29,4.67,1.8,1.06,3.85,1.6,6.16,1.6,2.53,0,4.6-.58,6.22-1.73,1.61-1.16,2.42-2.65,2.42-4.48,0-1.21-.32-2.25-.96-3.11-.64-.86-1.65-1.62-3.03-2.28s-3.29-1.34-5.75-2.04c-2.82-.81-5.14-1.61-6.96-2.42-1.82-.81-3.36-2.02-4.65-3.63-1.28-1.61-1.92-3.74-1.92-6.38,0-2.35.63-4.45,1.9-6.3,1.27-1.85,3.02-3.3,5.28-4.34,2.25-1.04,4.81-1.57,7.67-1.57,6.56,0,11.42,2.77,14.57,8.3l-5.11,3.08c-1.14-1.8-2.52-3.18-4.15-4.15-1.63-.97-3.44-1.46-5.42-1.46-1.54,0-2.95.27-4.24.8-1.28.53-2.3,1.26-3.05,2.17-.75.92-1.13,1.93-1.13,3.02,0,1.47.4,2.66,1.21,3.58.81.92,1.87,1.64,3.19,2.17,1.32.53,3.13,1.11,5.44,1.73,2.71.73,5,1.54,6.88,2.42,1.87.88,3.44,2.15,4.7,3.79s1.9,3.76,1.9,6.32-.62,4.67-1.87,6.52c-1.25,1.85-3.01,3.27-5.28,4.26-2.27.99-4.91,1.48-7.92,1.48-3.48,0-6.6-.81-9.35-2.42Z"/>
        <path class="cls-3" d="m80.06,246.18v-42.52h5.99v16.45h.27c.92-1.5,2.19-2.7,3.82-3.6,1.63-.9,3.36-1.35,5.2-1.35,3.26,0,5.8,1.02,7.62,3.05,1.81,2.03,2.72,4.9,2.72,8.61v19.36h-6v-18.26c0-2.16-.59-3.9-1.76-5.2-1.17-1.3-2.68-1.95-4.51-1.95-2.2,0-3.98.71-5.33,2.12-1.36,1.41-2.04,3.29-2.04,5.64v17.65h-5.99Z"/>
        <path class="cls-3" d="m120.63,208.78c-.71.7-1.66,1.04-2.83,1.04s-2.04-.35-2.72-1.04c-.68-.7-1.02-1.63-1.02-2.81s.34-2.11,1.02-2.8c.68-.7,1.59-1.04,2.72-1.04s2.12.35,2.83,1.04c.72.7,1.07,1.63,1.07,2.8s-.36,2.11-1.07,2.81Zm.25,7.15v30.25h-5.99v-30.25h5.99Z"/>
        <path class="cls-3" d="m152.17,220.55l-15.57,20.35h16.34v5.67h-24.7v-4.62l15.62-20.35h-15.35v-5.67h23.65v4.62Z"/>
        <path class="cls-3" d="m159.76,246.18v-42.52h5.99v16.45h.27c.92-1.5,2.19-2.7,3.82-3.6,1.63-.9,3.36-1.35,5.2-1.35,3.26,0,5.8,1.02,7.62,3.05,1.81,2.03,2.72,4.9,2.72,8.61v19.36h-6v-18.26c0-2.16-.59-3.9-1.76-5.2-1.17-1.3-2.68-1.95-4.51-1.95-2.2,0-3.98.71-5.33,2.12-1.36,1.41-2.04,3.29-2.04,5.64v17.65h-5.99Z"/>
        <path class="cls-3" d="m199.14,245.03c-2.13-1.28-3.76-3.13-4.9-5.53-1.14-2.4-1.71-5.22-1.71-8.44s.57-6.03,1.71-8.42c1.14-2.38,2.77-4.23,4.9-5.53,2.13-1.3,4.62-1.95,7.48-1.95s5.3.65,7.42,1.95c2.13,1.3,3.77,3.14,4.92,5.53,1.16,2.38,1.73,5.19,1.73,8.42s-.58,6.04-1.73,8.44c-1.15,2.4-2.8,4.24-4.92,5.53-2.13,1.28-4.6,1.92-7.42,1.92s-5.35-.64-7.48-1.92Zm13.31-6.46c1.43-1.85,2.15-4.35,2.15-7.51s-.72-5.65-2.15-7.48c-1.43-1.83-3.37-2.75-5.83-2.75s-4.35.92-5.77,2.75c-1.43,1.83-2.15,4.33-2.15,7.48s.71,5.66,2.15,7.51c1.43,1.85,3.35,2.78,5.77,2.78s4.4-.93,5.83-2.78Z"/>
        <path class="cls-3" d="m228.18,246.18v-30.25h5.99v4.18h.27c.92-1.5,2.19-2.7,3.82-3.6,1.63-.9,3.36-1.35,5.2-1.35,3.26,0,5.8,1.02,7.62,3.05,1.81,2.03,2.72,4.9,2.72,8.61v19.36h-6v-18.26c0-2.16-.59-3.9-1.76-5.2-1.17-1.3-2.68-1.95-4.51-1.95-2.2,0-3.98.71-5.33,2.12-1.36,1.41-2.04,3.29-2.04,5.64v17.65h-5.99Z"/>
        <path class="cls-3" d="m267.17,258.39c-2.31-1.25-4.07-2.95-5.28-5.11l5.06-2.81c.81,1.39,1.95,2.48,3.44,3.27,1.48.79,3,1.18,4.54,1.18,2.53,0,4.49-.76,5.89-2.28,1.39-1.52,2.09-3.68,2.09-6.46v-4.23h-.33c-.99,1.54-2.24,2.74-3.74,3.6-1.5.86-3.17,1.29-5,1.29-2.46,0-4.67-.69-6.63-2.06-1.96-1.38-3.49-3.29-4.59-5.75-1.1-2.46-1.65-5.24-1.65-8.36s.54-5.74,1.62-8.08c1.08-2.35,2.59-4.17,4.54-5.47,1.94-1.3,4.14-1.95,6.6-1.95,1.76,0,3.41.43,4.95,1.29,1.54.86,2.84,2.06,3.9,3.6h.33v-4.07h6v29.26c0,4.73-1.21,8.42-3.63,11.06s-5.83,3.96-10.23,3.96c-2.93,0-5.56-.62-7.87-1.87Zm13.78-20.16c1.41-1.85,2.12-4.26,2.12-7.23s-.73-5.39-2.2-7.26c-1.47-1.87-3.37-2.81-5.72-2.81s-4.32.94-5.8,2.81c-1.48,1.87-2.23,4.29-2.23,7.26s.77,5.38,2.31,7.23c1.54,1.85,3.52,2.78,5.94,2.78s4.17-.93,5.58-2.78Z"/>
        <path class="cls-3" d="m319.25,246.18v-42.52h13.97c4.4,0,8.17.86,11.3,2.59,3.14,1.72,5.52,4.18,7.15,7.37,1.63,3.19,2.45,6.97,2.45,11.33s-.85,8.14-2.56,11.33-4.2,5.64-7.48,7.34c-3.28,1.71-7.21,2.56-11.8,2.56h-13.04Zm13.04-5.83c4.95,0,8.75-1.34,11.41-4.01,2.66-2.68,3.99-6.47,3.99-11.39s-1.28-8.75-3.85-11.41c-2.57-2.66-6.27-3.99-11.11-3.99h-7.26v30.8h6.82Z"/>
        <path class="cls-3" d="m368.51,208.78c-.71.7-1.66,1.04-2.83,1.04s-2.04-.35-2.72-1.04c-.68-.7-1.02-1.63-1.02-2.81s.34-2.11,1.02-2.8c.68-.7,1.59-1.04,2.72-1.04s2.12.35,2.83,1.04c.72.7,1.07,1.63,1.07,2.8s-.36,2.11-1.07,2.81Zm.25,7.15v30.25h-5.99v-30.25h5.99Z"/>
        <path class="cls-3" d="m380.94,245c-2.15-1.3-3.75-3.05-4.81-5.25l5.06-2.58c.73,1.43,1.75,2.55,3.05,3.35,1.3.81,2.78,1.21,4.43,1.21s3-.32,3.93-.96c.94-.64,1.4-1.51,1.4-2.61s-.49-1.93-1.46-2.61c-.97-.68-2.58-1.27-4.81-1.79-3.59-.84-6.3-1.99-8.11-3.44-1.81-1.45-2.72-3.35-2.72-5.69,0-2.9,1.04-5.2,3.11-6.9,2.07-1.71,4.85-2.56,8.33-2.56,2.68,0,5.02.6,7.04,1.81,2.02,1.21,3.63,2.9,4.84,5.06l-4.84,2.81c-.88-1.43-1.92-2.53-3.13-3.3-1.21-.77-2.51-1.15-3.91-1.15-1.61,0-2.9.35-3.85,1.04-.95.7-1.43,1.61-1.43,2.75,0,1.03.54,1.9,1.62,2.61,1.08.71,2.78,1.33,5.09,1.84,6.93,1.54,10.4,4.51,10.4,8.91,0,2.86-1.05,5.14-3.16,6.85-2.11,1.71-4.9,2.56-8.39,2.56-2.97,0-5.53-.65-7.67-1.95Z"/>
        <path class="cls-3" d="m423.42,221.6h-8.42v15.35c0,1.47.39,2.6,1.18,3.41.79.81,1.9,1.21,3.33,1.21,1.03,0,2.11-.2,3.25-.6v5.61c-1.39.48-2.92.71-4.56.71-2.97,0-5.24-.83-6.82-2.5-1.58-1.67-2.37-4.06-2.37-7.18v-16h-4.73v-5.67h4.73v-9.24h6v9.24h8.42v5.67Z"/>
        <path class="cls-3" d="m429.69,246.18l-.11-30.25h6.16v5.67h.27c1.17-2.05,2.71-3.64,4.62-4.76,1.91-1.12,4.11-1.68,6.6-1.68h.33v6.22h-.5c-3.59,0-6.38.77-8.36,2.31-1.98,1.54-2.97,3.54-2.97,6v16.5h-6.05Z"/>
        <path class="cls-3" d="m459.86,208.78c-.71.7-1.66,1.04-2.83,1.04s-2.04-.35-2.72-1.04c-.68-.7-1.02-1.63-1.02-2.81s.34-2.11,1.02-2.8c.68-.7,1.59-1.04,2.72-1.04s2.12.35,2.83,1.04c.72.7,1.07,1.63,1.07,2.8s-.36,2.11-1.07,2.81Zm.25,7.15v30.25h-5.99v-30.25h5.99Z"/>
        <path class="cls-3" d="m475.01,245c-2.2-1.3-3.9-3.15-5.09-5.55-1.19-2.4-1.79-5.2-1.79-8.39s.6-5.99,1.79-8.39c1.19-2.4,2.89-4.24,5.09-5.53,2.2-1.28,4.79-1.92,7.75-1.92,2.35,0,4.57.65,6.68,1.95,2.11,1.3,3.73,3.03,4.87,5.2l-5.12,2.75c-.73-1.32-1.71-2.36-2.94-3.11-1.23-.75-2.54-1.13-3.93-1.13-2.42,0-4.36.93-5.83,2.78-1.47,1.85-2.2,4.32-2.2,7.4s.73,5.56,2.2,7.45c1.47,1.89,3.39,2.83,5.77,2.83,1.43,0,2.76-.39,3.99-1.16,1.23-.77,2.21-1.81,2.94-3.13l5.12,2.75c-1.14,2.2-2.76,3.94-4.87,5.23-2.11,1.28-4.34,1.92-6.68,1.92-2.97,0-5.56-.65-7.75-1.95Z"/>
        <path class="cls-3" d="m517.97,221.6h-8.42v15.35c0,1.47.39,2.6,1.18,3.41.79.81,1.9,1.21,3.33,1.21,1.03,0,2.11-.2,3.25-.6v5.61c-1.39.48-2.92.71-4.56.71-2.97,0-5.24-.83-6.82-2.5-1.58-1.67-2.37-4.06-2.37-7.18v-16h-4.73v-5.67h4.73v-9.24h6v9.24h8.42v5.67Z"/>
        <path class="cls-3" d="m560.15,245.85h-4.29v-37.67h-13.15v-4.02h30.52v4.02h-13.09v37.67Z"/>
        <path class="cls-3" d="m574.89,245.85v-29.04h4.07v5.83h.27c1.17-2.02,2.71-3.62,4.62-4.81,1.91-1.19,4.05-1.79,6.44-1.79h.44v4.4h-.55c-2.24,0-4.21.41-5.91,1.24s-3.02,1.91-3.93,3.25c-.92,1.34-1.38,2.74-1.38,4.21v16.72h-4.07Z"/>
        <path class="cls-3" d="m597.17,244.45c-1.65-1.45-2.48-3.38-2.48-5.8,0-6.23,4.86-9.35,14.58-9.35h4.29v-2.64c0-2.13-.62-3.8-1.87-5.03-1.25-1.23-2.95-1.84-5.12-1.84-2.46,0-4.93,1.04-7.42,3.13l-2.42-2.8c2.9-2.71,6.25-4.07,10.06-4.07,3.37,0,6.03.9,7.98,2.7,1.94,1.8,2.92,4.25,2.92,7.37v19.74h-4.12v-4.4h-.28c-.88,1.58-2.17,2.83-3.88,3.77s-3.53,1.4-5.47,1.4c-2.86,0-5.12-.72-6.77-2.17Zm11.58-2.48c1.38-.6,2.52-1.52,3.44-2.75.92-1.23,1.38-2.7,1.38-4.43v-1.76h-3.52c-3.81,0-6.63.44-8.44,1.32-1.81.88-2.72,2.22-2.72,4.01,0,1.39.51,2.49,1.54,3.3,1.03.81,2.44,1.21,4.23,1.21,1.36,0,2.72-.3,4.1-.91Z"/>
        <path class="cls-3" d="m626.76,245.85v-29.04h4.07v4.46h.27c.88-1.58,2.18-2.84,3.91-3.79,1.72-.95,3.52-1.43,5.39-1.43,3.23,0,5.76,1.01,7.59,3.03,1.83,2.02,2.75,4.84,2.75,8.47v18.31h-4.07v-17.65c0-2.53-.69-4.56-2.06-6.1s-3.11-2.31-5.2-2.31c-2.53,0-4.59.83-6.19,2.5-1.6,1.67-2.39,3.79-2.39,6.35v17.21h-4.07Z"/>
        <path class="cls-3" d="m662.12,244.89c-1.98-1.15-3.5-2.72-4.56-4.7l3.46-2.03c.88,1.5,2.03,2.67,3.44,3.49,1.41.83,3.03,1.24,4.87,1.24,1.98,0,3.55-.39,4.7-1.18,1.15-.79,1.73-1.86,1.73-3.22,0-1.28-.57-2.33-1.71-3.14-1.14-.81-2.99-1.48-5.56-2.04-3.37-.81-5.89-1.87-7.56-3.19-1.67-1.32-2.5-3.06-2.5-5.22,0-2.71.94-4.87,2.83-6.46,1.89-1.59,4.46-2.39,7.73-2.39,2.42,0,4.56.52,6.41,1.57,1.85,1.04,3.38,2.54,4.59,4.48l-3.25,2.31c-.95-1.5-2.1-2.65-3.44-3.44-1.34-.79-2.8-1.18-4.37-1.18-1.91,0-3.43.42-4.56,1.27-1.14.84-1.71,1.96-1.71,3.35,0,1.21.61,2.24,1.84,3.08,1.23.84,3.07,1.56,5.53,2.15,6.6,1.43,9.9,4.16,9.9,8.19,0,2.71-.96,4.86-2.89,6.44-1.93,1.58-4.54,2.36-7.84,2.36-2.75,0-5.12-.58-7.1-1.73Z"/>
        <path class="cls-3" d="m687.09,259v-42.19h4.07v4.62h.27c1.06-1.69,2.42-3.01,4.07-3.96,1.65-.95,3.45-1.43,5.39-1.43,2.35,0,4.46.63,6.35,1.9,1.89,1.26,3.36,3.02,4.43,5.28,1.06,2.25,1.59,4.81,1.59,7.67,0,3.01-.53,5.7-1.59,8.08-1.06,2.38-2.54,4.24-4.43,5.58-1.89,1.34-4.01,2.01-6.35,2.01-2.09,0-3.94-.46-5.55-1.38-1.61-.92-2.92-2.24-3.91-3.96h-.27v17.76h-4.07Zm5.03-21.81c.75,1.7,1.8,3.03,3.14,3.99,1.34.95,2.87,1.43,4.59,1.43s3.35-.48,4.76-1.43c1.41-.95,2.52-2.28,3.33-3.99.81-1.71,1.21-3.66,1.21-5.86s-.39-4.1-1.18-5.8c-.79-1.71-1.88-3.04-3.27-4.02-1.39-.97-2.97-1.46-4.73-1.46s-3.26.49-4.62,1.46c-1.36.97-2.42,2.31-3.19,4.02s-1.16,3.64-1.16,5.8.38,4.15,1.13,5.86Z"/>
        <path class="cls-3" d="m726.06,244.76c-2-1.25-3.54-3.03-4.62-5.34-1.08-2.31-1.62-5-1.62-8.08s.54-5.77,1.62-8.08c1.08-2.31,2.62-4.09,4.62-5.33,2-1.25,4.32-1.87,6.96-1.87s4.96.62,6.96,1.87c2,1.25,3.54,3.02,4.62,5.33,1.08,2.31,1.62,5.01,1.62,8.08s-.54,5.78-1.62,8.08c-1.08,2.31-2.62,4.09-4.62,5.34-2,1.25-4.32,1.87-6.96,1.87s-4.96-.62-6.96-1.87Zm13.5-5.09c1.65-2.07,2.48-4.85,2.48-8.33s-.83-6.26-2.48-8.33c-1.65-2.07-3.83-3.11-6.54-3.11s-4.9,1.04-6.54,3.11c-1.65,2.07-2.48,4.85-2.48,8.33s.82,6.26,2.48,8.33c1.65,2.07,3.83,3.11,6.54,3.11s4.9-1.04,6.54-3.11Z"/>
        <path class="cls-3" d="m754.19,245.85v-29.04h4.07v5.83h.27c1.17-2.02,2.71-3.62,4.62-4.81,1.91-1.19,4.05-1.79,6.44-1.79h.44v4.4h-.55c-2.24,0-4.21.41-5.91,1.24s-3.02,1.91-3.93,3.25c-.92,1.34-1.38,2.74-1.38,4.21v16.72h-4.07Z"/>
        <path class="cls-3" d="m790.27,220.66h-8.42v17.1c0,1.69.42,3,1.27,3.93.84.94,2.02,1.4,3.52,1.4.77,0,1.76-.2,2.97-.6v3.79c-.99.4-2.25.61-3.79.61-2.6,0-4.6-.76-6-2.28-1.39-1.52-2.09-3.69-2.09-6.52v-17.44h-4.56v-3.85h4.56v-9.07h4.12v9.07h8.42v3.85Z"/>
        <path class="cls-3" d="m820.35,245.8h-3.19v-41.58h3.46l23.65,36.13h.22v-36.13h3.13v41.58h-3.41l-23.65-36.14h-.22v36.14Z"/>
        <path class="cls-3" d="m881.18,232.27h-21.83c.18,3.45,1.2,6.21,3.05,8.28,1.85,2.07,4.26,3.11,7.23,3.11,1.76,0,3.43-.43,5-1.29,1.58-.86,2.8-2.04,3.69-3.55l2.36,1.6c-1.06,1.87-2.57,3.35-4.51,4.43-1.94,1.08-4.12,1.62-6.54,1.62-2.68,0-5.02-.62-7.04-1.87-2.02-1.25-3.58-3.01-4.68-5.28-1.1-2.27-1.65-4.91-1.65-7.92s.53-5.72,1.6-8.03c1.06-2.31,2.57-4.1,4.51-5.36,1.94-1.27,4.22-1.9,6.82-1.9,2.46,0,4.61.56,6.46,1.68,1.85,1.12,3.28,2.69,4.29,4.73,1.01,2.03,1.51,4.37,1.51,7.01,0,.84-.09,1.76-.27,2.75Zm-2.86-2.8c0-3.15-.84-5.7-2.53-7.65-1.69-1.94-3.89-2.92-6.6-2.92s-4.9.95-6.65,2.86c-1.76,1.91-2.79,4.47-3.08,7.7h18.87Z"/>
        <path class="cls-3" d="m902.85,219.73h-8.58v18.04c0,1.87.44,3.32,1.32,4.35.88,1.03,2.07,1.54,3.58,1.54.88,0,1.89-.22,3.02-.66v2.86c-1.14.44-2.35.66-3.63.66-2.31,0-4.12-.73-5.42-2.2-1.3-1.47-1.95-3.56-1.95-6.27v-18.31h-4.56v-2.86h4.56v-8.58h3.08v8.58h8.58v2.86Z"/>
        <path class="cls-3" d="m914.9,245.8l-9.41-28.93h3.36l7.59,24.64h.22l7.65-24.64h3.41l7.7,24.64h.17l7.59-24.64h3.35l-9.41,28.93h-3.3l-7.7-24.75h-.22l-7.65,24.75h-3.35Z"/>
        <path class="cls-3" d="m956.7,244.67c-1.94-1.27-3.46-3.05-4.54-5.36-1.08-2.31-1.62-4.97-1.62-7.98s.54-5.67,1.62-7.97c1.08-2.31,2.59-4.1,4.54-5.36,1.94-1.27,4.18-1.9,6.71-1.9s4.82.63,6.76,1.9c1.94,1.27,3.46,3.05,4.54,5.36,1.08,2.31,1.62,4.97,1.62,7.97s-.54,5.67-1.62,7.98c-1.08,2.31-2.59,4.1-4.54,5.36-1.94,1.26-4.2,1.9-6.76,1.9s-4.77-.63-6.71-1.9Zm11.85-2.5c1.48-1.03,2.64-2.47,3.46-4.34s1.24-4.03,1.24-6.49-.41-4.62-1.24-6.49-1.98-3.32-3.46-4.35c-1.49-1.03-3.2-1.54-5.14-1.54s-3.65.51-5.12,1.54c-1.47,1.03-2.61,2.48-3.44,4.35-.82,1.87-1.24,4.03-1.24,6.49s.41,4.62,1.24,6.49c.83,1.87,1.97,3.32,3.44,4.34,1.47,1.03,3.17,1.54,5.12,1.54s3.66-.51,5.14-1.54Z"/>
        <path class="cls-3" d="m984.58,245.8v-28.93h3.02v6.44h.22c1.14-2.09,2.7-3.81,4.7-5.17,2-1.36,4.3-2.04,6.9-2.04h.5v3.3h-.72c-2.27,0-4.29.49-6.05,1.48-1.76.99-3.13,2.24-4.1,3.74-.97,1.5-1.46,2.99-1.46,4.46v16.72h-3.02Z"/>
        <path class="cls-3" d="m1028.36,245.8h-3.85l-12.54-14.52-2.92,2.69v11.83h-3.02v-41.58h3.02v25.79l14.25-13.15h4.29l-13.42,12.38,14.19,16.56Z"/>
        <path class="cls-3" d="m1058.5,245.85h-3.19v-41.58h3.41l15.62,28.54h.22l15.56-28.54h3.41v41.58h-3.14v-35.47h-.22l-14.69,26.9h-2.09l-14.68-26.9h-.22v35.47Z"/>
        <path class="cls-3" d="m1104.59,244.48c-1.61-1.39-2.42-3.28-2.42-5.67,0-6.05,4.95-9.07,14.85-9.07h4.62v-3.25c0-2.38-.69-4.24-2.06-5.58-1.38-1.34-3.29-2.01-5.75-2.01s-5.02,1.03-7.59,3.08l-1.81-2.15c1.36-1.17,2.85-2.09,4.48-2.75,1.63-.66,3.35-.99,5.14-.99,3.34,0,5.94.87,7.81,2.61,1.87,1.74,2.81,4.15,2.81,7.23v19.85h-3.02v-4.95h-.22c-.99,1.83-2.38,3.25-4.18,4.23-1.8.99-3.78,1.49-5.94,1.49-2.86,0-5.1-.7-6.71-2.09Zm11.96-1.81c1.52-.73,2.75-1.79,3.69-3.16s1.4-2.96,1.4-4.76v-2.2h-4.07c-8.21,0-12.32,2.04-12.32,6.11,0,1.58.59,2.82,1.76,3.74,1.17.92,2.77,1.38,4.79,1.38,1.65,0,3.24-.37,4.76-1.1Z"/>
        <path class="cls-3" d="m1134.01,258.83v-41.96h3.02v5.72h.22c1.03-2.02,2.42-3.6,4.18-4.76,1.76-1.15,3.72-1.73,5.89-1.73,2.38,0,4.51.64,6.38,1.93,1.87,1.28,3.34,3.06,4.4,5.33,1.06,2.27,1.6,4.84,1.6,7.7s-.53,5.63-1.6,7.98c-1.06,2.35-2.53,4.18-4.4,5.5s-4,1.98-6.38,1.98-4.27-.55-6-1.65c-1.72-1.1-3.08-2.66-4.07-4.68h-.22v18.65h-3.02Zm4.15-21.15c.83,1.85,1.97,3.29,3.44,4.32,1.47,1.03,3.14,1.54,5.01,1.54s3.62-.51,5.14-1.54c1.52-1.03,2.71-2.47,3.58-4.32.86-1.85,1.29-3.95,1.29-6.3s-.42-4.45-1.27-6.3c-.84-1.85-2.03-3.31-3.55-4.37-1.52-1.06-3.24-1.6-5.14-1.6s-3.55.53-5.03,1.6c-1.49,1.06-2.64,2.52-3.47,4.37-.82,1.85-1.24,3.95-1.24,6.3s.41,4.45,1.24,6.3Z"/>
      </g>
    </g>
    <g>
      <path class="cls-1" d="m11.33,992.95v.82h-4.89v.86h3.66v4.08H1.99v-4.08h3.55v-.86H.7v-.82h2.97v-1.15H1.56v-.8h2.11v-1.06h.89v1.06h2.91v-1.06h.91v1.06h2.15v.8h-2.15v1.15h2.95Zm-6.28,6.48c-.97.59-2.48,1.18-3.69,1.5-.13-.18-.41-.48-.61-.65,1.21-.3,2.73-.88,3.5-1.37l.8.52Zm-2.19-3.08h2.69v-1.06h-2.69v1.06Zm0,1.69h2.69v-1.07h-2.69v1.07Zm1.7-5.09h2.91v-1.15h-2.91v1.15Zm1.88,2.34v1.06h2.77v-1.06h-2.77Zm2.77,1.68h-2.77v1.07h2.77v-1.07Zm-1.58,1.94c1.31.43,2.76.98,3.63,1.38l-.66.6c-.82-.4-2.17-.95-3.51-1.42l.54-.56Z"/>
      <path class="cls-1" d="m13.79,995.67c-.25-.5-.82-1.31-1.31-1.87l.7-.4c.5.55,1.09,1.31,1.36,1.83l-.74.43Zm-1,4.39c.4-.91.94-2.47,1.33-3.79l.72.5c-.35,1.22-.83,2.7-1.26,3.79l-.79-.5Zm.89-9.94c.52.56,1.14,1.35,1.43,1.88l-.74.48c-.26-.53-.86-1.35-1.38-1.94l.7-.42Zm3.84,2.28c-.4.76-1.04,1.52-1.63,2.03-.13-.13-.46-.37-.64-.47.61-.47,1.18-1.12,1.51-1.78l.76.22Zm.4-.6h-2.12v-.76h3.38c-.11-.34-.26-.72-.43-1.03l.8-.22c.23.37.43.86.55,1.25h3.32v.76h-2.57v2.87h-.82v-2.87h-1.31v2.87h-.82v-2.87Zm5.11,6.32s-.02.25-.06.37c-.24,1.28-.48,1.88-.83,2.15-.22.19-.44.24-.79.25-.3.02-.9.02-1.55-.02-.01-.23-.11-.54-.24-.76.61.06,1.24.07,1.48.07.22,0,.34-.01.43-.1.2-.16.38-.52.55-1.26h-6.04c.22-.61.46-1.5.6-2.23h5.12v-.88h-5.72v-.7h6.56v2.27h-5.25c-.07.28-.14.56-.22.83h5.96Zm-1.1-5.95c.6.54,1.26,1.26,1.55,1.79l-.67.42c-.28-.53-.94-1.29-1.52-1.83l.65-.37Z"/>
      <path class="cls-1" d="m26.47,995.11c-.43-.34-1.32-.84-1.98-1.18l.5-.65c.65.31,1.54.79,1.98,1.1l-.5.72Zm.44,1.8c-.4,1.24-.94,2.72-1.4,3.83l-.8-.44c.43-.95,1.06-2.49,1.49-3.85l.72.47Zm-.1-4.89c-.4-.37-1.22-.92-1.85-1.31l.52-.61c.62.34,1.45.88,1.87,1.21l-.54.71Zm4.14,2.41s-.01.29-.01.41c-.11,3.84-.2,5.15-.49,5.54-.19.25-.4.35-.7.38-.28.02-.76.02-1.22,0-.02-.25-.1-.58-.23-.82.46.05.9.05,1.07.05s.26-.01.37-.16c.18-.25.29-1.39.37-4.58h-1.19c-.19,2.25-.64,4.29-1.86,5.64-.14-.19-.42-.44-.64-.56,1.56-1.64,1.72-4.67,1.79-7.6h-1.12v-.85h4.19v.85h-2.24c-.02.58-.04,1.14-.07,1.7h1.98Zm-1.8-2.57c-.19-.43-.61-1.1-1-1.6l.8-.34c.4.48.83,1.12,1.03,1.55l-.84.38Zm6.34,5.45h-1.68v2.59c0,.48-.08.72-.42.85-.34.14-.86.16-1.67.16-.04-.25-.16-.58-.25-.83.6.02,1.14.02,1.3,0,.17,0,.22-.04.22-.18v-2.59h-1.83v-.8h1.83v-1.15c.35-.23.71-.55,1.02-.88h-2.27v-.74c-.06.11-.13.2-.19.3-.16-.13-.54-.35-.76-.46.67-.88,1.12-2.24,1.36-3.62l.85.13c-.1.5-.22.98-.34,1.45h2.82v.84h-3.11c-.19.48-.38.92-.61,1.31h2.95l.16-.05.55.38c-.43.58-1.03,1.18-1.61,1.62v.86h1.68v.8Z"/>
      <path class="cls-1" d="m45.27,993.28c-.59.89-1.42,1.66-2.39,2.29,1.33.62,2.94,1.06,4.64,1.27-.2.2-.43.59-.56.84-.56-.07-1.13-.19-1.67-.34v3.53h-.9v-.38h-4.74v.4h-.86v-3.48c-.64.19-1.27.34-1.9.47-.08-.23-.28-.59-.43-.78,1.6-.28,3.27-.79,4.71-1.5-.6-.42-1.13-.88-1.57-1.38-.54.42-1.16.82-1.87,1.16-.13-.2-.4-.49-.6-.64,1.64-.73,2.81-1.77,3.41-2.69l.96.17c-.17.24-.36.47-.55.71h3.56l.16-.04.6.38Zm-7.44-.01h-.88v-2.25h4.77c-.17-.31-.36-.67-.54-.96l.86-.22c.24.35.5.8.7,1.18h4.27v2.25h-.9v-1.43h-8.29v1.43Zm7,3.96c-1.02-.3-1.97-.67-2.83-1.14-.84.46-1.74.84-2.67,1.14h5.51Zm-.44,2.49v-1.74h-4.74v1.74h4.74Zm-4.16-6.03c.47.54,1.08,1.02,1.79,1.45.74-.46,1.39-.95,1.88-1.5h-3.62l-.05.05Z"/>
      <path class="cls-1" d="m52.79,999.83c0,.48-.1.74-.41.9-.3.16-.78.17-1.58.17-.02-.23-.14-.62-.26-.85.55.01,1.06.01,1.2,0,.17-.01.23-.06.23-.23v-2.95h-1.88c-.11,1.42-.35,2.91-.9,4.04-.16-.14-.52-.35-.73-.43.83-1.68.89-4.05.89-5.82v-4.28h3.45v9.45Zm-.83-3.81v-2.01h-1.81v.66c0,.41-.01.88-.02,1.35h1.83Zm-1.81-4.81v1.97h1.81v-1.97h-1.81Zm9.09,3.41c-.31,1.63-.89,2.97-1.64,4.04.58.66,1.25,1.2,2,1.57-.2.17-.44.47-.58.68-.72-.41-1.37-.95-1.94-1.62-.54.64-1.15,1.15-1.81,1.54-.12-.2-.35-.5-.53-.66.66-.36,1.28-.88,1.83-1.52-.67-.97-1.2-2.12-1.6-3.36h-.3v5.61h-.84v-10.48h5.06v2.3c0,.46-.11.68-.47.82-.38.12-.98.12-1.88.12-.04-.24-.17-.54-.29-.76.73.01,1.35.01,1.54,0,.19,0,.24-.05.24-.19v-1.46h-3.36v3.21h3.89l.16-.02.52.18Zm-3.48.67c.32.98.76,1.9,1.31,2.69.52-.77.92-1.67,1.2-2.69h-2.51Z"/>
      <path class="cls-1" d="m70.29,991.5c-.72,1.08-1.83,1.91-3.15,2.55,1.25.38,2.73.6,4.33.7-.18.2-.38.55-.49.8-1.83-.16-3.5-.48-4.89-1.06-1.6.62-3.39.98-5.13,1.2-.06-.23-.22-.58-.36-.78,1.52-.14,3.09-.43,4.51-.89-.7-.38-1.3-.85-1.79-1.42-.48.4-1.03.76-1.64,1.1-.12-.2-.36-.52-.55-.66,1.68-.85,2.87-2.09,3.48-3.13l.94.19c-.23.35-.48.71-.77,1.06h4.83l.16-.05.54.37Zm.1,5.1s-.01.28-.05.4c-.25,2.17-.53,3.07-.94,3.44-.26.24-.53.3-.97.32-.35.01-1.07.01-1.77-.04-.01-.24-.12-.56-.28-.79.76.07,1.51.08,1.81.08.24,0,.38-.01.52-.11.28-.23.52-.96.72-2.53h-3.63c-.76,1.93-2.23,2.94-4.58,3.5-.1-.2-.32-.58-.49-.76,2.11-.41,3.44-1.21,4.13-2.75h-3.3v-.78h3.57c.1-.36.18-.76.23-1.19l.92.07c-.06.4-.14.78-.23,1.12h4.34Zm-6.5-4.49c.53.66,1.28,1.18,2.21,1.57,1.13-.46,2.11-1.03,2.82-1.74h-4.85l-.18.17Z"/>
      <path class="cls-1" d="m82.78,992.07v5.61h-.91v-.68h-3.44v3.89h-.92v-3.89h-3.43v.74h-.88v-5.67h4.31v-2.13h.92v2.13h4.35Zm-5.28,4.05v-3.18h-3.43v3.18h3.43Zm4.37,0v-3.18h-3.44v3.18h3.44Z"/>
      <path class="cls-1" d="m86.52,994.33c-.19,1.4-.56,3.43-1.06,4.7l-.89-.37c.52-1.22.91-3.09,1.08-4.5l.86.17Zm1.94-1.07v5.91c0,.55.14.66.83.66h2.29c.74,0,.85-.42.95-2.48.22.17.59.32.84.4-.13,2.27-.41,2.93-1.74,2.93h-2.41c-1.3,0-1.66-.32-1.66-1.51v-5.9h.9Zm.25-2.9c1.12.77,2.54,1.9,3.23,2.65l-.64.66c-.66-.74-2.05-1.92-3.18-2.72l.59-.59Zm5.22,3.49c.7,1.43,1.35,3.26,1.61,4.5l-.88.35c-.24-1.24-.89-3.12-1.56-4.52l.83-.32Z"/>
    </g>
    <g>
      <path class="cls-1" d="m174.11,995.98l-1.44.43v3.37c0,.55-.14.8-.48.95-.35.16-.91.17-1.86.17-.02-.24-.16-.61-.29-.85.67.02,1.28.01,1.45,0,.2,0,.29-.06.29-.26v-3.11c-.59.17-1.14.34-1.63.47l-.24-.9c.52-.12,1.16-.29,1.87-.49v-2.53h-1.7v-.88h1.7v-2.4h.89v2.4h1.34v.88h-1.34v2.28l1.32-.37.12.85Zm6.44-1.39c-.31,1.48-.9,2.85-1.75,3.99.65.66,1.38,1.19,2.18,1.52-.22.18-.49.52-.62.76-.79-.38-1.5-.94-2.13-1.6-.6.66-1.32,1.21-2.12,1.64-.13-.2-.38-.47-.59-.65.83-.42,1.54-.98,2.15-1.63-.79-.98-1.42-2.13-1.87-3.39h-.36v5.64h-.88v-10.53h5.62s0,.25-.01.38c-.07,1.68-.18,2.36-.43,2.63-.23.22-.48.29-.88.31-.38.02-1.14.01-1.93-.02-.01-.24-.11-.54-.25-.76.79.07,1.57.07,1.81.07.25,0,.4-.01.48-.1.16-.14.23-.61.28-1.69h-3.81v3.26h4.39l.16-.04.58.19Zm-3.91.65c.38.97.92,1.9,1.57,2.7.59-.82,1.02-1.74,1.28-2.7h-2.85Z"/>
      <path class="cls-1" d="m192.38,990.49v10.41h-.92v-.6h-8.02v.6h-.89v-10.41h9.83Zm-.92,8.98v-8.16h-8.02v8.16h8.02Zm-.7-1.86v.76h-6.54v-.76h2.76v-2.01h-2.25v-.77h2.25v-1.7h-2.59v-.8h6.13v.8h-2.7v1.7h2.4v.77h-2.4v2.01h2.94Zm-1.62-1.8c.44.38.97.94,1.21,1.31l-.61.36c-.23-.37-.74-.95-1.16-1.36l.56-.31Z"/>
      <path class="cls-1" d="m202.03,994.59v1.49h2.58v.85h-2.58v2.75c0,.56-.13.82-.54.96-.42.14-1.12.16-2.17.16-.05-.26-.18-.64-.31-.9.83.04,1.62.02,1.83.02.22-.01.29-.07.29-.25v-2.73h-6.75v-.85h6.75v-1.49h-7.02v-.85h4.85v-1.55h-3.81v-.85h3.81v-1.4h.91v1.4h4.07v.85h-4.07v1.55h4.93v.85h-2.77Zm-5.41,2.6c.71.59,1.51,1.44,1.87,2.03l-.78.5c-.32-.59-1.1-1.49-1.81-2.09l.72-.44Z"/>
      <path class="cls-1" d="m210.41,994.32s0,.28-.01.41c-.1,3.92-.19,5.23-.48,5.64-.18.25-.4.35-.68.37-.26.04-.68.04-1.12.01-.01-.24-.1-.58-.23-.79.43.04.8.05.98.05.14,0,.24-.02.34-.17.18-.26.29-1.43.37-4.7h-1.36c-.05,1.86-.35,3.93-1.7,5.73-.13-.17-.43-.38-.64-.5,1.37-1.85,1.52-4.03,1.52-5.77v-1.82h-1.28v-.84h4.63v.84h-2.53v1.55h2.18Zm-1.99-2.47c-.12-.44-.41-1.13-.65-1.64l.76-.26c.28.52.56,1.18.68,1.62l-.79.29Zm3.86.5c-.34.68-.74,1.3-1.16,1.78-.16-.13-.5-.41-.71-.54.85-.88,1.5-2.23,1.85-3.65l.86.16c-.13.5-.3.98-.48,1.44h4.14v.82h-4.5Zm4.51,2.97c-.55.54-1.27,1.13-1.87,1.55.46,1.37,1.12,2.48,2.03,3.12-.2.16-.48.48-.61.72-1.6-1.2-2.4-3.59-2.81-6.43-.36.1-.73.18-1.09.26v4.89l1.8-.79c.01.24.07.6.13.79-2.19,1.02-2.53,1.18-2.73,1.38-.08-.19-.32-.53-.46-.67.17-.14.41-.43.41-.98v-5.17c1.54-.32,3.27-.82,4.25-1.29l.72.62c-.65.28-1.44.54-2.27.77.11.7.23,1.38.41,2.03.52-.42,1.08-.92,1.45-1.34l.65.55Z"/>
      <path class="cls-1" d="m219.94,995.11c-.43-.34-1.32-.84-1.98-1.18l.5-.65c.65.31,1.54.79,1.98,1.1l-.5.72Zm.44,1.8c-.4,1.24-.94,2.72-1.4,3.83l-.8-.44c.43-.95,1.06-2.49,1.49-3.85l.72.47Zm-.1-4.89c-.4-.37-1.22-.92-1.85-1.31l.52-.61c.62.34,1.45.88,1.87,1.21l-.54.71Zm4.14,2.41s-.01.29-.01.41c-.11,3.84-.2,5.15-.49,5.54-.19.25-.4.35-.7.38-.28.02-.76.02-1.22,0-.02-.25-.1-.58-.23-.82.46.05.9.05,1.07.05s.26-.01.37-.16c.18-.25.29-1.39.37-4.58h-1.19c-.19,2.25-.64,4.29-1.86,5.64-.14-.19-.42-.44-.64-.56,1.56-1.64,1.72-4.67,1.79-7.6h-1.12v-.85h4.19v.85h-2.24c-.02.58-.04,1.14-.07,1.7h1.98Zm-1.8-2.57c-.19-.43-.61-1.1-1-1.6l.8-.34c.4.48.83,1.12,1.03,1.55l-.84.38Zm6.34,5.45h-1.68v2.59c0,.48-.08.72-.42.85-.34.14-.86.16-1.67.16-.04-.25-.16-.58-.25-.83.6.02,1.14.02,1.3,0,.17,0,.22-.04.22-.18v-2.59h-1.83v-.8h1.83v-1.15c.35-.23.71-.55,1.02-.88h-2.27v-.74c-.06.11-.13.2-.19.3-.16-.13-.54-.35-.76-.46.67-.88,1.12-2.24,1.36-3.62l.85.13c-.1.5-.22.98-.34,1.45h2.82v.84h-3.11c-.19.48-.38.92-.61,1.31h2.95l.16-.05.55.38c-.43.58-1.03,1.18-1.61,1.62v.86h1.68v.8Z"/>
      <path class="cls-1" d="m240.72,998.63h-4.25v2.27h-.92v-2.27h-5.3v-.88h5.3v-1.81h-2.75c-.72,0-1.16.06-1.28.17-.06-.19-.22-.66-.34-.92.26-.06.52-.41.83-.94.18-.26.55-.91.95-1.72h-2.53v-.86h2.94c.25-.58.52-1.2.72-1.8l1,.29c-.22.5-.43,1.02-.67,1.51h6.09v.86h-6.51c-.48.94-1,1.8-1.5,2.55h3.06v-1.81h.92v1.81h3.25v.85h-3.25v1.81h4.25v.88Z"/>
      <path class="cls-1" d="m246.7,997.75l.08.82c-1.58.41-3.25.83-4.5,1.14l-.22-.88c.7-.16,1.61-.35,2.59-.59.31-1.27.62-3.37.78-4.82l.84.16c-.24,1.4-.56,3.23-.88,4.49l1.29-.31Zm-4.49-5.56h4.63v.83h-4.63v-.83Zm1.19,1.38c.28,1.37.54,3.09.61,4.27l-.76.14c-.05-1.18-.3-2.93-.58-4.28l.72-.13Zm1.01-1.5c-.14-.49-.48-1.26-.79-1.82l.74-.23c.36.55.71,1.28.85,1.77l-.8.28Zm5.5,1.21v2.36h2.52v5.21h-.9v-.52h-3.6v.56h-.86v-5.25h1.94v-5.7h.9v2.48h3.02v.85h-3.02Zm1.62,3.2h-3.6v3.01h3.6v-3.01Z"/>
    </g>
  </g>
  <g id="_线路" data-name="线路">
    <g id="_1" data-name="1">
      <polyline class="cls-4" points="3076.07 3038.14 3149.99 3089.12 3269.29 3164.27 3297.15 3176.88 3321.85 3184.77 3420.65 3208.94 3491.07 3199.48 3577.79 3199.48 3611.95 3191.07 3647.69 3182.66 3712.33 3186.34 3755.95 3191.6 3791.69 3186.87 3805.88 3190.55 3831.1 3216.82 3847.92 3224.18 3868.94 3221.55 3916.24 3216.3 3957.24 3211.04 4015.05 3212.62 4078.11 3217.35 4080.78 3209.12 4083.28 3207.63 4114.37 3209.99 4164.3 3200.01 4186.9 3212.62 4195.88 3212.97 4202.32 3206.77 4206.83 3207.67 4207.13 3213.19 4255.22 3235.74 4269.94 3193.7 4333 3003.98 4341.41 2958.26 4343.51 2913.58 4343.51 2877.85 4338.78 2847.36 4327.22 2817.93 4310.4 2767.48 4222.11 2588.27 4216.33 2563.57 4219.48 2539.92 4226.84 2518.9 4243.66 2427.98 4263.63 2164.15 4259.43 2147.34 4207.92 2083.22 4055.51 1896.12 3996.13 1836.74 3976.16 1826.23 3956.71 1822.55 3912.56 1807.83 3869.47 1794.69 3766.46 1716.39 3731.25 1691.69 3692.89 1649.12 3631.92 1572.91 3472.68 1440.47 3263.51 1730.05 3256.16 1723.74 3153.67 1650.17 3062.75 1595.51 2951.86 1551.89 2855.16 1802.05 2786.13 1774.85 2772.65 1810.46"/>
      <polyline class="cls-4" points="4195.77 3213.45 4197.34 3219.15 4200.74 3219.82 4204.33 3217.74 4207.13 3213.19"/>
      <polyline class="cls-4" points="4077.63 3217.31 4079.85 3221.69 4115.16 3224.71 4119.76 3219.45 4120.33 3213.15 4120.06 3208.86"/>
      <polyline class="cls-4" points="2786.13 1774.85 2858.32 1601.47 2921.75 1628.09"/>
    </g>
    <g id="_2" data-name="2">
      <polyline class="cls-4" points="2777.73 3259.74 2906.67 3164.27 2939.12 3134.58 2986.42 3074.93 3027.19 3015.54 3032.1 3010.2 3075.97 3038.06"/>
      <polyline class="cls-4" points="4343.51 2900.97 4354.11 2897.99 4357.57 2890.59 4359.15 2877.72 4361.64 2856.96 4365.06 2824.24 4369.4 2792.97 4381.35 2716.64 4390.68 2648.71 4401.19 2579.99 4406.93 2514.17 4406.93 2434.99 4401.32 2377.18 4385.29 2309.73 4376.62 2288.97 4336.42 2208.82 4312.51 2176.5 4287.41 2152.07 4269.94 2138.14 4257.72 2131.83 4243.53 2127.55"/>
      <polyline class="cls-4" points="4165 2030.53 4115.43 2046.17 4071.02 2060.62 3997.7 2082.43 3943.05 2033.29 3953.82 1928.45 3961.44 1831.74 3961.97 1776.56 3956.97 1711.39 3952.77 1660.94 3949.88 1559.51 3913.09 1458.61 3879.45 1370.58 3871.05 1343.51 3851.86 1249.18 3809.03 1105.7 3790.37 1045.26 3695.25 1067.34 3654.26 951.45 3639.8 910.72"/>
    </g>
    <g id="_3" data-name="3">
      <polyline class="cls-4" points="2892.52 1705.42 2979.89 1745.82 3086.75 1794.52 3196.07 1853.38 3374.05 1954.64 3558.08 2054.14 3540.83 2089.18 3538.37 2111.25 3550.29 2142.08 3608.1 2272.42 3649.69 2304.84 3728.29 2188 3738.71 2174.42 3740.81 2175.42 3742.71 2176.08 3745.21 2176.55 3747.71 2176.64 3751.81 2175.91 3755.38 2173.98 3757.38 2172.35 3759.06 2170.43 3760.84 2167.29 3761.59 2165.01 3761.95 2162.88 3762.03 2160.11 3761.42 2157.12 3758.91 2151.74 3997.7 2082.43"/>
      <polyline class="cls-4" points="4591.05 4093.96 4584.39 4065.93 4553.56 3944.71 4545.85 3918.61 4543.57 3893.2 4544.97 3881.47 4549.53 3866.4 4557.94 3850.11 4578.08 3830.14 4603.66 3804.21 4616.97 3787.57 4623.63 3773.38 4625.56 3749.2 4622.4 3678.78 4649.21 3673.88 4681.79 3663.89 4708.77 3645.5 4741.88 3615.19 4734.17 3583.31 4732.77 3574.9 4728.21 3565.79 4721.73 3558.96 4704.39 3553 4673.56 3541.26 4658.32 3529.7 4640.27 3508.68 4623.1 3476.45 4603.48 3428.97 4602.96 3408.47 4607.16 3387.63 4617.67 3322.11 4617.85 3281.64 4605.76 3242.23 4589.82 3200.01 4586.67 3185.82 4591.92 3176.18 4605.06 3161.82 4644.13 3118.37 4655.16 3102.61 4647.28 3078.26 4646.93 3066.87 4668.65 3029.03 4668.65 2987.34 4638.87 2975.25 4610.23 2952.21 4582.11 2923.57 4540.59 2913.06 4511.95 2911.22 4320.91 2913.06 4274.14 2910.43 4234.46 2902.81 4183.75 2902.81 4175.78 2895.28 4175.27 2868.66 4182.17 2860.5 4206.87 2840.8 4310.4 2767.48"/>
      <polyline class="cls-4" points="3759.14 2152.23 3755.79 2149.1 3752.6 2147.3 3749.16 2146.34 3747.28 2146.15 3744.75 2146.29 3740.89 2147.34 3737.74 2149.12 3736.13 2150.42 3734.62 2152.21 3733.1 2154.68 3732.37 2156.42 3731.83 2158.44 3731.56 2160.6 3731.75 2163.28 3732.07 2165.38 3732.69 2167.19 3733.78 2169.28 3735.82 2171.98 3738.71 2174.42"/>
    </g>
    <g id="_4" data-name="4">
      <polyline class="cls-4" points="5153.38 1279.39 5134.59 1290.17 5093.6 1320.26 5052.48 1362.56 5047.62 1368.34 4977.85 1406.05 4938.04 1430.88 4927.26 1442.58 4909 1452.56 4865.91 1469.25 4811.78 1482.65 4801.53 1486.85 4772.62 1501.44 4741.35 1529.69 4725.19 1546.77 4709.95 1561.22 4694.71 1569.36 4671.06 1579.74 4602.61 1605.5 4591.05 1612.5 4575.8 1619.86 4558.46 1634.93 4507.31 1685.03 4439.69 1752.82 4387.66 1803.1 4409.38 1835.69 4419.89 1859.86 4423.22 1880.18 4421.29 1956.91 4420.77 2059.57 4422.7 2072.01 4423.57 2079.72 4431.98 2094.61 4459.83 2136.12 4463.34 2145.23 4466.14 2180.8 4465.44 2223.89 4471.05 2272.07 4489.09 2326.72 4506.78 2377.7 4516.42 2421.99 4544.93 2600.09 4544.53 2609.03 4540.07 2637.41 4531 2699.55 4512.48 2823.32 4506.56 2887.44 4507.88 2906.23 4513.79 2925.28 4516.68 2930.93 4537.44 2927.51 4540.59 2913.06"/>
      <polyline class="cls-4" points="4206.83 3207.67 4210.16 3200.53 4187.43 3162.96 4187.43 3092.8 4183.22 3037.74 4179.67 2991.5 4177.18 2945.64 4175.18 2909.12 4175.78 2895.28"/>
      <polyline class="cls-4" points="4255.22 3235.74 4280.18 3246.65 4311.32 3252.69 4332.08 3254.27 4342.72 3255.98"/>
    </g>
    <g id="_5" data-name="5">
      <polyline class="cls-4" points="4281.1 2168.36 4271.78 2153.51 4266.78 2149.96 4258.42 2146.09"/>
      <polyline class="cls-4" points="4165 2030.53 4183.92 2013.67 4259.82 1934.36 4313.03 1880.18 4368.21 1820.45 4387.66 1803.1 4383.19 1796.8 4370.18 1777.61 4357.05 1748.84 4348.77 1726.37 4342.46 1706.8 4338.52 1688.93 4328.8 1644.65 4309 1576.59 4274.84 1465 4263.45 1428.21 4257.5 1402.11 4255.05 1359.89 4264.16 1241.82 4267.31 1170.61 4270.72 1114.64 4273.62 1065.23 4270.46 1021.09 4255.22 945.15 4255.22 927.54 4297.53 832.42 4337.47 740.97 4372.94 675.45 4382.93 656.01 4409.21 624.3 4409.91 610.64 4407.98 604.68 4368.21 555.1 4362.61 544.42 4361.03 530.23 4361.38 520.07 4366.46 494.14 4373.64 459.8 4384.16 379.39 4412.36 215.95 4420.07 149.2"/>
    </g>
    <g id="_6" data-name="6">
      <polyline class="cls-4" points="3731.83 2158.44 3722.67 2151.89 3648.08 2102.4 3594.08 2074.68 3558.08 2054.14 3561.1 2044.07 3574.9 1961.29 3600.39 1777.09 3622.2 1625.99 3632.18 1559.25 3645.85 1451.51 3655.4 1401.85 3655.4 1297.79 3658.9 1225.88 3745.44 1208.71 3695.25 1067.34"/>
      <polyline class="cls-4" points="3749.16 2146.34 3749.16 2108.45 3749.16 2033.55 3751.48 1961.82 3753.59 1883.51 3806.67 1923.45 3912.04 2008.85 3943.05 2033.29"/>
      <polyline class="cls-4" points="3997.01 2081.81 4029.89 2107.26 4054.33 2124.74 4075.62 2146.34 4086.39 2161.39 4117 2214.08 4126.72 2252.71 4127.78 2296.07 4103.6 2366.23 4041.06 2493.67 4117 2516.27 4168.24 2531.51 4189.79 2543.34 4219.98 2579.17"/>
      <path class="cls-4" d="m3721.72,3187.47l-.1-10.07-2.45-11.04-3.42-16.55v-8.67l6.96-17.87s22.86-25.36,23.12-25.75,8.15-9.07,8.15-9.07l15.11-8.28,15.11-2.89,12.88,1.71,12.74,5.91,17.61,5.65,48.88,1.84,8.15-8.15,8.8-17.87,11.43-16.69,24.83-22.2,19.45-10.51,51.9-1.45,12.61.39,14.32,8.8,10.64,1.05,15.9-6.57,38.76-18.53,10.38-1.84,6.96,1.97,9.33,5.65,5.52,6.83,22.73,28.12,21.28,8.41,15.05,2.58"/>
    </g>
    <g id="_7" data-name="7">
      <polyline class="cls-4" points="3649.69 2304.84 3625.35 2343.1 3616.94 2357.29 3609.32 2384.36 3604.59 2415.89 3597.24 2456.62 3585.67 2497.09 3568.59 2541.5 3531.8 2622.17 3507.63 2676.3 3493.7 2707.57 3477.41 2732.53 3463.48 2745.67 3442.72 2765.38 3332.1 2838.17 3251.16 2890.2 3215.95 2914.9 3205.44 2927.25 3184.42 2950.64 3174.43 2972.45 3169.97 2993.47 3167.6 3015.01 3164.71 3047.07 3155.25 3073.61 3147.96 3087.71 3144.21 3119.86 3137.21 3254.66 3128.18 3430.72 3132.65 3465.41 3137.91 3495.1 3150.26 3521.12 3171.02 3558.69 3194.93 3585.23 3212.8 3601.79 3250.9 3634.11 3367.31 3732.65 3446.4 3799.13 3460.07 3809.38 3454.55 3817.26 3396.48 3887.69 3268.51 3962.31 3187.57 4010.4 3249.59 4105.79 3353.64 4040.88 3378.87 4078.99 3290.58 4134.17"/>
      <polyline class="cls-4" points="3753.59 1883.51 3755.95 1796.53 3759.63 1725.85 3763.05 1667.77 3768.04 1576.07 3771.19 1469.12 3774.34 1422.08 3776.45 1396.59 3780.13 1380.04 3783.02 1370.58 3783.02 1353.23 3777.76 1317.76 3761.21 1258.37 3745.44 1208.71"/>
    </g>
    <g id="_8" data-name="8">
      <polyline class="cls-4" points="3032.1 3010.2 3016.51 2998.46 3002.05 2985.32 2982.08 2957.47 2970.43 2928.3 2961.32 2904.82 2957.12 2870.84 2955.72 2837.2 2951.51 2813.73 2928.74 2790.61 2895.45 2762.23 2871.28 2740.85 2853.41 2718.08 2833.79 2666.58 2820.13 2611.92 2806.81 2570.23 2789.64 2540.45 2759.86 2511.36 2652.3 2419.57 2598.34 2371.92 2593.44 2363.86 2624.27 2288.88 2594.84 2285.03 2564.01 2277.32 2475.37 2220.21 2420.01 2179.92 2374.46 2153.99 2337.67 2135.07 2311.4 2131.92 2210.84 2135.77 2052.48 2140.33 2026.9 2141.73 1983.1 2142.08 1978.55 2131.92 1965.24 2127.36 1877.29 2078.31 1862.93 2074.81 1837.7 2067.45 1812.48 2063.95 1773.24 2058.69 1750.46 2058.69 1687.05 2068.85 1673.38 2073.76 1638.7 2024.36 1588.24 1958.14 1558.81 1923.1 1423.22 1751.77 1368.21 1544.71 1362.61 1437.15 1367.51 1387.04 1384.33 1289.64 1398.34 1164.21 1401.85 1144.59 1399.4 1105.35 1414.46 1059.1 1456.16 960.3"/>
      <polyline class="cls-4" points="1983.1 2142.08 1905.32 2143.48 1774.37 2151.01 1680.56 2155.48 1666.02 2160.47 1647.78 2168.64 1611.19 2133.28 1634.05 2101.61 1652.18 2084.53 1659.94 2079.93 1673.38 2073.76"/>
    </g>
    <g id="_9" data-name="9">
      <polyline class="cls-4" points="4243.85 2425.49 4228.94 2413.96 4103.6 2366.23 4056.21 2350.2 3913.97 2257 3810.61 2197.79 3760.84 2167.29"/>
      <polyline class="cls-4" points="3169.57 1839.11 3134.4 1901.38 3086.67 1978.37 3054.61 2030.14 3009.67 2080.59 2943.8 2125.79 2892.52 2151.89 2822.58 2190.61 2696.45 2260.33 2654.75 2280.3 2633.73 2285.91 2624.27 2288.88"/>
      <polyline class="cls-4" points="2036.15 2141.22 2034.78 2107.92 2033.47 2067.98 2034.81 2056.15 2047.92 2018.31 2069.73 1980.47 2096.8 1901.38 2131.22 1781.03 2137.53 1753.96 2144.89 1736.62 2189.56 1648.85 2204.53 1620.47 2213.99 1600.77 2216.1 1591.04"/>
    </g>
    <g id="_10" data-name="10">
      <polyline class="cls-4" points="4175.27 2894.14 4168.51 2883.98 4156.42 2883.98 4134.7 2853.67 4119.8 2827.04 4113.59 2812.15 4113.59 2792.18 4138.29 2717.29 4133.03 2695.48 4118.32 2661.85 4100.45 2625.06 4082.58 2595.63 4073.38 2584.85 4051.57 2571.19 4038.96 2564.88 4027.66 2549.38 4027.66 2534.4 4031.34 2514.96 4041.06 2493.67"/>
      <polyline class="cls-4" points="4127.78 2296.07 4155.37 2300.45 4186.55 2304.84 4253.19 2302.12"/>
      <line class="cls-5" x1="3266.32" y1="4134.17" x2="3249.59" y2="4105.79"/>
    </g>
    <g id="_12" data-name="12">
      <polyline class="cls-4" points="4311.32 3252.69 4304.8 3279.01 4291.31 3346.99 4239.28 3296.88 4255.44 3235.11"/>
      <polyline class="cls-4" points="3916.85 2258.89 3908.36 2276.09 3891.02 2312.09 3852.91 2377.53 3843.45 2403.01 3853.83 2406.82 3880.51 2419.57 3901.79 2430.74 3947.25 2454.12 3977.99 2470.28 4030.81 2488.94 4041.61 2493.84"/>
      <polyline class="cls-4" points="2976.34 1744.17 2930.49 1846.37 2849.56 1807.83 2778.78 1778.4 2853.59 1599.06 2858.32 1601.47"/>
      <polyline class="cls-4" points="3790.37 1045.26 3737.56 913.09 3654.26 951.45"/>
      <polyline class="cls-4" points="3695.25 1067.34 3689.47 1070.75 3507.1 1073.91 3509.47 1179.8 3510.78 1315.92 3509.73 1346.66 3499.75 1386.34 3488.45 1411.57 3472.68 1440.47"/>
    </g>
    <g id="_13" data-name="13">
      <polyline class="cls-4" points="4590.68 4092.44 4599.63 4124.09 4631.16 4246.02 4644.48 4294.72 4656.74 4322.58 4691.95 4387.22 4759.22 4518.61 4837 4663.13 4873.79 4737.23 4883.25 4766.66"/>
      <polyline class="cls-4" points="2793.27 3248.24 2755.31 3201.58 2723.43 3147.98 2679.28 3016.94 2675.78 2992.07 2668.77 2945.12 2653 2784.3"/>
    </g>
    <g id="_14" data-name="14">
      <polyline class="cls-4" points="3473.68 1441.31 3467.43 1434.96 3448.33 1415.25 3403.05 1376.36 3386.75 1361.64 3315.02 1311.19 3274.55 1291.22 3203.6 1279.66 3081.67 1265.47 3018.61 1271.77 2843.6 1305.41 2779.48 1309.61 2726.4 1304.36 2662.81 1284.91 2606.58 1259.95 2571.89 1249.44 2524.59 1243.66 2439.45 1240.77 2388.21 1236.04 2363.25 1227.36 2326.2 1193.99 2309.38 1168.77 2263.4 1085.2 2218.72 1002.17 2212.94 972.47 2212.94 958.81 2218.46 842.66 2223.19 812.18 2229.24 773.55 2238.17 718.64 2231.86 664.77 2230.29 642.69 2220.83 622.72 2212.94 592.24 2210.32 571.48 2208.74 540.21 2150.67 545.73 2153.03 530.49"/>
      <polyline class="cls-4" points="2152.87 531.52 2153.95 525.63 2179.05 521.42 2184.56 512.09 2188.51 508.81 2195.73 505.39 2199.02 505.39 2208.74 540.21"/>
    </g>
    <g id="_15" data-name="15">
      <polyline class="cls-4" points="3510.68 1304.9 3655.51 1295.39 3764.98 1271.89 3883.66 1236.56 4022.4 1196.62 4123.31 1170.87 4203.72 1179.8 4222.64 1185.58 4265.76 1205.53"/>
      <polyline class="cls-4" points="5152.19 1280.08 5163.63 1273.22 5198.05 1250.49 5260.24 1208.88 5326.64 1163.86 5364.13 1133.73 5375.69 1123.04 5389.35 1085.73 5397.76 1051.57 5398.64 1027.74 5399.69 1010.93 5408.1 996.21 6234.26 170.05"/>
    </g>
    <polyline id="_16" data-name="16" class="cls-4" points="4668.65 2987.34 4686.34 2993.12 4779.37 3009.76 4912.16 3033.23 4953.85 3046.37 4959.63 3061.26 4954.2 3074.4 4935.63 3148.68 4929.67 3181.26 4925.82 3213.15 4925.82 3239.07 4934.58 3290.58 4965.41 3407.25 4972.77 3453.85 4969.26 3489.23 4965.76 3555.8 4965.06 3615.01 4968.56 3672.12 4970.49 3715.04 5050.9 3772.85 5155.22 3837.23 5167.92 3842.4 5185.57 3845.25 6295.4 4052.97"/>
    <g id="_18" data-name="18">
      <polyline class="cls-4" points="4656.74 4322.58 4700.62 4302.08 4777.09 4252.42 4844.89 4205.12 4883.25 4129.44 4883.25 4007.25 4887.45 3950.49 4902.43 3909.5 4949.73 3844.07 4972.59 3798.34 4972.59 3740.8 4970.49 3715.04"/>
      <polyline class="cls-4" points="4959.63 3061.26 4981.53 2976.65 4990.99 2930.93 4975.31 2879.95 4927.92 2756.97 4924.42 2728.24 4927.22 2680.59 4938.96 2544.12 4940.53 2475.28 4927.92 2401.18 4868.53 2183.07 4842.26 2137.88 4797.06 2088.47 4761.85 2050.64 4717.7 1997.55 4699.31 1953.93 4674.61 1830.43 4664.62 1796.27 4638.87 1751.07 4565.22 1629.06"/>
      <polyline class="cls-4" points="3672.39 2380.42 3637.44 2357.82 3625.35 2343.1"/>
    </g>
    <polyline id="_21" data-name="21" class="cls-4" points="4308.07 1573.56 4223.69 1584.3 4218.78 1560.82 4208.27 1532.45 4123.83 1567.13 4072.68 1418.23 4043.6 1311.01"/>
    <polyline id="_22" data-name="22" class="cls-4" points="2919.21 1627.02 2930.71 1631.77 3022.55 1670.14 3066.96 1588.5 3096.91 1527.45 3107.43 1501.96 3111.37 1473.32 3111.37 1448.36 3204.39 1450.72 3209.12 1506.96 3212.8 1520.36 3224.36 1550.05 3238.11 1568.53 3258.55 1588.15 3288.91 1612.68 3343.92 1642.81 3423.54 1685.64 3594.78 1777 3750.7 1882.46 3761 1889.09"/>
    <g id="_24" data-name="24">
      <polyline class="cls-4" points="3943.33 2030.48 3939.37 2060.97 3931.31 2135.42 3922.55 2227.22 3916.16 2260.28"/>
      <polyline class="cls-4" points="3843.45 2403.01 3782.49 2403.01 3732.83 2399.6 3696.04 2389.61 3671.16 2379.62"/>
      <polyline class="cls-4" points="3128.18 3430.72 3089.56 3433.35 2996.01 3437.55 2962.9 3445.96 2935.05 3452.27 2901.41 3468.04 2871.98 3497.47 2823.98 3535.83 2774.75 3564.74 2722.72 3575.77 2654.93 3591.01 2588.18 3609.93 2627.07 3689.29 2645.47 3733.44 2667.02 3784.42 2691.72 3874.81 2632.86 3908.97"/>
    </g>
    <g id="_25" data-name="25">
      <polyline class="cls-4" points="3507.1 1073.91 3394.72 1073.91 3394.72 1102.9 3394.72 1178.93 3509.47 1179.8"/>
      <polyline class="cls-4" points="3250.9 3634.11 3330.78 3542.14 3375.98 3491.16 3521.56 3589.96 3590.4 3645.67 3460.07 3809.38"/>
      <polyline class="cls-4" points="3187.57 4010.4 2964.74 4119.19 2832.04 4181.2 2775.8 4224.82 2698.02 4324.68 2585.56 4462.37 2401.62 4590.61"/>
    </g>
    <g id="_201" data-name="201">
      <polyline class="cls-4" points="4115.16 3224.71 4130.93 3230.75 4239.28 3296.88"/>
      <polyline class="cls-4" points="4291.31 3346.99 4314.26 3357.06 4340.71 3357.06 4350.87 3343.48 4357.97 3264.26 4363.62 3206.71 4363.62 3108.04 4363.62 3063.89 4356.48 2966.49 4340.35 2964"/>
    </g>
    <g id="_202" data-name="202">
      <line class="cls-5" x1="3705.5" y1="2256.65" x2="3875.07" y2="2339.48"/>
      <polyline class="cls-4" points="4222.91 2589.89 4195.31 2609.12 4165.88 2635.74 4145.91 2681.29 4138.29 2717.29"/>
      <polyline class="cls-4" points="4539.89 2916.27 4545.15 2892.04 4571.6 2802.17 4587.72 2762.58 4577.91 2749.96 4543.92 2709.67 4539.02 2700.21 4531.29 2697.56"/>
      <polyline class="cls-4" points="4043.83 1311.87 4032.91 1269.67 4020.3 1204.24 4014.26 1170.87 4009 1154.05 4009 1099.13 4006.64 1024.5 4006.64 969.85"/>
    </g>
    <g id="_203" data-name="203">
      <line class="cls-5" x1="4179.54" y1="2406.96" x2="4242.78" y2="2432.74"/>
      <line class="cls-5" x1="4257.4" y1="2246.47" x2="4126.76" y2="2254.2"/>
      <polyline class="cls-4" points="4098.69 2051.61 4063.22 2008.94 3992.45 1953.23 3816.21 1822.9 3735.63 1761.23 3615.45 1672.74"/>
    </g>
    <g id="_204" data-name="204">
      <path class="cls-4" d="m4336.18,1855.13l-20.34,10.17-10.16-3.11-13.14-12.65-38.36-34.69-19.62-32.58-7.71-26.98-36.79-47.65v-12.26s-23.48-35.74-25.06-38.89-7.88-31.88-7.88-31.88l-21.02-20.32-12.26-37.14"/>
      <polyline class="cls-4" points="4254.17 1814.84 4316.18 1785.41 4367.34 1771.38"/>
      <polyline class="cls-4" points="3849.2 2387.53 3802.2 2387.53 3768.83 2381.73 3716.27 2360.45 3684.48 2339.48 3663.45 2322.61 3649.69 2305.44"/>
    </g>
    <g id="_205" data-name="205">
      <line class="cls-5" x1="3771.19" y1="1469.12" x2="3643.8" y2="1467.62"/>
      <line class="cls-5" x1="3949.88" y1="1559.51" x2="3768.59" y2="1557.32"/>
    </g>
    <g id="_206" data-name="206">
      <polyline class="cls-4" points="4051.13 1891.74 4101.41 1865.29 4056.21 1782.96 4005.76 1684.15 3971.16 1610.75 3949.93 1561.29"/>
      <line class="cls-5" x1="3916.65" y1="1468.37" x2="3771.78" y2="1469.12"/>
      <polyline class="cls-4" points="3546.38 1501.77 3534.96 1519.57 3512.36 1577.12 3518.93 1599.72 3508.68 1624.68 3472.16 1677.23 3454.81 1690.9 3441.18 1695.05"/>
      <polyline class="cls-4" points="3408.86 1677.74 3391.48 1710.61 3369.15 1751.6 3351.8 1792.33 3346.29 1864.07 3310.02 1935.28 3293.47 1963.39 3316.33 1974.69 3334.2 1988.62 3348.13 2008.59 3410.93 2044.33 3378.96 2088.82"/>
    </g>
    <polyline id="_207" data-name="207" class="cls-4" points="3171.02 3558.69 2978.67 3677.2 3188.98 4012.57"/>
    <g id="_208" data-name="208">
      <polyline class="cls-4" points="3749.16 2033.55 3659.25 1968.65 3688.48 1726.52"/>
    </g>
    <g id="_209" data-name="209">
      <polyline class="cls-4" points="1647.78 2168.64 1567.92 2224.07 1536.04 2248.94 1470.87 2279.77 1438.99 2282.93 1283.78 2262.26 1046.58 2224.07"/>
      <line class="cls-5" x1="1773.24" y1="2058.69" x2="1769.89" y2="2151.23"/>
      <polyline class="cls-4" points="2052.48 2140.33 2057.12 2174.93 2062.11 2222.49 2053.97 2278.72 2100.74 2320.77 2134.9 2344.94 2209.26 2382.52 2222.93 2402.75 2291.78 2444.27 2319.1 2496.3 2327.51 2542.02 2355.37 2614.55 2379.02 2655.01 2382.17 2684.97 2369.56 2709.15 2359.57 2733.85 2295.45 2765.91 2382.17 3001.35 2395.83 3062.84 2406.34 3088.07 2420.53 3088.07 2429.47 3104.36 2426.32 3120.12"/>
      <polyline class="cls-4" points="1673.95 2074.11 1681.62 2086.46 1700.36 2135.42 1706.14 2153.91"/>
    </g>
    <polyline id="_301" data-name="301" class="cls-4" points="3460.51 3809.38 3476.27 3826.37 3690.78 4005.67 3690.78 4478.66 4263.63 4901.2"/>
    <polyline id="_302" data-name="302" class="cls-4" points="4883.25 4766.66 4883.25 5323.74 5601.41 6041.91"/>
    <polyline id="_304" data-name="304" class="cls-4" points="1567.92 2224.07 1557.06 2264.01 1567.92 2376.47 1567.92 3679.83 1162.55 4085.2"/>
    <polyline id="_305" data-name="305" class="cls-4" points="2199.02 505.39 2199.02 485.03 2404.24 103.36 3615.45 103.36"/>
    <polyline id="_306" data-name="306" class="cls-4" points="4927.26 1442.58 5047.22 1412.09 5510.23 1412.09 5975.78 946.55 6512.97 946.55"/>
    <g id="_307" data-name="307">
      <polyline class="cls-4" points="2951.86 1551.89 2998.64 1434.17 3027.54 1345.88 3027.54 1270.88"/>
      <polyline class="cls-4" points="2150.67 545.73 1872.13 565.44 1600.16 577 1875.41 1 3275.6 1 3378.02 103.42"/>
    </g>
    <g id="_308" data-name="308">
      <line id="_308-2" data-name="308" class="cls-5" x1="3690.78" y1="4478.66" x2="3881.03" y2="4478.66"/>
      <line class="cls-5" x1="3179.1" y1="1844.24" x2="3263.51" y2="1730.05"/>
    </g>
    <polyline id="_309" data-name="309" class="cls-4" points="2779.18 3258.67 2757.76 3273.76 1692.65 3734.49 1388.89 4038.26"/>
    <polyline id="_601" data-name="601" class="cls-4" points="1046.58 2224.07 211.47 1388.96 211.47 1007.95"/>
    <polyline id="_602" data-name="602" class="cls-4" points="1600.16 577 1296.39 577 689.91 1007.95 46.64 1007.95"/>
    <polyline id="H1" class="cls-4" points="2930.49 1846.37 2954.14 1863.72 2996.89 1911.89 3069.63 1786.71"/>
  </g>
  <g id="_站点" data-name="站点">
    <g>
      <circle class="cls-1" cx="47.42" cy="1007.95" r="2.5"/>
      <circle class="cls-2" cx="47.42" cy="1007.95" r="2.08"/>
    </g>
    <g>
      <circle class="cls-1" cx="211.47" cy="1007.95" r="2.5"/>
      <circle class="cls-2" cx="211.47" cy="1007.95" r="2.08"/>
    </g>
  </g>
</svg>