<?xml version="1.0" encoding="UTF-8"?>
<svg xmlns="http://www.w3.org/2000/svg" viewBox="0 0 6876 6581.96">
  <defs>
    <style>
      .cls-1, .cls-2, .cls-3 {
        stroke-width: 0px;
      }

      .cls-2 {
        fill: #fff;
      }

      .cls-4 {
        stroke: #007dc4;
        stroke-width: 15px;
      }

      .cls-4, .cls-5 {
        stroke-miterlimit: 10;
      }

      .cls-4, .cls-5, .cls-6, .cls-7 {
        fill: none;
      }

      .cls-3 {
        fill: #888;
      }

      .cls-5 {
        stroke: #187943;
        stroke-width: 4px;
      }

      .cls-6 {
        fill-rule: evenodd;
      }

      .cls-6, .cls-7 {
        stroke: #000;
        stroke-linecap: round;
        stroke-linejoin: round;
        stroke-width: 2px;
      }
    </style>
  </defs>
  <g id="_底图" data-name="底图">
    <rect class="cls-2" width="6876" height="6581.96"/>
    <g id="_标题" data-name="标题">
      <g>
        <path class="cls-1" d="m303.26,215.27v67.36h-16.87v-6.75h-30.51v42.12h-17.01v-42.12h-30.37v7.42h-16.2v-68.04h46.57v-23.35h17.01v23.35h47.38Zm-64.39,44.82v-29.02h-30.37v29.02h30.37Zm47.52,0v-29.02h-30.51v29.02h30.51Z"/>
        <path class="cls-1" d="m359.97,241.33c-1.89,17.41-5.27,40.77-9.85,56.02l-16.2-6.48c4.73-14.31,8.64-34.56,10.39-52.51l15.66,2.97Zm25.38-10.93v62.64c0,6.34,1.08,7.42,7.56,7.42h19.3c6.75,0,7.96-4.32,8.91-25.38,3.78,2.83,10.66,5.67,15.12,6.75-1.89,25.65-6.21,33.61-22.81,33.61h-22.41c-17.55,0-22.41-5.4-22.41-22.41v-62.64h16.74Zm-1.21-36.31c12.15,7.69,29.29,19.57,37.39,27.94l-11.88,12.55c-7.29-8.23-23.89-21.06-36.45-29.56l10.93-10.93Zm58.86,39.96c7.56,16.06,14.58,36.31,17.41,50.22l-16.33,6.75c-2.02-13.77-9.04-35.1-16.06-50.89l14.98-6.07Z"/>
        <path class="cls-1" d="m605.93,241.19c-4.32,17.68-10.26,33.34-18.49,46.3,2.16,8.91,4.59,14.04,7.15,14.04,2.02,0,3.1-6.34,3.51-20.11,2.97,3.37,7.56,6.88,11.2,8.37-2.02,20.79-6.21,26.59-16.6,26.59-6.61,0-11.74-5.67-15.66-14.98-5.53,6.48-11.88,12.01-18.9,16.74-2.16-2.7-7.83-8.37-11.2-10.66,9.99-5.94,18.22-13.5,25.11-22.81-3.51-16.33-5.4-37.39-6.34-59.53h-26.32v14.58h24.03s0,3.65-.14,5.4c-.4,30.1-.94,42.12-3.65,45.76-2.16,2.97-4.18,4.18-7.42,4.72-2.7.54-7.02.67-11.61.54-.4-4.05-1.48-9.31-3.37-12.69-2.16,12.96-6.48,25.65-15.12,34.96-2.16-2.7-8.23-7.83-11.61-9.85,5.4-6.07,8.91-13.5,10.8-21.06-11.88,4.86-24.57,10.12-34.83,14.31l-5.13-16.06c4.05-1.08,8.77-2.7,14.04-4.46v-42.52h-11.74v-14.85h11.74v-30.24h14.85v30.24h10.53v14.85h-10.53v37.26l10.39-3.65,1.89,9.85c1.89-9.04,2.16-18.63,2.16-26.86v-44.82h40.63c-.13-6.34-.27-12.55-.27-18.76h15.12c-.14,6.35-.14,12.55,0,18.76h10.53c-2.7-4.19-6.61-9.04-10.26-12.82l10.93-6.48c4.99,4.72,10.66,11.34,13.09,15.79l-5.67,3.51h7.42v14.58h-25.78c.67,14.17,1.62,27.54,3.1,39.01,3.38-7.83,5.94-16.47,7.96-25.65l14.44,2.7Zm-66.55,11.47v2.7c0,8.37-.4,18.09-2.02,27.67,3.38.41,5.94.41,7.42.41s2.43-.41,3.38-1.62c1.21-2.02,1.62-9.18,1.89-29.16h-10.66Z"/>
        <path class="cls-1" d="m754.57,298.83v15.39h-117.45v-116.37h113.94v15.39h-98.28v85.59h101.79Zm-25.24-6.21c-6.21-7.29-15.93-16.6-26.73-26.46-11.07,10.53-22.81,19.57-34.56,26.73-2.7-3.24-8.64-9.45-12.28-12.42,12.28-6.34,24.16-14.98,34.96-24.7-9.99-8.64-20.25-17.14-29.43-24.3l11.2-9.85c8.77,6.88,19.17,14.85,29.29,23.22,8.1-8.64,14.98-17.82,20.65-27.4l15.25,6.07c-6.75,11.07-14.85,21.6-23.89,31.32,11.2,9.31,21.33,18.49,28.08,25.92l-12.55,11.88Z"/>
        <path class="cls-1" d="m828.82,200.29c-9.04,21.87-23.35,42.25-37.93,55.48-2.16-2.02-6.75-5.54-9.31-7.15,15.12-11.88,28.62-31.18,36.58-51.3l10.66,2.97Zm37.12,64.66c11.74,14.31,25.51,33.21,32.13,45.36l-9.72,5.4c-2.16-4.32-5.4-9.58-8.91-15.12-70.87,4.86-78.16,5.27-83.16,7.15-.54-2.16-2.43-7.69-3.92-10.53,3.51-.81,7.15-4.86,12.28-11.2,5.26-6.07,21.6-29.43,32.4-51.84l10.8,4.86c-11.07,20.38-24.3,40.36-37.53,56.02l62.77-3.78c-5.4-7.56-11.2-15.39-16.47-22l9.31-4.32Zm-2.16-68.58c8.91,18.36,26.05,39.69,39.96,50.89-2.56,2.02-6.34,5.8-8.37,8.5-13.9-12.82-31.05-35.37-41.44-55.62l9.85-3.78Z"/>
        <path class="cls-1" d="m1020.65,251.45c-5.53,13.77-13.09,25.11-22.54,34.15,13.9,10.53,31.72,17.68,53.32,21.06-2.16,2.16-4.86,6.21-6.21,9.04-22.27-4.32-40.36-12.01-54.67-23.62-14.85,11.74-33.34,19.3-55.08,24.84-1.08-2.43-4.05-6.88-6.08-9.04,21.6-4.46,39.82-11.61,53.86-22.41-9.31-9.04-16.47-20.25-21.87-33.34l8.91-2.7c4.59,11.47,11.47,21.6,20.25,29.83,8.64-8.23,15.39-18.36,19.84-30.64l10.26,2.83Zm27.27-29.7h-115.83v-9.85h56.02c-1.89-4.72-5.67-11.34-8.91-16.6l9.31-3.24c3.78,5.4,8.1,12.82,9.99,17.41l-6.07,2.43h55.48v9.85Zm-72.49,7.96c-9.04,11.47-23.22,23.49-35.1,31.18-1.75-2.02-5.53-5.8-7.69-7.56,11.88-6.75,25.11-17.14,33.21-27.4l9.58,3.78Zm38.34-4.05c12.28,8.37,27.4,20.52,34.69,29.16l-8.23,6.48c-6.75-8.5-21.73-21.33-34.15-29.83l7.69-5.8Z"/>
        <path class="cls-1" d="m1123.12,263.33c-.27,2.56-.27,6.48,0,8.37-33.61,6.88-38.07,8.1-40.9,9.72-.54-2.02-1.89-6.48-3.1-9.18,2.83-.54,5.94-3.78,9.99-8.77,2.56-2.7,7.83-9.45,13.63-18.22-16.2,2.16-19.44,2.97-21.46,4.05-.4-2.16-2.02-6.88-3.1-9.58,2.43-.54,4.73-3.65,7.69-8.23,2.83-4.45,12.55-21.6,17.95-37.66l9.45,4.32c-5.94,13.9-13.63,28.48-21.6,39.96l16.87-1.62c3.1-5,5.94-9.99,8.5-14.98l8.37,5.13c-8.64,14.85-18.63,29.56-29.02,41.58l26.73-4.86Zm2.03,31.86l-44.14,13.09-2.02-9.72c11.07-2.56,28.08-7.42,44.68-11.88l1.49,8.5Zm73.71-32.13c-6.75,10.53-15.79,20.11-26.46,28.08,4.18,9.85,9.31,15.39,15.12,15.39,3.65,0,5.13-3.24,5.67-15.12,2.16,2.29,5.13,4.46,7.42,5.27-1.76,15.12-4.86,19.57-14.04,19.57s-16.74-7.15-22.27-19.3c-10.66,7.02-22.68,12.96-35.23,17.28-1.35-2.56-3.91-5.94-6.21-8.23,13.77-4.18,26.73-10.26,38.07-17.82-2.83-8.5-4.86-18.49-6.61-29.7l-25.65,4.99-1.75-9.04,26.19-4.86c-.68-5.8-1.22-11.88-1.62-18.09l-19.98,3.1-1.76-9.04,21.19-3.1c-.54-9.45-.81-19.17-.94-29.29h9.85c0,9.72.13,18.9.54,27.81l32.26-4.73,1.62,8.77-33.34,5.13c.54,6.21,1.08,12.01,1.75,17.68l33.61-6.34,1.75,8.77-34.29,6.48c1.48,9.58,3.37,18.22,5.53,25.51,8.5-6.88,15.79-14.58,21.19-23.08l8.37,3.92Zm-13.5-49.54c-4.19-3.65-12.69-8.91-19.3-12.15l5.67-5.53c6.61,2.83,15.25,7.96,19.44,11.47l-5.8,6.21Z"/>
        <path class="cls-1" d="m1342.63,303.29c0,6.34-1.76,9.45-6.08,11.2-4.32,1.62-11.61,1.89-23.76,1.75-.54-2.83-2.43-7.15-3.78-9.99,8.91.4,17.68.27,20.25.27,2.43-.14,3.51-.94,3.51-3.24v-92.34h-90.72v105.43h-9.99v-114.88h110.56v101.79Zm-61.29-18.49c-2.56-4.86-6.21-10.8-10.26-17.14-5.4,12.69-12.01,23.35-20.11,31.99-1.48-1.35-5.67-4.19-7.83-5.53,9.31-9.04,16.47-21.06,21.6-35.37-5.94-8.5-12.55-17.28-18.63-24.7l6.21-5.53c5.27,6.07,10.66,13.09,15.79,19.98,2.56-8.91,4.46-18.22,6.07-28.21l9.18.95c-2.16,13.09-4.99,25.38-8.64,36.45,5.27,7.56,9.99,14.85,13.23,20.65l-6.61,6.48Zm38.88,4.05c-2.7-5.81-6.48-12.96-11.07-20.52-5.4,12.82-12.01,23.62-20.52,32.4-1.76-1.48-5.67-4.32-7.96-5.53,9.99-9.04,17.14-21.46,22.54-36.31-5.8-8.5-12.28-17.28-18.36-24.84l6.48-4.99c5.13,5.94,10.26,12.69,15.12,19.44,2.56-8.77,4.32-18.09,5.81-27.94l9.04.95c-2.02,13.23-4.72,25.38-8.37,36.45,5.94,9.04,11.07,17.95,14.31,25.11l-7.02,5.81Z"/>
        <path class="cls-1" d="m1491.4,199.21v117.45h-9.85v-5.67h-91.93v5.67h-9.72v-117.45h111.51Zm-9.85,102.87v-93.69h-91.93v93.69h91.93Zm-12.55-77.22c-5.67,8.91-14.17,16.6-24.03,23.08,10.26,4.86,22.14,8.5,33.88,10.66-1.75,1.75-4.32,5.26-5.53,7.56-12.69-2.7-25.38-7.29-36.58-13.36-12.69,6.88-26.73,11.88-39.96,14.85-.95-2.29-3.11-6.21-4.73-8.23,11.88-2.16,24.7-6.34,36.18-11.61-5.4-3.65-10.39-7.69-14.58-12.01-4.05,3.65-8.1,6.88-12.28,9.58-1.49-1.62-4.86-4.73-6.88-6.07,11.47-6.75,22.95-17.14,29.7-28.08l8.24,2.7c-1.49,2.7-3.38,5.27-5.4,7.83h34.69l1.62-.41,5.67,3.51Zm-58.72,53.86c18.09,2.02,41.17,7.15,54.27,11.61l-4.59,7.42c-12.69-4.59-35.91-9.99-54.27-12.15l4.59-6.88Zm12.82-16.2c10.8,2.16,24.3,6.48,31.86,9.85l-4.19,6.75c-7.42-3.65-21.06-8.23-31.72-10.53l4.05-6.07Zm-3.78-32.13c4.46,4.86,10.26,9.31,17.14,13.23,7.29-4.18,13.63-8.91,18.49-14.04h-34.83l-.81.81Z"/>
        <path class="cls-3" d="m212.64,376.46c-1.34,2.27-3.14,4.05-5.4,5.33-2.26,1.28-4.81,1.92-7.66,1.92-3.33,0-6.27-.82-8.83-2.45-2.56-1.63-4.54-3.91-5.95-6.84-1.41-2.93-2.11-6.3-2.11-10.1s.71-7.06,2.14-9.96c1.42-2.9,3.42-5.14,6-6.72,2.58-1.58,5.54-2.38,8.9-2.38,2.85,0,5.38.65,7.61,1.94,2.22,1.3,3.98,3.06,5.26,5.3l-4.56,2.64c-.86-1.47-2.07-2.63-3.62-3.48-1.55-.85-3.18-1.27-4.87-1.27-2.21,0-4.16.58-5.86,1.75-1.7,1.17-3.02,2.8-3.96,4.9-.94,2.1-1.42,4.52-1.42,7.27s.47,5.26,1.42,7.44c.94,2.18,2.26,3.86,3.96,5.06,1.7,1.2,3.65,1.8,5.86,1.8,1.66,0,3.25-.43,4.75-1.3,1.5-.86,2.77-2.05,3.79-3.55l4.56,2.69Z"/>
        <path class="cls-3" d="m241.3,371.56h-18c.26,2.37,1.02,4.22,2.28,5.57,1.26,1.34,2.97,2.02,5.11,2.02,1.25,0,2.42-.33,3.5-.98,1.09-.66,2-1.59,2.74-2.81l4.22,2.35c-1.06,1.92-2.46,3.4-4.22,4.44-1.76,1.04-3.84,1.56-6.24,1.56-2.62,0-4.9-.56-6.82-1.68s-3.4-2.71-4.44-4.78c-1.04-2.06-1.56-4.49-1.56-7.27s.5-5.33,1.49-7.44c.99-2.11,2.42-3.74,4.27-4.87,1.86-1.14,4.03-1.7,6.53-1.7,3.55,0,6.36,1.06,8.42,3.17,2.06,2.11,3.1,4.98,3.1,8.59,0,1.5-.13,2.78-.38,3.84Zm-4.94-4.51c0-1.98-.56-3.57-1.68-4.75-1.12-1.18-2.62-1.78-4.51-1.78-1.76,0-3.22.57-4.37,1.7-1.15,1.14-1.92,2.74-2.3,4.82h12.86Z"/>
        <path class="cls-3" d="m248.21,383.04v-26.4h5.23v3.65h.24c.8-1.31,1.91-2.36,3.34-3.14s2.94-1.18,4.54-1.18c2.85,0,5.06.89,6.65,2.66s2.38,4.28,2.38,7.51v16.9h-5.23v-15.94c0-1.89-.51-3.4-1.54-4.54-1.02-1.14-2.34-1.7-3.94-1.7-1.92,0-3.47.62-4.66,1.85-1.18,1.23-1.78,2.87-1.78,4.92v15.41h-5.23Z"/>
        <path class="cls-3" d="m292.42,361.58h-7.34v13.39c0,1.28.34,2.27,1.03,2.98.69.7,1.66,1.06,2.9,1.06.9,0,1.84-.18,2.83-.53v4.9c-1.22.42-2.54.62-3.98.62-2.59,0-4.58-.73-5.95-2.18-1.38-1.46-2.06-3.54-2.06-6.26v-13.97h-4.13v-4.94h4.13v-8.06h5.23v8.06h7.34v4.94Z"/>
        <path class="cls-3" d="m297.89,383.04l-.1-26.4h5.38v4.94h.24c1.02-1.79,2.37-3.18,4.03-4.15,1.66-.98,3.58-1.46,5.76-1.46h.29v5.42h-.43c-3.14,0-5.57.67-7.3,2.02-1.73,1.34-2.59,3.09-2.59,5.23v14.4h-5.28Z"/>
        <path class="cls-3" d="m318.91,381.69c-1.5-1.34-2.26-3.15-2.26-5.42,0-2.85,1.12-5.02,3.36-6.5,2.24-1.49,5.42-2.23,9.55-2.23h3.36v-1.68c0-1.63-.49-2.92-1.46-3.86-.98-.94-2.28-1.42-3.91-1.42-2.11,0-4.16.94-6.14,2.83l-3.26-3.07c2.72-2.91,6-4.37,9.84-4.37,3.1,0,5.58.86,7.42,2.59,1.84,1.73,2.76,4.03,2.76,6.91v17.57h-5.23v-3.5h-.29c-.67,1.28-1.71,2.3-3.12,3.05-1.41.75-2.93,1.13-4.56,1.13-2.53,0-4.54-.67-6.05-2.02Zm10.39-3.17c1.04-.42,1.9-1.06,2.59-1.94.69-.88,1.03-1.96,1.03-3.24v-1.25h-2.54c-2.85,0-4.95.31-6.31.94-1.36.62-2.04,1.59-2.04,2.9,0,.96.38,1.74,1.13,2.33.75.59,1.77.89,3.05.89,1.02,0,2.06-.21,3.1-.62Z"/>
        <path class="cls-3" d="m345.6,345.93h5.23v30.62c0,1.25.62,1.87,1.87,1.87h1.3v4.94h-2.69c-1.89,0-3.31-.45-4.27-1.34s-1.44-2.21-1.44-3.94v-32.16Z"/>
        <path class="cls-3" d="m398.14,376.05c1.49-1.71,2.23-4.04,2.23-6.98v-23.14h5.47v23.47c0,2.91-.56,5.45-1.68,7.61-1.12,2.16-2.72,3.82-4.8,4.97-2.08,1.15-4.51,1.73-7.3,1.73s-5.22-.58-7.3-1.73c-2.08-1.15-3.68-2.81-4.8-4.97-1.12-2.16-1.68-4.7-1.68-7.61v-23.47h5.42v22.94c0,2.98.75,5.34,2.26,7.1,1.5,1.76,3.54,2.64,6.1,2.64s4.58-.86,6.07-2.57Z"/>
        <path class="cls-3" d="m414,383.04l-.1-26.4h5.38v4.94h.24c1.02-1.79,2.37-3.18,4.03-4.15,1.66-.98,3.58-1.46,5.76-1.46h.29v5.42h-.43c-3.14,0-5.57.67-7.3,2.02-1.73,1.34-2.59,3.09-2.59,5.23v14.4h-5.28Z"/>
        <path class="cls-3" d="m434.78,383.04v-37.1h5.23v14.26h.24c.93-1.31,2.08-2.34,3.46-3.07,1.38-.74,2.85-1.1,4.42-1.1,2.14,0,4.05.56,5.71,1.68,1.66,1.12,2.96,2.7,3.89,4.73.93,2.03,1.39,4.36,1.39,6.98,0,2.78-.46,5.26-1.39,7.44-.93,2.18-2.22,3.86-3.89,5.06-1.66,1.2-3.57,1.8-5.71,1.8-1.66,0-3.17-.37-4.51-1.1-1.34-.74-2.46-1.78-3.36-3.12h-.24v3.55h-5.23Zm6.94-6.82c1.26,1.63,2.89,2.45,4.87,2.45,2.11,0,3.83-.82,5.16-2.45,1.33-1.63,1.99-3.76,1.99-6.38,0-1.7-.3-3.22-.89-4.56-.59-1.34-1.42-2.39-2.47-3.14-1.06-.75-2.26-1.13-3.6-1.13s-2.54.38-3.6,1.13c-1.06.75-1.88,1.8-2.47,3.14-.59,1.34-.89,2.86-.89,4.56,0,2.62.63,4.75,1.9,6.38Z"/>
        <path class="cls-3" d="m466.61,381.69c-1.5-1.34-2.26-3.15-2.26-5.42,0-2.85,1.12-5.02,3.36-6.5,2.24-1.49,5.42-2.23,9.55-2.23h3.36v-1.68c0-1.63-.49-2.92-1.46-3.86-.98-.94-2.28-1.42-3.91-1.42-2.11,0-4.16.94-6.14,2.83l-3.26-3.07c2.72-2.91,6-4.37,9.84-4.37,3.1,0,5.58.86,7.42,2.59,1.84,1.73,2.76,4.03,2.76,6.91v17.57h-5.23v-3.5h-.29c-.67,1.28-1.71,2.3-3.12,3.05-1.41.75-2.93,1.13-4.56,1.13-2.53,0-4.54-.67-6.05-2.02Zm10.39-3.17c1.04-.42,1.9-1.06,2.59-1.94.69-.88,1.03-1.96,1.03-3.24v-1.25h-2.54c-2.85,0-4.95.31-6.31.94-1.36.62-2.04,1.59-2.04,2.9,0,.96.38,1.74,1.13,2.33.75.59,1.77.89,3.05.89,1.02,0,2.06-.21,3.1-.62Z"/>
        <path class="cls-3" d="m493.29,383.04v-26.4h5.23v3.65h.24c.8-1.31,1.91-2.36,3.34-3.14s2.94-1.18,4.54-1.18c2.85,0,5.06.89,6.65,2.66s2.38,4.28,2.38,7.51v16.9h-5.23v-15.94c0-1.89-.51-3.4-1.54-4.54-1.02-1.14-2.34-1.7-3.94-1.7-1.92,0-3.47.62-4.66,1.85-1.18,1.23-1.78,2.87-1.78,4.92v15.41h-5.23Z"/>
        <path class="cls-3" d="m571.48,383.04h-5.76l-3.89-11.09h-13.3l-3.89,11.09h-5.76l13.49-37.1h5.62l13.49,37.1Zm-16.46-29.57l-4.66,13.34h9.65l-4.7-13.34h-.29Z"/>
        <path class="cls-3" d="m576.62,383.04l-.1-26.4h5.38v4.94h.24c1.02-1.79,2.37-3.18,4.03-4.15,1.66-.98,3.58-1.46,5.76-1.46h.29v5.42h-.43c-3.14,0-5.57.67-7.3,2.02-1.73,1.34-2.59,3.09-2.59,5.23v14.4h-5.28Z"/>
        <path class="cls-3" d="m618.86,371.56h-18c.26,2.37,1.02,4.22,2.28,5.57,1.26,1.34,2.97,2.02,5.11,2.02,1.25,0,2.42-.33,3.5-.98,1.09-.66,2-1.59,2.74-2.81l4.22,2.35c-1.06,1.92-2.46,3.4-4.22,4.44-1.76,1.04-3.84,1.56-6.24,1.56-2.62,0-4.9-.56-6.82-1.68s-3.4-2.71-4.44-4.78c-1.04-2.06-1.56-4.49-1.56-7.27s.5-5.33,1.49-7.44c.99-2.11,2.42-3.74,4.27-4.87,1.86-1.14,4.03-1.7,6.53-1.7,3.55,0,6.36,1.06,8.42,3.17,2.06,2.11,3.1,4.98,3.1,8.59,0,1.5-.13,2.78-.38,3.84Zm-4.94-4.51c0-1.98-.56-3.57-1.68-4.75-1.12-1.18-2.62-1.78-4.51-1.78-1.76,0-3.22.57-4.37,1.7-1.15,1.14-1.92,2.74-2.3,4.82h12.86Z"/>
        <path class="cls-3" d="m626.78,381.69c-1.5-1.34-2.26-3.15-2.26-5.42,0-2.85,1.12-5.02,3.36-6.5,2.24-1.49,5.42-2.23,9.55-2.23h3.36v-1.68c0-1.63-.49-2.92-1.46-3.86-.98-.94-2.28-1.42-3.91-1.42-2.11,0-4.16.94-6.14,2.83l-3.26-3.07c2.72-2.91,6-4.37,9.84-4.37,3.1,0,5.58.86,7.42,2.59,1.84,1.73,2.76,4.03,2.76,6.91v17.57h-5.23v-3.5h-.29c-.67,1.28-1.71,2.3-3.12,3.05-1.41.75-2.93,1.13-4.56,1.13-2.53,0-4.54-.67-6.05-2.02Zm10.39-3.17c1.04-.42,1.9-1.06,2.59-1.94.69-.88,1.03-1.96,1.03-3.24v-1.25h-2.54c-2.85,0-4.95.31-6.31.94-1.36.62-2.04,1.59-2.04,2.9,0,.96.38,1.74,1.13,2.33.75.59,1.77.89,3.05.89,1.02,0,2.06-.21,3.1-.62Z"/>
        <path class="cls-3" d="m683.18,346.36c4.35,0,7.71.96,10.08,2.88,2.37,1.92,3.55,4.64,3.55,8.16s-1.14,6.28-3.43,8.18c-2.29,1.9-5.58,2.86-9.86,2.86h-7.34v14.3h-3.7v-36.38h10.7Zm-.34,18.62c3.23,0,5.73-.66,7.49-1.97,1.76-1.31,2.64-3.18,2.64-5.62s-.88-4.3-2.64-5.59c-1.76-1.3-4.26-1.94-7.49-1.94h-6.67v15.12h6.67Z"/>
        <path class="cls-3" d="m721.77,357.4v25.34h-3.55v-3.84h-.29c-.77,1.38-1.9,2.47-3.38,3.29-1.49.82-3.06,1.22-4.73,1.22-2.82,0-5.02-.87-6.6-2.62-1.58-1.74-2.38-4.2-2.38-7.37v-16.03h3.55v15.46c0,2.24.58,4.02,1.75,5.33,1.17,1.31,2.7,1.97,4.58,1.97,2.21,0,4.01-.72,5.4-2.16,1.39-1.44,2.09-3.3,2.09-5.57v-15.02h3.55Z"/>
        <path class="cls-3" d="m729.98,382.75v-36.38h3.55v15.02h.24c.93-1.44,2.11-2.57,3.55-3.38s3.01-1.22,4.7-1.22c2.05,0,3.9.55,5.54,1.66,1.65,1.1,2.94,2.63,3.86,4.58.93,1.95,1.39,4.18,1.39,6.67,0,2.62-.46,4.98-1.39,7.06-.93,2.08-2.22,3.7-3.86,4.87-1.65,1.17-3.5,1.75-5.54,1.75-1.79,0-3.4-.41-4.82-1.22-1.42-.82-2.57-1.96-3.43-3.43h-.24v4.03h-3.55Zm4.39-7.58c.66,1.5,1.58,2.67,2.76,3.5,1.18.83,2.51,1.25,3.98,1.25s2.92-.42,4.15-1.25c1.23-.83,2.19-2,2.88-3.5.69-1.5,1.03-3.2,1.03-5.09s-.34-3.58-1.01-5.06c-.67-1.49-1.62-2.65-2.83-3.48-1.22-.83-2.59-1.25-4.13-1.25s-2.85.42-4.03,1.25c-1.18.83-2.11,1.99-2.78,3.48-.67,1.49-1.01,3.18-1.01,5.06s.33,3.58.98,5.09Z"/>
        <path class="cls-3" d="m759.79,346.36h3.55v31.39c0,1.38.67,2.06,2.02,2.06h1.34v3.31h-2.11c-3.2,0-4.8-1.47-4.8-4.42v-32.35Z"/>
        <path class="cls-3" d="m776.8,350.01c-.46.45-1.08.67-1.85.67s-1.37-.22-1.8-.67c-.43-.45-.65-1.06-.65-1.82s.22-1.38.65-1.82c.43-.45,1.03-.67,1.8-.67s1.38.22,1.85.67c.46.45.7,1.06.7,1.82s-.23,1.38-.7,1.82Zm-.02,7.39v25.39h-3.55v-25.39h3.55Z"/>
        <path class="cls-3" d="m789.86,381.79c-1.78-1.12-3.15-2.7-4.13-4.73-.98-2.03-1.46-4.38-1.46-7.03s.49-4.94,1.46-6.94c.98-2,2.35-3.55,4.13-4.66,1.78-1.1,3.86-1.66,6.26-1.66,1.82,0,3.58.48,5.28,1.44,1.7.96,3.04,2.24,4.03,3.84l-2.78,1.97c-.74-1.22-1.7-2.17-2.9-2.86-1.2-.69-2.49-1.03-3.86-1.03-1.57,0-2.95.42-4.15,1.25-1.2.83-2.14,1.99-2.81,3.48-.67,1.49-1.01,3.21-1.01,5.16s.33,3.74.98,5.26c.66,1.52,1.58,2.7,2.78,3.55,1.2.85,2.58,1.27,4.15,1.27,1.38,0,2.67-.34,3.89-1.03,1.22-.69,2.19-1.64,2.93-2.86l2.78,1.97c-.99,1.6-2.34,2.88-4.03,3.84-1.7.96-3.46,1.44-5.28,1.44-2.4,0-4.49-.56-6.26-1.68Z"/>
        <path class="cls-3" d="m843.35,382.75h-3.74v-32.88h-11.47v-3.5h26.64v3.5h-11.42v32.88Z"/>
        <path class="cls-3" d="m856.22,382.75v-25.34h3.55v5.09h.24c1.02-1.76,2.37-3.16,4.03-4.2,1.66-1.04,3.54-1.56,5.62-1.56h.38v3.84h-.48c-1.95,0-3.67.36-5.16,1.08-1.49.72-2.63,1.66-3.43,2.83-.8,1.17-1.2,2.39-1.2,3.67v14.59h-3.55Z"/>
        <path class="cls-3" d="m875.66,381.52c-1.44-1.26-2.16-2.95-2.16-5.06,0-5.44,4.24-8.16,12.72-8.16h3.74v-2.3c0-1.86-.54-3.32-1.63-4.39-1.09-1.07-2.58-1.61-4.46-1.61-2.14,0-4.3.91-6.48,2.74l-2.11-2.45c2.53-2.37,5.46-3.55,8.78-3.55,2.94,0,5.26.78,6.96,2.35,1.7,1.57,2.54,3.71,2.54,6.43v17.23h-3.6v-3.84h-.24c-.77,1.38-1.9,2.47-3.38,3.29-1.49.82-3.08,1.22-4.78,1.22-2.5,0-4.46-.63-5.9-1.9Zm10.1-2.16c1.2-.53,2.2-1.33,3-2.4.8-1.07,1.2-2.36,1.2-3.86v-1.54h-3.07c-3.33,0-5.78.38-7.37,1.15s-2.38,1.94-2.38,3.5c0,1.22.45,2.18,1.34,2.88.9.7,2.13,1.06,3.7,1.06,1.18,0,2.38-.26,3.58-.79Z"/>
        <path class="cls-3" d="m901.48,382.75v-25.34h3.55v3.89h.24c.77-1.38,1.9-2.48,3.41-3.31,1.5-.83,3.07-1.25,4.7-1.25,2.82,0,5.02.88,6.62,2.64,1.6,1.76,2.4,4.22,2.4,7.39v15.98h-3.55v-15.41c0-2.21-.6-3.98-1.8-5.33-1.2-1.34-2.71-2.02-4.54-2.02-2.21,0-4.01.73-5.4,2.18-1.39,1.46-2.09,3.3-2.09,5.54v15.02h-3.55Z"/>
        <path class="cls-3" d="m932.34,381.91c-1.73-1.01-3.06-2.38-3.98-4.1l3.02-1.78c.77,1.31,1.77,2.33,3,3.05,1.23.72,2.65,1.08,4.25,1.08,1.73,0,3.1-.34,4.1-1.03,1.01-.69,1.51-1.62,1.51-2.81,0-1.12-.5-2.03-1.49-2.74-.99-.7-2.61-1.3-4.85-1.78-2.94-.7-5.14-1.63-6.6-2.78-1.46-1.15-2.18-2.67-2.18-4.56,0-2.37.82-4.25,2.47-5.64,1.65-1.39,3.9-2.09,6.74-2.09,2.11,0,3.98.46,5.59,1.37,1.62.91,2.95,2.22,4.01,3.91l-2.83,2.02c-.83-1.31-1.83-2.31-3-3-1.17-.69-2.44-1.03-3.82-1.03-1.66,0-2.99.37-3.98,1.1-.99.74-1.49,1.71-1.49,2.93,0,1.06.54,1.95,1.61,2.69,1.07.74,2.68,1.36,4.82,1.87,5.76,1.25,8.64,3.63,8.64,7.15,0,2.37-.84,4.24-2.52,5.62-1.68,1.38-3.96,2.06-6.84,2.06-2.4,0-4.46-.5-6.19-1.51Z"/>
        <path class="cls-3" d="m954.14,394.22v-36.82h3.55v4.03h.24c.93-1.47,2.11-2.62,3.55-3.46,1.44-.83,3.01-1.25,4.7-1.25,2.05,0,3.9.55,5.54,1.66,1.65,1.1,2.94,2.64,3.86,4.61.93,1.97,1.39,4.2,1.39,6.7,0,2.62-.46,4.98-1.39,7.06-.93,2.08-2.22,3.7-3.86,4.87-1.65,1.17-3.5,1.75-5.54,1.75-1.82,0-3.44-.4-4.85-1.2-1.41-.8-2.54-1.95-3.41-3.46h-.24v15.5h-3.55Zm4.39-19.03c.66,1.49,1.57,2.65,2.74,3.48,1.17.83,2.5,1.25,4.01,1.25s2.92-.42,4.15-1.25c1.23-.83,2.2-1.99,2.9-3.48.7-1.49,1.06-3.19,1.06-5.11s-.34-3.58-1.03-5.06c-.69-1.49-1.64-2.66-2.86-3.5-1.22-.85-2.59-1.27-4.13-1.27s-2.85.42-4.03,1.27c-1.18.85-2.11,2.02-2.78,3.5-.67,1.49-1.01,3.18-1.01,5.06s.33,3.62.98,5.11Z"/>
        <path class="cls-3" d="m988.14,381.79c-1.74-1.09-3.09-2.64-4.03-4.66-.94-2.02-1.42-4.37-1.42-7.06s.47-5.04,1.42-7.06c.94-2.02,2.29-3.57,4.03-4.66,1.74-1.09,3.77-1.63,6.07-1.63s4.33.54,6.07,1.63c1.74,1.09,3.09,2.64,4.03,4.66.94,2.02,1.42,4.37,1.42,7.06s-.47,5.04-1.42,7.06c-.94,2.02-2.29,3.57-4.03,4.66-1.74,1.09-3.77,1.63-6.07,1.63s-4.33-.54-6.07-1.63Zm11.78-4.44c1.44-1.81,2.16-4.23,2.16-7.27s-.72-5.46-2.16-7.27c-1.44-1.81-3.34-2.71-5.71-2.71s-4.27.9-5.71,2.71c-1.44,1.81-2.16,4.23-2.16,7.27s.72,5.46,2.16,7.27c1.44,1.81,3.34,2.71,5.71,2.71s4.27-.9,5.71-2.71Z"/>
        <path class="cls-3" d="m1012.69,382.75v-25.34h3.55v5.09h.24c1.02-1.76,2.37-3.16,4.03-4.2,1.66-1.04,3.54-1.56,5.62-1.56h.38v3.84h-.48c-1.95,0-3.67.36-5.16,1.08-1.49.72-2.63,1.66-3.43,2.83-.8,1.17-1.2,2.39-1.2,3.67v14.59h-3.55Z"/>
        <path class="cls-3" d="m1044.18,360.76h-7.34v14.93c0,1.47.37,2.62,1.1,3.43.74.82,1.76,1.22,3.07,1.22.67,0,1.54-.18,2.59-.53v3.31c-.86.35-1.97.53-3.31.53-2.27,0-4.02-.66-5.23-1.99-1.22-1.33-1.82-3.22-1.82-5.69v-15.22h-3.98v-3.36h3.98v-7.92h3.6v7.92h7.34v3.36Z"/>
        <path class="cls-3" d="m1070.44,382.7h-2.78v-36.29h3.02l20.64,31.54h.19v-31.54h2.74v36.29h-2.98l-20.64-31.54h-.19v31.54Z"/>
        <path class="cls-3" d="m1123.53,370.89h-19.06c.16,3.01,1.05,5.42,2.66,7.22,1.62,1.81,3.72,2.71,6.31,2.71,1.54,0,2.99-.38,4.37-1.13,1.38-.75,2.45-1.78,3.22-3.1l2.06,1.39c-.93,1.63-2.24,2.92-3.94,3.86-1.7.94-3.6,1.42-5.71,1.42-2.34,0-4.38-.54-6.14-1.63-1.76-1.09-3.12-2.62-4.08-4.61-.96-1.98-1.44-4.29-1.44-6.91s.46-4.99,1.39-7.01c.93-2.02,2.24-3.58,3.94-4.68,1.7-1.1,3.68-1.66,5.95-1.66,2.14,0,4.02.49,5.64,1.46,1.62.98,2.86,2.35,3.74,4.13.88,1.78,1.32,3.82,1.32,6.12,0,.74-.08,1.54-.24,2.4Zm-2.5-2.45c0-2.75-.74-4.98-2.21-6.67-1.47-1.7-3.39-2.54-5.76-2.54s-4.27.83-5.81,2.5c-1.54,1.66-2.43,3.9-2.69,6.72h16.46Z"/>
        <path class="cls-3" d="m1142.44,359.95h-7.49v15.74c0,1.63.38,2.9,1.15,3.79.77.9,1.81,1.34,3.12,1.34.77,0,1.65-.19,2.64-.58v2.5c-.99.38-2.05.58-3.17.58-2.02,0-3.59-.64-4.73-1.92-1.14-1.28-1.7-3.1-1.7-5.47v-15.98h-3.98v-2.5h3.98v-7.49h2.69v7.49h7.49v2.5Z"/>
        <path class="cls-3" d="m1152.95,382.7l-8.21-25.25h2.93l6.62,21.5h.19l6.67-21.5h2.98l6.72,21.5h.14l6.62-21.5h2.93l-8.21,25.25h-2.88l-6.72-21.6h-.19l-6.67,21.6h-2.93Z"/>
        <path class="cls-3" d="m1189.43,381.72c-1.7-1.1-3.02-2.66-3.96-4.68-.94-2.02-1.42-4.34-1.42-6.96s.47-4.94,1.42-6.96c.94-2.02,2.26-3.58,3.96-4.68,1.7-1.1,3.65-1.66,5.86-1.66s4.21.55,5.9,1.66c1.7,1.1,3.02,2.66,3.96,4.68.94,2.02,1.42,4.34,1.42,6.96s-.47,4.94-1.42,6.96c-.94,2.02-2.26,3.58-3.96,4.68-1.7,1.1-3.66,1.66-5.9,1.66s-4.16-.55-5.86-1.66Zm10.34-2.18c1.3-.9,2.3-2.16,3.02-3.79.72-1.63,1.08-3.52,1.08-5.66s-.36-4.03-1.08-5.66c-.72-1.63-1.73-2.9-3.02-3.79-1.3-.9-2.79-1.34-4.49-1.34s-3.18.45-4.46,1.34c-1.28.9-2.28,2.16-3,3.79-.72,1.63-1.08,3.52-1.08,5.66s.36,4.03,1.08,5.66c.72,1.63,1.72,2.9,3,3.79,1.28.9,2.77,1.34,4.46,1.34s3.19-.45,4.49-1.34Z"/>
        <path class="cls-3" d="m1213.76,382.7v-25.25h2.64v5.62h.19c.99-1.82,2.36-3.33,4.1-4.51,1.74-1.18,3.75-1.78,6.02-1.78h.43v2.88h-.62c-1.98,0-3.74.43-5.28,1.3-1.54.86-2.73,1.95-3.58,3.26-.85,1.31-1.27,2.61-1.27,3.89v14.59h-2.64Z"/>
        <path class="cls-3" d="m1251.97,382.7h-3.36l-10.94-12.67-2.54,2.35v10.32h-2.64v-36.29h2.64v22.51l12.43-11.47h3.74l-11.71,10.8,12.38,14.45Z"/>
        <path class="cls-3" d="m1278.27,382.75h-2.78v-36.29h2.98l13.63,24.91h.19l13.58-24.91h2.98v36.29h-2.74v-30.96h-.19l-12.82,23.47h-1.82l-12.82-23.47h-.19v30.96Z"/>
        <path class="cls-3" d="m1318.5,381.55c-1.41-1.22-2.11-2.86-2.11-4.94,0-5.28,4.32-7.92,12.96-7.92h4.03v-2.83c0-2.08-.6-3.7-1.8-4.87-1.2-1.17-2.87-1.75-5.02-1.75s-4.38.9-6.62,2.69l-1.58-1.87c1.18-1.02,2.49-1.82,3.91-2.4,1.42-.58,2.92-.86,4.49-.86,2.91,0,5.18.76,6.82,2.28,1.63,1.52,2.45,3.62,2.45,6.31v17.33h-2.64v-4.32h-.19c-.86,1.6-2.08,2.83-3.65,3.7-1.57.86-3.3,1.3-5.18,1.3-2.5,0-4.45-.61-5.86-1.82Zm10.44-1.58c1.33-.64,2.4-1.56,3.22-2.76.82-1.2,1.22-2.58,1.22-4.15v-1.92h-3.55c-7.17,0-10.75,1.78-10.75,5.33,0,1.38.51,2.46,1.54,3.26,1.02.8,2.42,1.2,4.18,1.2,1.44,0,2.82-.32,4.15-.96Z"/>
        <path class="cls-3" d="m1344.18,394.08v-36.62h2.64v4.99h.19c.9-1.76,2.11-3.14,3.65-4.15,1.54-1.01,3.25-1.51,5.14-1.51,2.08,0,3.94.56,5.57,1.68,1.63,1.12,2.91,2.67,3.84,4.66.93,1.98,1.39,4.22,1.39,6.72s-.46,4.91-1.39,6.96c-.93,2.05-2.21,3.65-3.84,4.8-1.63,1.15-3.49,1.73-5.57,1.73s-3.73-.48-5.23-1.44c-1.5-.96-2.69-2.32-3.55-4.08h-.19v16.27h-2.64Zm3.62-18.46c.72,1.62,1.72,2.87,3,3.77,1.28.9,2.74,1.34,4.37,1.34s3.16-.45,4.49-1.34c1.33-.9,2.37-2.15,3.12-3.77.75-1.62,1.13-3.45,1.13-5.5s-.37-3.88-1.1-5.5c-.74-1.62-1.77-2.89-3.1-3.82-1.33-.93-2.82-1.39-4.49-1.39s-3.1.46-4.39,1.39c-1.3.93-2.3,2.2-3.02,3.82-.72,1.62-1.08,3.45-1.08,5.5s.36,3.88,1.08,5.5Z"/>
      </g>
    </g>
    <line class="cls-4" x1="115.67" y1="181.89" x2="115.67" y2="510.61"/>
    <line class="cls-5" x1="106.18" y1="181.89" x2="106.18" y2="510.61"/>
    <g>
      <path class="cls-1" d="m206.09,474.93c-.96,1.44-2.23,2.57-3.8,3.38-1.57.82-3.33,1.22-5.27,1.22-2.45,0-4.6-.59-6.44-1.78-1.85-1.19-3.28-2.86-4.3-5.02-1.02-2.16-1.53-4.66-1.53-7.49s.51-5.23,1.53-7.34c1.02-2.11,2.45-3.75,4.3-4.91s4-1.75,6.44-1.75c1.9,0,3.65.41,5.26,1.22,1.61.82,2.88,1.94,3.82,3.38l-2.23,1.58c-.74-1.08-1.75-1.94-3.02-2.59-1.27-.65-2.56-.97-3.85-.97-1.85,0-3.48.47-4.9,1.42-1.42.95-2.51,2.28-3.29,4-.78,1.72-1.17,3.7-1.17,5.96s.39,4.34,1.17,6.1c.78,1.76,1.88,3.13,3.29,4.1,1.42.97,3.05,1.46,4.9,1.46,1.32,0,2.59-.32,3.82-.97,1.22-.65,2.24-1.54,3.06-2.66l2.23,1.66Z"/>
      <path class="cls-1" d="m213.56,478.32c-1.31-.82-2.32-1.98-3.02-3.49-.71-1.51-1.06-3.28-1.06-5.29s.35-3.78,1.06-5.29c.71-1.51,1.72-2.68,3.02-3.49,1.31-.82,2.83-1.22,4.55-1.22s3.25.41,4.55,1.22c1.31.82,2.32,1.98,3.02,3.49.71,1.51,1.06,3.28,1.06,5.29s-.35,3.78-1.06,5.29c-.71,1.51-1.72,2.68-3.02,3.49-1.31.82-2.83,1.22-4.55,1.22s-3.25-.41-4.55-1.22Zm8.84-3.33c1.08-1.36,1.62-3.17,1.62-5.45s-.54-4.1-1.62-5.45c-1.08-1.36-2.51-2.03-4.28-2.03s-3.2.68-4.28,2.03c-1.08,1.36-1.62,3.17-1.62,5.45s.54,4.1,1.62,5.45c1.08,1.36,2.51,2.03,4.28,2.03s3.2-.68,4.28-2.03Z"/>
      <path class="cls-1" d="m231.07,487.64v-27.61h2.66v3.02h.18c.7-1.1,1.58-1.97,2.66-2.59,1.08-.62,2.26-.94,3.53-.94,1.54,0,2.92.41,4.16,1.24,1.24.83,2.2,1.98,2.9,3.46.7,1.48,1.04,3.15,1.04,5.02,0,1.97-.35,3.73-1.04,5.29-.7,1.56-1.66,2.78-2.9,3.65-1.24.88-2.62,1.31-4.16,1.31-1.37,0-2.58-.3-3.64-.9s-1.91-1.46-2.56-2.59h-.18v11.63h-2.66Zm3.29-14.27c.49,1.12,1.18,1.99,2.05,2.61.88.62,1.88.94,3.01.94s2.19-.31,3.11-.94c.92-.62,1.65-1.49,2.18-2.61.53-1.12.79-2.39.79-3.83s-.26-2.68-.77-3.8c-.52-1.12-1.23-1.99-2.14-2.63-.91-.64-1.94-.95-3.1-.95s-2.14.32-3.02.95c-.89.64-1.58,1.51-2.09,2.63s-.76,2.38-.76,3.8.25,2.72.74,3.83Z"/>
      <path class="cls-1" d="m257.07,479.04l-7.42-19.01h3.02l5.9,15.66h.22l5.69-15.66h3.02l-10.69,27.65h-2.99l3.24-8.64Z"/>
      <path class="cls-1" d="m270.35,479.04v-19.01h2.66v3.82h.18c.77-1.32,1.78-2.37,3.02-3.15,1.25-.78,2.65-1.17,4.21-1.17h.29v2.88h-.36c-1.46,0-2.75.27-3.87.81-1.12.54-1.97,1.25-2.57,2.12-.6.88-.9,1.79-.9,2.75v10.94h-2.66Z"/>
      <path class="cls-1" d="m286.86,454.49c-.35.34-.81.5-1.39.5s-1.03-.17-1.35-.5c-.32-.34-.49-.79-.49-1.37s.16-1.03.49-1.37c.32-.34.77-.5,1.35-.5s1.04.17,1.39.5c.35.34.52.79.52,1.37s-.17,1.03-.52,1.37Zm-.02,5.54v19.04h-2.66v-19.04h2.66Z"/>
      <path class="cls-1" d="m295.51,487.07c-1.39-.7-2.5-1.67-3.31-2.92l2.23-1.51c.6.94,1.43,1.67,2.48,2.2,1.06.53,2.14.79,3.24.79,1.87,0,3.32-.57,4.36-1.71,1.03-1.14,1.55-2.74,1.55-4.81v-3.1h-.22c-.62,1.13-1.46,2-2.52,2.61-1.06.61-2.24.92-3.56.92-1.54,0-2.93-.44-4.18-1.31-1.25-.88-2.23-2.09-2.95-3.64-.72-1.55-1.08-3.29-1.08-5.24s.35-3.59,1.06-5.09c.71-1.5,1.69-2.66,2.95-3.49,1.26-.83,2.66-1.24,4.19-1.24,1.22,0,2.36.31,3.42.94,1.06.62,1.94,1.49,2.66,2.59h.22v-2.99h2.66v18.61c0,3.02-.74,5.35-2.21,6.98s-3.59,2.45-6.35,2.45c-1.7,0-3.25-.35-4.64-1.04Zm7.88-11.09c.86-.62,1.54-1.49,2.02-2.61s.72-2.39.72-3.83-.25-2.69-.74-3.82c-.49-1.13-1.18-2-2.07-2.63-.89-.62-1.9-.94-3.02-.94s-2.18.31-3.1.94c-.91.62-1.63,1.49-2.14,2.61-.52,1.12-.77,2.39-.77,3.83s.26,2.72.79,3.83c.53,1.12,1.25,1.99,2.18,2.61.92.62,1.97.94,3.15.94s2.12-.31,2.99-.94Z"/>
      <path class="cls-1" d="m313.98,479.04v-27.29h2.66v11.2h.18c.58-1.03,1.43-1.86,2.56-2.48,1.13-.62,2.3-.94,3.53-.94,2.11,0,3.77.66,4.97,1.98,1.2,1.32,1.8,3.17,1.8,5.54v11.99h-2.66v-11.56c0-1.66-.45-2.99-1.35-4s-2.03-1.51-3.4-1.51c-1.66,0-3.01.55-4.05,1.64-1.04,1.09-1.57,2.48-1.57,4.16v11.27h-2.66Z"/>
      <path class="cls-1" d="m344.04,462.55h-5.51v11.2c0,1.1.28,1.96.83,2.57.55.61,1.32.92,2.3.92.5,0,1.15-.13,1.94-.4v2.48c-.65.26-1.48.4-2.48.4-1.7,0-3.01-.5-3.92-1.49-.91-1-1.37-2.42-1.37-4.27v-11.41h-2.99v-2.52h2.99v-5.94h2.7v5.94h5.51v2.52Z"/>
      <path class="cls-1" d="m366,477.74c-2.16-1.2-3.84-2.87-5.04-5.02-1.2-2.15-1.8-4.59-1.8-7.33s.6-5.18,1.8-7.33c1.2-2.15,2.88-3.82,5.04-5.02,2.16-1.2,4.61-1.8,7.34-1.8s5.17.6,7.31,1.8c2.14,1.2,3.8,2.88,5,5.02,1.2,2.15,1.8,4.59,1.8,7.33s-.6,5.18-1.8,7.33c-1.2,2.15-2.87,3.82-5,5.02-2.14,1.2-4.57,1.8-7.31,1.8s-5.18-.6-7.34-1.8Zm13.79-1.35c1.9-1.07,3.38-2.56,4.45-4.48,1.07-1.92,1.6-4.09,1.6-6.52s-.53-4.6-1.6-6.52c-1.07-1.92-2.55-3.41-4.45-4.48-1.9-1.07-4.04-1.6-6.44-1.6s-4.58.53-6.48,1.6-3.38,2.56-4.45,4.48c-1.07,1.92-1.6,4.09-1.6,6.52s.53,4.6,1.6,6.52c1.07,1.92,2.55,3.41,4.45,4.48,1.9,1.07,4.06,1.6,6.48,1.6s4.55-.53,6.44-1.6Zm-10.44-2.72c-1.25-.79-2.21-1.91-2.9-3.37-.68-1.45-1.03-3.13-1.03-5.02s.34-3.52,1.03-4.93c.68-1.42,1.65-2.51,2.9-3.28,1.25-.77,2.69-1.15,4.32-1.15,1.37,0,2.63.32,3.78.95,1.15.64,2.03,1.49,2.63,2.57l-2.16,1.51c-.41-.7-1.01-1.28-1.8-1.75-.79-.47-1.61-.7-2.45-.7-1.66,0-2.98.62-3.98,1.85-1,1.24-1.49,2.88-1.49,4.91s.5,3.8,1.49,5.08c1,1.27,2.32,1.91,3.98,1.91.84,0,1.65-.23,2.43-.68.78-.46,1.4-1.07,1.85-1.84l2.12,1.58c-.62,1.1-1.51,1.97-2.65,2.59-1.14.62-2.39.94-3.76.94-1.63,0-3.07-.4-4.32-1.19Z"/>
      <path class="cls-1" d="m422.16,462.98v-11.56h4.07v27.83h-4.07v-12.46h-13.32v12.46h-4.07v-27.83h4.07v11.56h13.32Z"/>
      <path class="cls-1" d="m447.97,459.45v19.8h-3.92v-2.66h-.22c-.6.96-1.43,1.73-2.5,2.3s-2.2.86-3.4.86c-2.11,0-3.77-.66-4.97-1.98-1.2-1.32-1.8-3.18-1.8-5.58v-12.74h3.96v11.99c0,1.42.38,2.56,1.15,3.42.77.86,1.75,1.3,2.95,1.3,1.44,0,2.6-.46,3.49-1.39.89-.92,1.33-2.15,1.33-3.69v-11.63h3.92Z"/>
      <path class="cls-1" d="m453.62,478.25c-1.13-1.01-1.69-2.36-1.69-4.07,0-2.14.84-3.76,2.52-4.88,1.68-1.12,4.07-1.67,7.16-1.67h2.52v-1.26c0-1.22-.37-2.19-1.1-2.9-.73-.71-1.71-1.06-2.93-1.06-1.58,0-3.12.71-4.61,2.12l-2.45-2.3c2.04-2.18,4.5-3.28,7.38-3.28,2.33,0,4.18.65,5.56,1.94,1.38,1.3,2.07,3.02,2.07,5.18v13.18h-3.92v-2.63h-.22c-.5.96-1.28,1.72-2.34,2.29-1.06.56-2.2.85-3.42.85-1.9,0-3.41-.5-4.54-1.51Zm7.79-2.38c.78-.31,1.43-.8,1.94-1.46s.77-1.47.77-2.43v-.94h-1.91c-2.14,0-3.71.23-4.73.7-1.02.47-1.53,1.19-1.53,2.18,0,.72.28,1.3.85,1.75.56.44,1.33.67,2.29.67.77,0,1.54-.16,2.32-.47Z"/>
      <path class="cls-1" d="m476.9,454.77c-.47.46-1.09.68-1.85.68s-1.34-.23-1.78-.68c-.44-.46-.67-1.07-.67-1.84s.22-1.38.67-1.84c.44-.46,1.04-.68,1.78-.68s1.39.23,1.85.68c.47.46.7,1.07.7,1.84s-.23,1.38-.7,1.84Zm.16,4.68v19.8h-3.92v-19.8h3.92Z"/>
      <path class="cls-1" d="m502.98,479.25h-4.79l-6.3-11.12h-5.22v11.12h-4.07v-27.83h8.5c3.38,0,6,.74,7.85,2.21,1.85,1.48,2.77,3.55,2.77,6.21,0,1.92-.49,3.54-1.48,4.86-.98,1.32-2.4,2.26-4.25,2.81l6.98,11.74Zm-16.31-14.9h4c2.18,0,3.87-.39,5.06-1.17,1.19-.78,1.78-1.89,1.78-3.33s-.59-2.63-1.76-3.44c-1.18-.8-2.87-1.21-5.08-1.21h-4v9.14Z"/>
      <path class="cls-1" d="m521.91,470.65h-13.5c.19,1.78.76,3.17,1.71,4.18.95,1.01,2.23,1.51,3.83,1.51.94,0,1.81-.25,2.63-.74.82-.49,1.5-1.19,2.05-2.11l3.17,1.76c-.79,1.44-1.85,2.55-3.17,3.33-1.32.78-2.88,1.17-4.68,1.17-1.97,0-3.67-.42-5.11-1.26-1.44-.84-2.55-2.03-3.33-3.58-.78-1.55-1.17-3.37-1.17-5.45s.37-4,1.12-5.58c.74-1.58,1.81-2.8,3.2-3.65,1.39-.85,3.02-1.28,4.9-1.28,2.66,0,4.77.79,6.32,2.38,1.55,1.58,2.32,3.73,2.32,6.44,0,1.13-.1,2.09-.29,2.88Zm-3.71-3.38c0-1.49-.42-2.68-1.26-3.56-.84-.89-1.97-1.33-3.38-1.33-1.32,0-2.41.43-3.28,1.28-.86.85-1.44,2.06-1.73,3.62h9.65Z"/>
      <path class="cls-1" d="m526.2,479.25v-19.8h3.92v2.74h.18c.6-.98,1.43-1.77,2.5-2.36,1.07-.59,2.2-.88,3.4-.88,2.14,0,3.8.67,4.99,2s1.78,3.21,1.78,5.63v12.67h-3.92v-11.95c0-1.42-.38-2.55-1.15-3.4-.77-.85-1.75-1.28-2.95-1.28-1.44,0-2.6.46-3.49,1.39-.89.92-1.33,2.15-1.33,3.69v11.56h-3.92Z"/>
      <path class="cls-1" d="m581.24,479.04h-2.95l-3.31-9.32h-10.15l-3.31,9.32h-2.95l9.86-27.29h2.92l9.9,27.29Zm-11.45-23.22l-4,11.23h8.21l-4-11.23h-.22Z"/>
      <path class="cls-1" d="m584.37,451.75h2.66v23.54c0,1.03.5,1.55,1.51,1.55h1.01v2.48h-1.58c-2.4,0-3.6-1.1-3.6-3.31v-24.26Z"/>
      <path class="cls-1" d="m593.16,451.75h2.66v23.54c0,1.03.5,1.55,1.51,1.55h1.01v2.48h-1.58c-2.4,0-3.6-1.1-3.6-3.31v-24.26Z"/>
      <path class="cls-1" d="m633.98,479.04h-3.28l-6.91-11.7h-6.01v11.7h-2.77v-27.29h7.7c3.26,0,5.78.68,7.54,2.05,1.76,1.37,2.65,3.31,2.65,5.83,0,1.94-.53,3.53-1.6,4.77s-2.61,2.09-4.63,2.57l7.31,12.06Zm-11.48-14.36c2.42,0,4.28-.44,5.58-1.31,1.3-.88,1.94-2.12,1.94-3.73s-.65-2.98-1.94-3.89c-1.3-.91-3.16-1.37-5.58-1.37h-4.72v10.3h4.72Z"/>
      <path class="cls-1" d="m640.48,454.49c-.35.34-.81.5-1.39.5s-1.03-.17-1.35-.5c-.32-.34-.49-.79-.49-1.37s.16-1.03.49-1.37c.32-.34.77-.5,1.35-.5s1.04.17,1.39.5c.35.34.52.79.52,1.37s-.17,1.03-.52,1.37Zm-.02,5.54v19.04h-2.66v-19.04h2.66Z"/>
      <path class="cls-1" d="m649.13,487.07c-1.39-.7-2.5-1.67-3.31-2.92l2.23-1.51c.6.94,1.43,1.67,2.48,2.2,1.06.53,2.14.79,3.24.79,1.87,0,3.32-.57,4.36-1.71,1.03-1.14,1.55-2.74,1.55-4.81v-3.1h-.22c-.62,1.13-1.46,2-2.52,2.61-1.06.61-2.24.92-3.56.92-1.54,0-2.93-.44-4.18-1.31-1.25-.88-2.23-2.09-2.95-3.64-.72-1.55-1.08-3.29-1.08-5.24s.35-3.59,1.06-5.09c.71-1.5,1.69-2.66,2.95-3.49,1.26-.83,2.66-1.24,4.19-1.24,1.22,0,2.36.31,3.42.94,1.06.62,1.94,1.49,2.66,2.59h.22v-2.99h2.66v18.61c0,3.02-.74,5.35-2.21,6.98s-3.59,2.45-6.35,2.45c-1.7,0-3.25-.35-4.64-1.04Zm7.88-11.09c.86-.62,1.54-1.49,2.02-2.61s.72-2.39.72-3.83-.25-2.69-.74-3.82c-.49-1.13-1.18-2-2.07-2.63-.89-.62-1.9-.94-3.02-.94s-2.18.31-3.1.94c-.91.62-1.63,1.49-2.14,2.61-.52,1.12-.77,2.39-.77,3.83s.26,2.72.79,3.83c.53,1.12,1.25,1.99,2.18,2.61.92.62,1.97.94,3.15.94s2.12-.31,2.99-.94Z"/>
      <path class="cls-1" d="m667.6,479.04v-27.29h2.66v11.2h.18c.58-1.03,1.43-1.86,2.56-2.48,1.13-.62,2.3-.94,3.53-.94,2.11,0,3.77.66,4.97,1.98,1.2,1.32,1.8,3.17,1.8,5.54v11.99h-2.66v-11.56c0-1.66-.45-2.99-1.35-4s-2.03-1.51-3.4-1.51c-1.66,0-3.01.55-4.05,1.64-1.04,1.09-1.57,2.48-1.57,4.16v11.27h-2.66Z"/>
      <path class="cls-1" d="m697.66,462.55h-5.51v11.2c0,1.1.28,1.96.83,2.57.55.61,1.32.92,2.3.92.5,0,1.15-.13,1.94-.4v2.48c-.65.26-1.48.4-2.48.4-1.7,0-3.01-.5-3.92-1.49-.91-1-1.37-2.42-1.37-4.27v-11.41h-2.99v-2.52h2.99v-5.94h2.7v5.94h5.51v2.52Z"/>
      <path class="cls-1" d="m702.16,478.41c-1.3-.76-2.29-1.78-2.99-3.08l2.27-1.33c.58.98,1.33,1.75,2.25,2.29s1.99.81,3.19.81c1.3,0,2.32-.26,3.08-.77.76-.52,1.13-1.22,1.13-2.11,0-.84-.37-1.52-1.12-2.05-.74-.53-1.96-.97-3.64-1.33-2.21-.53-3.86-1.22-4.95-2.09-1.09-.86-1.64-2-1.64-3.42,0-1.78.62-3.19,1.85-4.23,1.24-1.04,2.92-1.57,5.06-1.57,1.58,0,2.98.34,4.19,1.03,1.21.68,2.21,1.66,3.01,2.93l-2.12,1.51c-.62-.98-1.37-1.73-2.25-2.25-.88-.52-1.83-.77-2.86-.77-1.25,0-2.24.28-2.99.83-.74.55-1.12,1.28-1.12,2.2,0,.79.4,1.46,1.21,2.02.8.55,2.01,1.02,3.62,1.4,4.32.94,6.48,2.72,6.48,5.36,0,1.78-.63,3.18-1.89,4.21-1.26,1.03-2.97,1.55-5.13,1.55-1.8,0-3.35-.38-4.64-1.13Z"/>
      <path class="cls-1" d="m749.65,479.04h-3.28l-6.91-11.7h-6.01v11.7h-2.77v-27.29h7.7c3.26,0,5.78.68,7.54,2.05,1.76,1.37,2.65,3.31,2.65,5.83,0,1.94-.53,3.53-1.6,4.77s-2.61,2.09-4.63,2.57l7.31,12.06Zm-11.48-14.36c2.42,0,4.28-.44,5.58-1.31,1.3-.88,1.94-2.12,1.94-3.73s-.65-2.98-1.94-3.89c-1.3-.91-3.16-1.37-5.58-1.37h-4.72v10.3h4.72Z"/>
      <path class="cls-1" d="m767.9,470.29h-13.75c.12,2.06.74,3.71,1.85,4.93,1.12,1.22,2.57,1.84,4.37,1.84,1.06,0,2.04-.25,2.95-.76.91-.5,1.67-1.24,2.27-2.2l2.12,1.44c-.79,1.27-1.81,2.25-3.04,2.93-1.24.68-2.67,1.03-4.3,1.03-1.82,0-3.41-.4-4.77-1.21-1.36-.8-2.39-1.96-3.11-3.46-.72-1.5-1.08-3.26-1.08-5.27s.35-3.82,1.04-5.33c.7-1.51,1.69-2.68,2.99-3.49,1.3-.82,2.82-1.22,4.57-1.22,2.47,0,4.44.77,5.9,2.32,1.46,1.55,2.2,3.62,2.2,6.21,0,.77-.07,1.51-.22,2.23Zm-2.52-2.41c0-1.78-.49-3.2-1.48-4.28-.98-1.08-2.28-1.62-3.89-1.62s-2.81.53-3.83,1.58c-1.02,1.06-1.66,2.5-1.93,4.32h11.12Z"/>
      <path class="cls-1" d="m773.91,478.41c-1.3-.76-2.29-1.78-2.99-3.08l2.27-1.33c.58.98,1.33,1.75,2.25,2.29s1.99.81,3.19.81c1.3,0,2.32-.26,3.08-.77.76-.52,1.13-1.22,1.13-2.11,0-.84-.37-1.52-1.12-2.05-.74-.53-1.96-.97-3.64-1.33-2.21-.53-3.86-1.22-4.95-2.09-1.09-.86-1.64-2-1.64-3.42,0-1.78.62-3.19,1.85-4.23,1.24-1.04,2.92-1.57,5.06-1.57,1.58,0,2.98.34,4.19,1.03,1.21.68,2.21,1.66,3.01,2.93l-2.12,1.51c-.62-.98-1.37-1.73-2.25-2.25-.88-.52-1.83-.77-2.86-.77-1.25,0-2.24.28-2.99.83-.74.55-1.12,1.28-1.12,2.2,0,.79.4,1.46,1.21,2.02.8.55,2.01,1.02,3.62,1.4,4.32.94,6.48,2.72,6.48,5.36,0,1.78-.63,3.18-1.89,4.21-1.26,1.03-2.97,1.55-5.13,1.55-1.8,0-3.35-.38-4.64-1.13Z"/>
      <path class="cls-1" d="m804.91,470.29h-13.75c.12,2.06.74,3.71,1.85,4.93,1.12,1.22,2.57,1.84,4.37,1.84,1.06,0,2.04-.25,2.95-.76.91-.5,1.67-1.24,2.27-2.2l2.12,1.44c-.79,1.27-1.81,2.25-3.04,2.93-1.24.68-2.67,1.03-4.3,1.03-1.82,0-3.41-.4-4.77-1.21-1.36-.8-2.39-1.96-3.11-3.46-.72-1.5-1.08-3.26-1.08-5.27s.35-3.82,1.04-5.33c.7-1.51,1.69-2.68,2.99-3.49,1.3-.82,2.82-1.22,4.57-1.22,2.47,0,4.44.77,5.9,2.32,1.46,1.55,2.2,3.62,2.2,6.21,0,.77-.07,1.51-.22,2.23Zm-2.52-2.41c0-1.78-.49-3.2-1.48-4.28-.98-1.08-2.28-1.62-3.89-1.62s-2.81.53-3.83,1.58c-1.02,1.06-1.66,2.5-1.93,4.32h11.12Z"/>
      <path class="cls-1" d="m809.44,479.04v-19.01h2.66v3.82h.18c.77-1.32,1.78-2.37,3.02-3.15,1.25-.78,2.65-1.17,4.21-1.17h.29v2.88h-.36c-1.46,0-2.75.27-3.87.81-1.12.54-1.97,1.25-2.57,2.12-.6.88-.9,1.79-.9,2.75v10.94h-2.66Z"/>
      <path class="cls-1" d="m827.76,479.04l-7.31-19.01h2.92l5.8,15.62h.22l5.8-15.62h2.88l-7.38,19.01h-2.92Z"/>
      <path class="cls-1" d="m856.03,470.29h-13.75c.12,2.06.74,3.71,1.85,4.93,1.12,1.22,2.57,1.84,4.37,1.84,1.06,0,2.04-.25,2.95-.76.91-.5,1.67-1.24,2.27-2.2l2.12,1.44c-.79,1.27-1.81,2.25-3.04,2.93-1.24.68-2.67,1.03-4.3,1.03-1.82,0-3.41-.4-4.77-1.21-1.36-.8-2.39-1.96-3.11-3.46-.72-1.5-1.08-3.26-1.08-5.27s.35-3.82,1.04-5.33c.7-1.51,1.69-2.68,2.99-3.49,1.3-.82,2.82-1.22,4.57-1.22,2.47,0,4.44.77,5.9,2.32,1.46,1.55,2.2,3.62,2.2,6.21,0,.77-.07,1.51-.22,2.23Zm-2.52-2.41c0-1.78-.49-3.2-1.48-4.28-.98-1.08-2.28-1.62-3.89-1.62s-2.81.53-3.83,1.58c-1.02,1.06-1.66,2.5-1.93,4.32h11.12Z"/>
      <path class="cls-1" d="m876.8,479.04h-2.66v-3.02h-.22c-.62,1.13-1.46,2-2.52,2.61-1.06.61-2.24.92-3.56.92-1.56,0-2.96-.44-4.21-1.31-1.25-.88-2.23-2.09-2.93-3.64-.71-1.55-1.06-3.29-1.06-5.24s.35-3.59,1.06-5.09c.71-1.5,1.69-2.66,2.93-3.49,1.25-.83,2.65-1.24,4.21-1.24,1.22,0,2.36.31,3.42.94,1.06.62,1.94,1.49,2.66,2.59h.22v-11.3h2.66v27.29Zm-3.35-13.32c-.5-1.13-1.2-2-2.09-2.63-.89-.62-1.9-.94-3.02-.94s-2.18.31-3.08.94c-.9.62-1.61,1.49-2.12,2.61-.52,1.12-.77,2.39-.77,3.83s.26,2.72.77,3.83c.52,1.12,1.24,1.99,2.16,2.61s1.97.94,3.15.94c1.1,0,2.09-.31,2.97-.94.88-.62,1.56-1.49,2.05-2.61.49-1.12.74-2.39.74-3.83s-.25-2.69-.76-3.82Z"/>
      <path class="cls-1" d="m882.05,479.04v-3.49h3.46v3.49h-3.46Z"/>
    </g>
  </g>
  <g id="_线路复制" data-name="线路复制">
    <g id="_1" data-name="1">
      <polyline class="cls-6" points="3255.52 3281.03 3329.45 3332.01 3448.74 3407.16 3476.6 3419.78 3501.3 3427.66 3600.1 3451.84 3670.53 3442.38 3757.24 3442.38 3791.4 3433.97 3827.14 3425.56 3891.78 3429.24 3935.4 3434.49 3971.14 3429.76 3985.33 3433.44 4010.55 3459.72 4027.37 3467.08 4048.39 3464.45 4095.69 3459.19 4136.69 3453.94 4194.5 3455.51 4257.56 3460.24 4260.23 3452.01 4262.73 3450.52 4293.82 3452.89 4343.75 3442.9 4366.35 3455.51 4375.33 3455.86 4381.77 3449.67 4386.28 3450.57 4386.58 3456.08 4434.67 3478.64 4449.39 3436.59 4512.45 3246.87 4520.86 3201.15 4522.96 3156.48 4522.96 3120.74 4518.23 3090.26 4506.67 3060.83 4489.85 3010.38 4401.56 2831.16 4395.78 2806.46 4398.93 2782.81 4406.29 2761.79 4423.11 2670.87 4443.08 2407.05 4438.88 2390.23 4387.37 2326.11 4234.96 2139.02 4175.58 2079.63 4155.61 2069.12 4136.16 2065.44 4092.01 2050.73 4048.92 2037.59 3945.91 1959.28 3910.7 1934.58 3872.34 1892.01 3811.37 1815.81 3652.13 1683.37 3442.96 1972.94 3435.61 1966.64 3333.12 1893.06 3242.2 1838.4 3131.31 1794.78 3034.61 2044.94 2965.58 2017.74 2952.1 2053.35"/>
      <polyline class="cls-6" points="4375.22 3456.35 4376.8 3462.04 4380.19 3462.72 4383.78 3460.64 4386.58 3456.08"/>
      <polyline class="cls-6" points="4257.08 3460.21 4259.3 3464.58 4294.61 3467.6 4299.21 3462.35 4299.78 3456.04 4299.51 3451.75"/>
      <polyline class="cls-6" points="2965.58 2017.74 3037.77 1844.36 3101.2 1870.98"/>
    </g>
    <g id="_2" data-name="2">
      <polyline class="cls-6" points="2957.18 3502.64 3086.12 3407.16 3118.57 3377.47 3165.87 3317.82 3206.64 3258.43 3211.55 3253.09 3255.42 3280.96"/>
      <polyline class="cls-6" points="4522.96 3143.86 4533.56 3140.89 4537.02 3133.48 4538.6 3120.61 4541.09 3099.85 4544.51 3067.13 4548.85 3035.86 4560.8 2959.53 4570.13 2891.6 4580.64 2822.89 4586.38 2757.06 4586.38 2677.88 4580.77 2620.07 4564.74 2552.62 4556.07 2531.86 4515.87 2451.72 4491.96 2419.4 4466.86 2394.96 4449.39 2381.03 4437.17 2374.73 4422.98 2370.44"/>
      <polyline class="cls-6" points="4344.45 2273.42 4294.88 2289.06 4250.47 2303.51 4177.15 2325.32 4122.5 2276.19 4133.27 2171.34 4140.89 2074.64 4141.42 2019.46 4136.42 1954.29 4132.22 1903.84 4129.33 1802.4 4092.54 1701.5 4058.91 1613.47 4050.5 1586.4 4031.31 1492.07 3988.48 1348.59 3969.82 1288.16 3874.7 1310.23 3833.71 1194.35 3819.26 1153.62"/>
    </g>
    <g id="_3" data-name="3">
      <polyline class="cls-6" points="3071.97 1948.31 3159.34 1988.71 3266.2 2037.41 3375.52 2096.27 3553.5 2197.53 3737.53 2297.03 3720.28 2332.07 3717.82 2354.14 3729.74 2384.97 3787.55 2515.31 3829.14 2547.73 3907.74 2430.89 3918.16 2417.31 3920.26 2418.31 3922.16 2418.97 3924.66 2419.45 3927.16 2419.53 3931.26 2418.81 3934.83 2416.88 3936.83 2415.24 3938.51 2413.32 3940.29 2410.19 3941.04 2407.91 3941.4 2405.77 3941.48 2403.01 3940.87 2400.01 3938.36 2394.63 4177.15 2325.32"/>
      <polyline class="cls-6" points="4770.5 4336.86 4763.84 4308.83 4733.01 4187.6 4725.3 4161.5 4723.02 4136.1 4724.42 4124.36 4728.98 4109.3 4737.39 4093 4757.53 4073.03 4783.11 4047.11 4796.42 4030.46 4803.08 4016.27 4805.01 3992.1 4801.85 3921.67 4828.66 3916.77 4861.24 3906.78 4888.22 3888.39 4921.33 3858.08 4913.62 3826.2 4912.22 3817.79 4907.66 3808.68 4901.18 3801.85 4883.84 3795.89 4853.01 3784.16 4837.77 3772.59 4819.72 3751.57 4802.55 3719.34 4782.93 3671.86 4782.41 3651.37 4786.61 3630.52 4797.12 3565 4797.3 3524.54 4785.21 3485.12 4769.27 3442.9 4766.12 3428.71 4771.37 3419.08 4784.51 3404.71 4823.58 3361.27 4834.61 3345.5 4826.73 3321.15 4826.38 3309.76 4848.1 3271.92 4848.1 3230.23 4818.32 3218.14 4789.68 3195.11 4761.56 3166.46 4720.04 3155.95 4691.4 3154.11 4500.36 3155.95 4453.59 3153.32 4413.91 3145.7 4363.2 3145.7 4355.23 3138.17 4354.72 3111.55 4361.62 3103.4 4386.32 3083.69 4489.85 3010.38"/>
      <polyline class="cls-6" points="3938.59 2395.13 3935.24 2391.99 3932.05 2390.2 3928.61 2389.23 3926.73 2389.05 3924.2 2389.18 3920.34 2390.23 3917.19 2392.02 3915.58 2393.32 3914.07 2395.1 3912.55 2397.57 3911.83 2399.31 3911.28 2401.34 3911.01 2403.5 3911.2 2406.17 3911.52 2408.27 3912.14 2410.09 3913.23 2412.17 3915.27 2414.87 3918.16 2417.31"/>
    </g>
    <g id="_4" data-name="4">
      <polyline class="cls-6" points="5332.83 1522.29 5314.04 1533.06 5273.05 1563.15 5231.93 1605.46 5227.07 1611.24 5157.3 1648.94 5117.49 1673.78 5106.72 1685.47 5088.45 1695.46 5045.36 1712.14 4991.23 1725.54 4980.98 1729.75 4952.07 1744.33 4920.8 1772.58 4904.64 1789.66 4889.4 1804.11 4874.16 1812.26 4850.51 1822.64 4782.06 1848.39 4770.5 1855.4 4755.26 1862.76 4737.91 1877.82 4686.76 1927.92 4619.14 1995.72 4567.11 2046 4588.83 2078.58 4599.34 2102.76 4602.67 2123.08 4600.74 2199.81 4600.22 2302.46 4602.15 2314.9 4603.02 2322.61 4611.43 2337.5 4639.28 2379.02 4642.79 2388.13 4645.59 2423.69 4644.89 2466.78 4650.5 2514.96 4668.54 2569.62 4686.23 2620.59 4695.87 2664.88 4724.38 2842.99 4723.99 2851.92 4719.52 2880.3 4710.45 2942.45 4691.93 3066.21 4686.01 3130.33 4687.33 3149.12 4693.24 3168.17 4696.13 3173.82 4716.89 3170.4 4720.04 3155.95"/>
      <polyline class="cls-6" points="4386.28 3450.57 4389.61 3443.43 4366.88 3405.85 4366.88 3335.69 4362.67 3280.64 4359.12 3234.39 4356.63 3188.54 4354.63 3152.01 4355.23 3138.17"/>
      <polyline class="cls-6" points="4434.67 3478.64 4459.64 3489.54 4490.77 3495.59 4511.53 3497.16 4522.18 3498.87"/>
    </g>
    <g id="_5" data-name="5">
      <polyline class="cls-6" points="4460.55 2411.25 4451.23 2396.4 4446.23 2392.86 4437.87 2388.98"/>
      <polyline class="cls-6" points="4344.45 2273.42 4363.37 2256.57 4439.27 2177.25 4492.48 2123.08 4547.66 2063.34 4567.11 2046 4562.64 2039.69 4549.64 2020.51 4536.5 1991.73 4528.22 1969.27 4521.91 1949.69 4517.97 1931.82 4508.25 1887.54 4488.45 1819.48 4454.29 1707.89 4442.91 1671.11 4436.95 1645 4434.5 1602.78 4443.61 1484.71 4446.76 1413.5 4450.18 1357.53 4453.07 1308.13 4449.91 1263.98 4434.67 1188.04 4434.67 1170.43 4476.98 1075.31 4516.92 983.86 4552.39 918.35 4562.38 898.9 4588.66 867.19 4589.36 853.53 4587.43 847.57 4547.66 798 4542.06 787.31 4540.48 773.12 4540.83 762.96 4545.91 737.03 4553.09 702.7 4563.61 622.29 4591.81 458.84 4599.52 392.1"/>
    </g>
    <g id="_6" data-name="6">
      <polyline class="cls-6" points="3911.28 2401.34 3902.12 2394.78 3827.53 2345.3 3773.53 2317.57 3737.53 2297.03 3740.55 2286.96 3754.35 2204.19 3779.84 2019.98 3801.65 1868.89 3811.64 1802.14 3825.3 1694.4 3834.85 1644.74 3834.85 1540.68 3838.35 1468.77 3924.89 1451.6 3874.7 1310.23"/>
      <polyline class="cls-6" points="3928.61 2389.23 3928.61 2351.34 3928.61 2276.45 3930.93 2204.71 3933.04 2126.4 3986.12 2166.35 4091.49 2251.75 4122.5 2276.19"/>
      <polyline class="cls-6" points="4176.46 2324.7 4209.34 2350.16 4233.78 2367.63 4255.07 2389.23 4265.84 2404.29 4296.45 2456.97 4306.18 2495.6 4307.23 2538.96 4283.05 2609.12 4220.51 2736.57 4296.45 2759.16 4347.69 2774.4 4369.24 2786.23 4399.43 2822.06"/>
      <path class="cls-6" d="m3901.17,3430.37l-.1-10.07-2.45-11.04-3.42-16.55v-8.67l6.96-17.87s22.86-25.36,23.12-25.75,8.15-9.07,8.15-9.07l15.11-8.28,15.11-2.89,12.88,1.71,12.74,5.91,17.61,5.65,48.88,1.84,8.15-8.15,8.8-17.87,11.43-16.69,24.83-22.2,19.45-10.51,51.9-1.45,12.61.39,14.32,8.8,10.64,1.05,15.9-6.57,38.76-18.53,10.38-1.84,6.96,1.97,9.33,5.65,5.52,6.83,22.73,28.12,21.28,8.41,15.05,2.58"/>
    </g>
    <g id="_7" data-name="7">
      <polyline class="cls-6" points="3829.14 2547.73 3804.8 2586 3796.39 2600.19 3788.77 2627.25 3784.04 2658.78 3776.69 2699.51 3765.12 2739.98 3748.04 2784.39 3711.26 2865.06 3687.08 2919.19 3673.15 2950.46 3656.86 2975.43 3642.93 2988.57 3622.18 3008.27 3511.55 3081.06 3430.61 3133.09 3395.4 3157.79 3384.89 3170.14 3363.87 3193.53 3353.88 3215.34 3349.42 3236.36 3347.05 3257.91 3344.16 3289.97 3334.7 3316.51 3327.41 3330.6 3323.66 3362.76 3316.66 3497.56 3307.64 3673.62 3312.1 3708.3 3317.36 3738 3329.71 3764.01 3350.47 3801.59 3374.38 3828.13 3392.25 3844.68 3430.35 3877 3546.76 3975.54 3625.85 4042.03 3639.52 4052.27 3634 4060.16 3575.93 4130.58 3447.96 4205.21 3367.02 4253.3 3429.04 4348.68 3533.09 4283.78 3558.32 4321.88 3470.03 4377.06"/>
      <polyline class="cls-6" points="3933.04 2126.4 3935.4 2039.43 3939.08 1968.74 3942.5 1910.67 3947.49 1818.96 3950.64 1712.01 3953.8 1664.97 3955.9 1639.48 3959.58 1622.93 3962.47 1613.47 3962.47 1596.13 3957.21 1560.65 3940.66 1501.27 3924.89 1451.6"/>
    </g>
    <g id="_8" data-name="8">
      <polyline class="cls-6" points="3211.55 3253.09 3195.96 3241.35 3181.5 3228.21 3161.53 3200.36 3149.88 3171.19 3140.77 3147.72 3136.57 3113.73 3135.17 3080.1 3130.96 3056.62 3108.19 3033.5 3074.91 3005.12 3050.73 2983.75 3032.86 2960.97 3013.24 2909.47 2999.58 2854.81 2986.26 2813.12 2969.09 2783.34 2939.31 2754.26 2831.75 2662.46 2777.8 2614.81 2772.89 2606.76 2803.72 2531.78 2774.29 2527.92 2743.46 2520.21 2654.82 2463.11 2599.46 2422.81 2553.91 2396.89 2517.12 2377.97 2490.85 2374.81 2390.29 2378.67 2231.93 2383.22 2206.35 2384.62 2162.55 2384.97 2158 2374.81 2144.69 2370.26 2056.74 2321.21 2042.38 2317.7 2017.15 2310.35 1991.93 2306.84 1952.69 2301.59 1929.91 2301.59 1866.5 2311.75 1852.83 2316.65 1818.15 2267.25 1767.69 2201.03 1738.26 2166 1602.67 1994.67 1547.66 1787.6 1542.06 1680.04 1546.96 1629.94 1563.78 1532.54 1577.8 1407.11 1581.3 1387.48 1578.85 1348.24 1593.91 1302 1635.61 1203.19"/>
      <polyline class="cls-6" points="2162.55 2384.97 2084.77 2386.38 1953.82 2393.91 1860.01 2398.38 1845.47 2403.37 1827.23 2411.53 1790.64 2376.17 1813.5 2344.51 1831.64 2327.43 1839.39 2322.83 1852.83 2316.65"/>
    </g>
    <g id="_9" data-name="9">
      <polyline class="cls-6" points="4423.3 2668.38 4408.39 2656.86 4283.05 2609.12 4235.66 2593.09 4093.42 2499.89 3990.06 2440.68 3940.29 2410.19"/>
      <polyline class="cls-6" points="3349.03 2082.01 3313.85 2144.27 3266.12 2221.27 3234.06 2273.03 3189.12 2323.48 3123.26 2368.68 3071.97 2394.78 3002.03 2433.5 2875.9 2503.22 2834.2 2523.19 2813.18 2528.8 2803.72 2531.78"/>
      <polyline class="cls-6" points="2215.6 2384.12 2214.23 2350.81 2212.92 2310.87 2214.26 2299.05 2227.37 2261.21 2249.18 2223.37 2276.25 2144.27 2310.67 2023.92 2316.98 1996.86 2324.34 1979.51 2369.01 1891.75 2383.99 1863.37 2393.45 1843.66 2395.55 1833.94"/>
    </g>
    <g id="_10" data-name="10">
      <polyline class="cls-6" points="4354.72 3137.03 4347.96 3126.87 4335.87 3126.87 4314.15 3096.57 4299.26 3069.94 4293.04 3055.05 4293.04 3035.08 4317.74 2960.19 4312.48 2938.38 4297.77 2904.74 4279.9 2867.95 4262.03 2838.52 4252.83 2827.75 4231.02 2814.08 4218.41 2807.78 4207.11 2792.27 4207.11 2777.3 4210.79 2757.85 4220.51 2736.57"/>
      <polyline class="cls-6" points="4307.23 2538.96 4334.82 2543.34 4366 2547.73 4432.64 2545.02"/>
      <line class="cls-7" x1="3445.77" y1="4377.06" x2="3429.04" y2="4348.68"/>
    </g>
    <g id="_12" data-name="12">
      <polyline class="cls-6" points="4490.77 3495.59 4484.25 3521.91 4470.76 3589.88 4418.73 3539.78 4434.89 3478.01"/>
      <polyline class="cls-6" points="4096.3 2501.78 4087.81 2518.99 4070.47 2554.99 4032.36 2620.42 4022.91 2645.91 4033.28 2649.72 4059.96 2662.46 4081.24 2673.63 4126.7 2697.02 4157.45 2713.18 4210.26 2731.84 4221.07 2736.73"/>
      <polyline class="cls-6" points="3155.79 1987.07 3109.94 2089.27 3029.01 2050.73 2958.23 2021.3 3033.04 1841.95 3037.77 1844.36"/>
      <polyline class="cls-6" points="3969.82 1288.16 3917.01 1155.98 3833.71 1194.35"/>
      <polyline class="cls-6" points="3874.7 1310.23 3868.92 1313.65 3686.55 1316.8 3688.92 1422.7 3690.23 1558.81 3689.18 1589.56 3679.2 1629.24 3667.9 1654.46 3652.13 1683.37"/>
    </g>
    <g id="_13" data-name="13">
      <polyline class="cls-6" points="4770.13 4335.33 4779.08 4366.99 4810.61 4488.92 4823.93 4537.62 4836.19 4565.47 4871.4 4630.11 4938.67 4761.5 5016.45 4906.03 5053.24 4980.13 5062.7 5009.56"/>
      <polyline class="cls-6" points="2972.72 3491.13 2934.76 3444.48 2902.88 3390.87 2858.73 3259.84 2855.23 3234.96 2848.22 3188.01 2832.45 3027.19"/>
    </g>
    <g id="_14" data-name="14">
      <polyline class="cls-6" points="3653.13 1684.2 3646.88 1677.85 3627.78 1658.14 3582.5 1619.25 3566.2 1604.54 3494.47 1554.08 3454 1534.11 3383.05 1522.55 3261.12 1508.36 3198.06 1514.67 3023.05 1548.3 2958.93 1552.51 2905.85 1547.25 2842.26 1527.81 2786.03 1502.84 2751.34 1492.33 2704.04 1486.55 2618.91 1483.66 2567.66 1478.93 2542.7 1470.26 2505.65 1436.89 2488.83 1411.66 2442.85 1328.1 2398.18 1245.06 2392.39 1215.37 2392.39 1201.7 2397.91 1085.56 2402.64 1055.08 2408.69 1016.45 2417.62 961.53 2411.31 907.66 2409.74 885.59 2400.28 865.62 2392.39 835.13 2389.77 814.38 2388.19 783.11 2330.12 788.62 2332.48 773.38"/>
      <polyline class="cls-6" points="2332.32 774.41 2333.4 768.52 2358.5 764.32 2364.01 754.99 2367.96 751.7 2375.18 748.29 2378.47 748.29 2388.19 783.11"/>
    </g>
    <g id="_15" data-name="15">
      <polyline class="cls-6" points="3690.13 1547.79 3834.96 1538.29 3944.43 1514.79 4063.11 1479.46 4201.85 1439.51 4302.76 1413.76 4383.17 1422.7 4402.09 1428.48 4445.21 1448.43"/>
      <polyline class="cls-6" points="5331.64 1522.97 5343.08 1516.11 5377.5 1493.38 5439.69 1451.78 5506.09 1406.76 5543.58 1376.62 5555.14 1365.94 5568.8 1328.62 5577.21 1294.46 5578.09 1270.64 5579.14 1253.82 5587.55 1239.11 6413.71 412.94"/>
    </g>
    <polyline id="_16" data-name="16" class="cls-6" points="4848.1 3230.23 4865.8 3236.01 4958.82 3252.65 5091.61 3276.13 5133.3 3289.27 5139.08 3304.16 5133.65 3317.3 5115.08 3391.57 5109.12 3424.16 5105.27 3456.04 5105.27 3481.97 5114.03 3533.47 5144.86 3650.14 5152.22 3696.74 5148.72 3732.13 5145.21 3798.7 5144.51 3857.91 5148.01 3915.02 5149.94 3957.94 5230.35 4015.75 5334.67 4080.13 5347.37 4085.3 5365.02 4088.14 6474.85 4295.86"/>
    <g id="_18" data-name="18">
      <polyline class="cls-6" points="4836.19 4565.47 4880.07 4544.97 4956.54 4495.31 5024.34 4448.01 5062.7 4372.33 5062.7 4250.14 5066.91 4193.38 5081.88 4152.39 5129.18 4086.96 5152.04 4041.24 5152.04 3983.69 5149.94 3957.94"/>
      <polyline class="cls-6" points="5139.08 3304.16 5160.98 3219.54 5170.44 3173.82 5154.76 3122.84 5107.37 2999.86 5103.87 2971.13 5106.67 2923.48 5118.41 2787.02 5119.99 2718.17 5107.37 2644.07 5047.99 2425.97 5021.71 2380.77 4976.51 2331.37 4941.3 2293.53 4897.15 2240.45 4878.76 2196.83 4854.06 2073.32 4844.07 2039.16 4818.32 1993.97 4744.67 1871.95"/>
      <polyline class="cls-6" points="3851.84 2623.31 3816.89 2600.71 3804.8 2586"/>
    </g>
    <polyline id="_21" data-name="21" class="cls-6" points="4487.52 1816.45 4403.14 1827.19 4398.23 1803.72 4387.72 1775.34 4303.28 1810.03 4252.13 1661.12 4223.05 1553.91"/>
    <polyline id="_22" data-name="22" class="cls-6" points="3098.66 1869.91 3110.16 1874.67 3202 1913.03 3246.41 1831.4 3276.36 1770.35 3286.88 1744.86 3290.82 1716.21 3290.82 1691.25 3383.84 1693.62 3388.57 1749.85 3392.25 1763.25 3403.81 1792.94 3417.56 1811.43 3438 1831.05 3468.36 1855.57 3523.37 1885.7 3602.99 1928.54 3774.23 2019.89 3930.15 2125.35 3940.45 2131.99"/>
    <g id="_24" data-name="24">
      <polyline class="cls-6" points="4122.79 2273.38 4118.82 2303.86 4110.76 2378.32 4102 2470.11 4095.61 2503.18"/>
      <polyline class="cls-6" points="4022.91 2645.91 3961.94 2645.91 3912.28 2642.49 3875.49 2632.51 3850.61 2622.52"/>
      <polyline class="cls-6" points="3307.64 3673.62 3269.01 3676.24 3175.46 3680.45 3142.35 3688.86 3114.5 3695.16 3080.86 3710.93 3051.43 3740.36 3003.43 3778.73 2954.2 3807.63 2902.18 3818.67 2834.38 3833.91 2767.64 3852.83 2806.53 3932.19 2824.92 3976.33 2846.47 4027.31 2871.17 4117.7 2812.31 4151.86"/>
    </g>
    <g id="_25" data-name="25">
      <polyline class="cls-6" points="3686.55 1316.8 3574.18 1316.8 3574.18 1345.79 3574.18 1421.82 3688.92 1422.7"/>
      <polyline class="cls-6" points="3430.35 3877 3510.23 3785.03 3555.43 3734.05 3701.01 3832.86 3769.85 3888.57 3639.52 4052.27"/>
      <polyline class="cls-6" points="3367.02 4253.3 3144.19 4362.08 3011.49 4424.1 2955.26 4467.72 2877.47 4567.57 2765.01 4705.27 2581.07 4833.5"/>
    </g>
    <g id="_201" data-name="201">
      <polyline class="cls-6" points="4294.61 3467.6 4310.38 3473.65 4418.73 3539.78"/>
      <polyline class="cls-6" points="4470.76 3589.88 4493.71 3599.95 4520.16 3599.95 4530.32 3586.38 4537.42 3507.15 4543.07 3449.6 4543.07 3350.93 4543.07 3306.78 4535.93 3209.38 4519.8 3206.9"/>
    </g>
    <g id="_202" data-name="202">
      <line class="cls-7" x1="3884.95" y1="2499.54" x2="4054.52" y2="2582.37"/>
      <polyline class="cls-6" points="4402.36 2832.78 4374.76 2852.01 4345.33 2878.64 4325.36 2924.19 4317.74 2960.19"/>
      <polyline class="cls-6" points="4719.34 3159.17 4724.6 3134.93 4751.05 3045.06 4767.17 3005.47 4757.36 2992.86 4723.37 2952.57 4718.47 2943.11 4710.74 2940.45"/>
      <polyline class="cls-6" points="4223.28 1554.77 4212.36 1512.57 4199.75 1447.13 4193.71 1413.76 4188.45 1396.94 4188.45 1342.03 4186.09 1267.4 4186.09 1212.74"/>
    </g>
    <g id="_203" data-name="203">
      <line class="cls-7" x1="4358.99" y1="2649.85" x2="4422.23" y2="2675.63"/>
      <line class="cls-7" x1="4436.85" y1="2489.36" x2="4306.21" y2="2497.1"/>
      <polyline class="cls-6" points="4278.14 2294.51 4242.67 2251.84 4171.9 2196.13 3995.66 2065.79 3915.08 2004.13 3794.9 1915.64"/>
    </g>
    <g id="_204" data-name="204">
      <path class="cls-6" d="m4515.63,2098.02l-20.34,10.17-10.16-3.11-13.14-12.65-38.36-34.69-19.62-32.58-7.71-26.98-36.79-47.65v-12.26s-23.48-35.74-25.06-38.89-7.88-31.88-7.88-31.88l-21.02-20.32-12.26-37.14"/>
      <polyline class="cls-6" points="4433.62 2057.73 4495.64 2028.3 4546.79 2014.27"/>
      <polyline class="cls-6" points="4028.65 2630.42 3981.65 2630.42 3948.28 2624.62 3895.72 2603.34 3863.93 2582.37 3842.91 2565.5 3829.14 2548.33"/>
    </g>
    <g id="_205" data-name="205">
      <line class="cls-7" x1="3950.64" y1="1712.01" x2="3823.26" y2="1710.52"/>
      <line class="cls-7" x1="4129.33" y1="1802.4" x2="3948.04" y2="1800.22"/>
    </g>
    <g id="_206" data-name="206">
      <polyline class="cls-6" points="4230.58 2134.64 4280.86 2108.19 4235.66 2025.85 4185.21 1927.05 4150.61 1853.65 4129.38 1804.18"/>
      <line class="cls-7" x1="4096.1" y1="1711.26" x2="3951.23" y2="1712.01"/>
      <polyline class="cls-6" points="3725.83 1744.66 3714.41 1762.46 3691.81 1820.01 3698.38 1842.61 3688.13 1867.57 3651.61 1920.13 3634.26 1933.79 3620.63 1937.94"/>
      <polyline class="cls-6" points="3588.31 1920.64 3570.93 1953.5 3548.6 1994.49 3531.26 2035.22 3525.74 2106.96 3489.47 2178.17 3472.92 2206.29 3495.78 2217.59 3513.65 2231.51 3527.58 2251.48 3590.38 2287.22 3558.41 2331.72"/>
    </g>
    <polyline id="_207" data-name="207" class="cls-6" points="3350.47 3801.59 3158.12 3920.1 3368.43 4255.46"/>
    <g id="_208" data-name="208">
      <polyline class="cls-6" points="3928.61 2276.45 3838.7 2211.54 3867.93 1969.41"/>
    </g>
    <g id="_209" data-name="209">
      <polyline class="cls-6" points="1827.23 2411.53 1747.37 2466.96 1715.49 2491.84 1650.32 2522.67 1618.44 2525.82 1463.23 2505.15 1226.03 2466.96"/>
      <line class="cls-7" x1="1952.69" y1="2301.59" x2="1949.34" y2="2394.12"/>
      <polyline class="cls-6" points="2231.93 2383.22 2236.57 2417.82 2241.56 2465.38 2233.42 2521.62 2280.19 2563.66 2314.35 2587.84 2388.72 2625.41 2402.38 2645.65 2471.23 2687.16 2498.55 2739.19 2506.96 2784.92 2534.82 2857.44 2558.47 2897.91 2561.62 2927.86 2549.01 2952.04 2539.02 2976.74 2474.91 3008.8 2561.62 3244.24 2575.28 3305.73 2585.8 3330.96 2599.99 3330.96 2608.92 3347.25 2605.77 3363.02"/>
      <polyline class="cls-6" points="1853.4 2317 1861.07 2329.35 1879.81 2378.32 1885.59 2396.8"/>
    </g>
    <polyline id="_301" data-name="301" class="cls-6" points="3639.96 4052.27 3655.72 4069.27 3870.23 4248.57 3870.23 4721.56 4443.08 5144.1"/>
    <polyline id="_302" data-name="302" class="cls-6" points="5062.7 5009.56 5062.7 5566.64 5780.86 6284.8"/>
    <polyline id="_304" data-name="304" class="cls-6" points="1747.37 2466.96 1736.51 2506.9 1747.37 2619.37 1747.37 3922.73 1342 4328.1"/>
    <polyline id="_305" data-name="305" class="cls-6" points="2378.47 748.29 2378.47 727.92 2583.69 346.25 3794.9 346.25"/>
    <polyline id="_306" data-name="306" class="cls-6" points="5106.72 1685.47 5226.67 1654.99 5689.68 1654.99 6155.23 1189.44 6692.42 1189.44"/>
    <g id="_307" data-name="307">
      <polyline class="cls-6" points="3131.31 1794.78 3178.09 1677.06 3206.99 1588.77 3206.99 1513.77"/>
      <polyline class="cls-6" points="2330.12 788.62 2051.58 808.33 1779.61 819.89 2054.86 243.89 3455.05 243.89 3557.47 346.31"/>
    </g>
    <g id="_308" data-name="308">
      <line id="_308-2" data-name="308" class="cls-7" x1="3870.23" y1="4721.56" x2="4060.48" y2="4721.56"/>
      <line class="cls-7" x1="3358.55" y1="2087.14" x2="3442.96" y2="1972.94"/>
    </g>
    <polyline id="_309" data-name="309" class="cls-6" points="2958.63 3501.56 2937.21 3516.65 1872.1 3977.38 1568.34 4281.15"/>
    <polyline id="_601" data-name="601" class="cls-6" points="1226.03 2466.96 390.92 1631.85 390.92 1250.84"/>
    <polyline id="_602" data-name="602" class="cls-6" points="1779.61 819.89 1475.84 819.89 869.36 1250.84 226.09 1250.84"/>
    <polyline id="H1" class="cls-6" points="3109.94 2089.27 3133.59 2106.61 3176.34 2154.78 3249.08 2029.61"/>
  </g>
</svg>